<svg width="512" height="512" xmlns="http://www.w3.org/2000/svg">

 <g>
  <title>background</title>
  <rect fill="none" id="canvas_background" height="402" width="582" y="-1" x="-1"/>
 </g>
 <g>
  <title>Layer 1</title>
  <path fill="#a3bde0" clip-rule="evenodd" fill-rule="evenodd" id="svg_2" d="m21.9,277.7c-3.2,0 -5.8,2.6 -5.8,5.8c0,3.2 2.6,5.8 5.8,5.8l468.2,0c3.2,0 5.8,-2.6 5.8,-5.8c0,-3.2 -2.6,-5.8 -5.8,-5.8l-468.2,0z" class="st0"/>
  <path fill="#5b80b7" clip-rule="evenodd" fill-rule="evenodd" id="svg_3" d="m495.5,299.7l-479,0c-5.8,0 -10.5,4.7 -10.5,10.5c0,5.8 4.7,10.5 10.5,10.5l479.1,0c5.8,0 10.5,-4.7 10.5,-10.5c-0.1,-5.8 -4.8,-10.5 -10.6,-10.5z" class="st0"/>
  <path fill="#003da5" clip-rule="evenodd" fill-rule="evenodd" id="svg_4" d="m434.5,351.6c-15.1,10.2 -29.2,22.2 -46.4,28.8c-21.2,8.2 -45.9,6.9 -66.2,-3.5c-21.9,-11.2 -38.8,-34.8 -63.4,-40.3c-29.8,-6.6 -62.3,11.1 -87.8,24.1c-26.3,13.4 -57.9,28.7 -88.2,21.4c-24.8,-6 -41.6,-27.3 -50.9,-49.9l-25.6,0l0,31.9c0,41.8 20.9,75.6 46.7,75.6l406.6,0c25.8,0 46.7,-33.8 46.7,-75.6c0,0 0,-31.9 0,-31.9c-0.3,-1.8 -30.6,1.4 -33.5,2c-10.1,1.9 -19.4,6 -28.3,11.2c-3.3,1.9 -6.6,4 -9.7,6.2z" class="st0"/>
  <path fill="#003da5" clip-rule="evenodd" fill-rule="evenodd" id="svg_5" d="m256,72.3c-137,0 -248.2,86.5 -250,193.7l500,0c-1.8,-107.2 -113,-193.7 -250,-193.7zm-196.3,139l-2,-2.2l7.6,-6.7l2,2.2l-7.6,6.7zm101.6,-52.6l-2,-2.2l7.6,-6.7l2,2.2l-7.6,6.7zm33.7,83.1l-2,-2.2l7.6,-6.7l2,2.2l-7.6,6.7zm9.5,-51.4l-2,-2.2l7.6,-6.7l2,2.2l-7.6,6.7zm25.2,-69.8l-2,-2.2l7.6,-6.7l2,2.2l-7.6,6.7zm64.3,50.8l7.6,-6.7l2,2.2l-7.6,6.7l-2,-2.2zm6.8,65.9l-2,-2.2l7.6,-6.7l2,2.2l-7.6,6.7zm27.1,-105.5l-2,-2.2l7.6,-6.7l2,2.2l-7.6,6.7zm40.7,46.3l-2,-2.2l7.6,-6.7l2,2.2l-7.6,6.7zm40.9,46.5l-2,-2.2l7.6,-6.7l2,2.2l-7.6,6.7z" class="st0"/>
 </g>
</svg>