<svg id="Layer_1" data-name="Layer 1" xmlns="http://www.w3.org/2000/svg" xmlns:xlink="http://www.w3.org/1999/xlink" viewBox="0 0 394.89 211"><defs><style>.cls-1{fill:#fff}.cls-2{fill:#b8c0d7}.cls-3{fill:#e18173}.cls-4{fill:#d1725f}.cls-5{fill:#dee6fd}.cls-6{fill:#a6aec5}.cls-7{fill:url(#linear-gradient)}.cls-8{fill:url(#linear-gradient-2)}.cls-9{fill:#472f5b}.cls-10{fill:url(#linear-gradient-3)}.cls-11{fill:url(#linear-gradient-4)}.cls-12{fill:#29163a}.cls-13{fill:url(#linear-gradient-5)}.cls-14{fill:url(#linear-gradient-6)}.cls-15{fill:url(#linear-gradient-7)}.cls-16{fill:#6e425a}.cls-17{fill:url(#linear-gradient-8)}.cls-18{fill:#b1615f}.cls-19{fill:#aa504b}.cls-20{fill:#b97577}.cls-21{fill:url(#linear-gradient-9)}.cls-22{fill:url(#linear-gradient-10)}.cls-23{fill:url(#linear-gradient-11)}.cls-24{fill:#283047}.cls-25{fill:#bf6e73}.cls-26{fill:#210e26}.cls-27{fill:url(#linear-gradient-12)}.cls-28{fill:url(#linear-gradient-13)}.cls-29{fill:url(#linear-gradient-14)}.cls-30{fill:url(#linear-gradient-15)}.cls-31{fill:url(#linear-gradient-16)}.cls-32{fill:#020025}.cls-33{fill:url(#linear-gradient-17)}.cls-34{fill:#1d002e}.cls-35{fill:#e8aa5d}.cls-36{fill:#66263f}.cls-37{fill:url(#linear-gradient-18)}.cls-38{fill:url(#linear-gradient-19)}.cls-39{fill:#d2d1c9}.cls-40{fill:url(#linear-gradient-20)}.cls-41{fill:#51102e}.cls-42{fill:#351a48}.cls-43{fill:url(#linear-gradient-21)}.cls-44{fill:url(#linear-gradient-22)}.cls-45{fill:#e9c35f}.cls-46{fill:url(#linear-gradient-23)}.cls-47{fill:#99660a}.cls-145,.cls-48,.cls-62,.cls-65,.cls-81{fill:none}.cls-48,.cls-65{stroke:#99660a;stroke-width:.44px}.cls-145,.cls-48,.cls-62{stroke-miterlimit:10}.cls-49{fill:#3c93be}.cls-50{fill:url(#linear-gradient-24)}.cls-51{fill:#281547}.cls-52{fill:#e5f0ff}.cls-53{fill:#b8c8e9}.cls-54{fill:#c8d6f3}.cls-55{fill:url(#linear-gradient-25)}.cls-56{fill:#190e30}.cls-57{fill:url(#linear-gradient-26)}.cls-58{fill:url(#linear-gradient-27)}.cls-59{fill:url(#linear-gradient-28)}.cls-60{fill:#1f1a66}.cls-61{fill:#2d68be}.cls-62{stroke:#1f1a66;stroke-width:.37px}.cls-63{fill:#8aa1cc;fill-rule:evenodd}.cls-64{fill:#5f223e}.cls-65,.cls-81{stroke-linejoin:round}.cls-66{fill:url(#linear-gradient-29)}.cls-67{fill:#dae0f1}.cls-68{fill:#6c3e2f}.cls-69{fill:#23001a}.cls-70{fill:#ed5e41}.cls-71{fill:#e8225e}.cls-72{fill:url(#linear-gradient-30)}.cls-73{fill:#622f20}.cls-74{fill:url(#linear-gradient-31)}.cls-75{fill:#e20040}.cls-76{fill:#c280b6}.cls-77{fill:url(#linear-gradient-32)}.cls-78{fill:url(#linear-gradient-33)}.cls-79{fill:#d8b2d4}.cls-80{fill:url(#linear-gradient-34)}.cls-81{stroke:#d8b2d4;stroke-width:.79px}.cls-145,.cls-81{stroke-linecap:round}.cls-82{fill:url(#linear-gradient-35)}.cls-83{fill:#ece3de}.cls-84{fill:url(#linear-gradient-36)}.cls-85{fill:#efb94b}.cls-86{fill:url(#linear-gradient-37)}.cls-87{fill:url(#linear-gradient-38)}.cls-88{fill:#e9043e}.cls-89{fill:#176498}.cls-90{fill:url(#linear-gradient-39)}.cls-91{fill:#a26200}.cls-92{fill:#2a001e}.cls-93{fill:#f0e6ed}.cls-94{fill:#8a0e2f}.cls-95{fill:#133963}.cls-96{fill:#d8d0ca}.cls-97{fill:#ed7652}.cls-98{fill:#de4a6c}.cls-99{fill:url(#linear-gradient-40)}.cls-100{fill:url(#linear-gradient-41)}.cls-101{fill:url(#linear-gradient-42)}.cls-102{fill:#e05b7b}.cls-103{fill:#c6a9a1}.cls-104{fill:url(#linear-gradient-43)}.cls-105{fill:#ee8b6f}.cls-106{fill:url(#linear-gradient-44)}.cls-107{fill:#d46655}.cls-108{fill:url(#linear-gradient-45)}.cls-109{fill:#254870}.cls-110{fill:url(#linear-gradient-46)}.cls-111{fill:url(#linear-gradient-47)}.cls-112{fill:#e6e4eb}.cls-113{fill:url(#linear-gradient-48)}.cls-114{fill:url(#linear-gradient-49)}.cls-115{fill:url(#linear-gradient-50)}.cls-116{fill:url(#linear-gradient-51)}.cls-117{fill:#001e3c}.cls-118{fill:url(#linear-gradient-52)}.cls-119{fill:#d8c570}.cls-120{fill:#d8c670}.cls-121{fill:url(#linear-gradient-53)}.cls-122{fill:#d67d67}.cls-123{fill:url(#linear-gradient-54)}.cls-124{fill:#d67c67}.cls-125{fill:#06061d}.cls-126{fill:url(#linear-gradient-55)}.cls-127{fill:#d56348}.cls-128{fill:#d67b67}.cls-129{fill:#160828}.cls-130{fill:#392034}.cls-131{fill:#ddedf7}.cls-132{fill:#4d2839}.cls-133{fill:#d67066}.cls-134{fill:#ca2f79}.cls-135{fill:url(#linear-gradient-56)}.cls-136{fill:url(#linear-gradient-57)}.cls-137{fill:url(#linear-gradient-58)}.cls-138{fill:url(#linear-gradient-59)}.cls-139{fill:url(#linear-gradient-60)}.cls-140{fill:url(#linear-gradient-61)}.cls-141{fill:#662234}.cls-142{fill:#170829}.cls-143{fill:url(#linear-gradient-62)}.cls-144{fill:#03030d}.cls-145{stroke:#d9bf6b;stroke-width:.45px}.cls-146{fill:#ccaa38}.cls-147{fill:#d9bf6b}.cls-148{fill:#792c29}.cls-149{fill:#ac5642}.cls-150{fill:url(#linear-gradient-63)}.cls-151{fill:#e4b17f}.cls-152{fill:url(#linear-gradient-64)}.cls-153{fill:url(#linear-gradient-65)}.cls-154{fill:url(#linear-gradient-66)}.cls-155{fill:url(#linear-gradient-67)}.cls-156{fill:#926948}.cls-157{fill:url(#linear-gradient-68)}.cls-158{fill:#340c10}.cls-159{fill:#40151c}.cls-160{fill:url(#linear-gradient-69)}</style><linearGradient id="linear-gradient" x1="257.24" y1="132.03" x2="262.09" y2="132.03" gradientTransform="matrix(1 .04 0 1 27.21 -17.4)" gradientUnits="userSpaceOnUse"><stop offset="0" stop-color="#c36750"/><stop offset="1" stop-color="#e17c6c"/></linearGradient><linearGradient id="linear-gradient-2" x1="259.48" y1="142.34" x2="261.89" y2="134.81" xlink:href="#linear-gradient"/><linearGradient id="linear-gradient-3" x1="291.48" y1="186.75" x2="306.1" y2="244.08" gradientTransform="matrix(1 0 .02 1 -1.52 -.03)" gradientUnits="userSpaceOnUse"><stop offset="0" stop-color="#472f5b"/><stop offset="1" stop-color="#301342"/></linearGradient><linearGradient id="linear-gradient-4" x1="295.21" y1="221.18" x2="334.03" y2="221.18" gradientTransform="matrix(1 0 .04 1 -3.49 .17)" xlink:href="#linear-gradient-3"/><linearGradient id="linear-gradient-5" x1="260.93" y1="170.36" x2="272.13" y2="170.36" gradientTransform="matrix(1 .04 0 1 27.21 -17.4)" gradientUnits="userSpaceOnUse"><stop offset=".01" stop-color="#b8c0d7"/><stop offset="1" stop-color="#a7afc6"/></linearGradient><linearGradient id="linear-gradient-6" x1="296.19" y1="187.03" x2="298.25" y2="160.53" xlink:href="#linear-gradient-5"/><linearGradient id="linear-gradient-7" x1="284.6" y1="143.66" x2="281.11" y2="160.42" gradientTransform="matrix(1 .04 0 1 27.21 -78.34)" gradientUnits="userSpaceOnUse"><stop offset=".01" stop-color="#b8c0d7"/><stop offset="1" stop-color="#d4dcf3"/></linearGradient><linearGradient id="linear-gradient-8" x1="280.95" y1="121.87" x2="288.88" y2="119.65" gradientTransform="matrix(1 .04 0 1 27.21 -17.4)" gradientUnits="userSpaceOnUse"><stop offset="0" stop-color="#673850"/><stop offset="1" stop-color="#55215a"/></linearGradient><linearGradient id="linear-gradient-9" x1="295.67" y1="177.6" x2="295.77" y2="184.08" xlink:href="#linear-gradient"/><linearGradient id="linear-gradient-10" x1="297.28" y1="168.09" x2="304.98" y2="154.6" xlink:href="#linear-gradient-5"/><linearGradient id="linear-gradient-11" x1="260.83" y1="139.26" x2="262.71" y2="147.74" xlink:href="#linear-gradient-5"/><linearGradient id="linear-gradient-12" x1="283.08" y1="134.46" x2="282.39" y2="137.11" xlink:href="#linear-gradient"/><linearGradient id="linear-gradient-13" x1="280.83" y1="134.15" x2="280.83" y2="134.15" gradientTransform="matrix(1 .04 0 1 27.21 -78.34)" xlink:href="#linear-gradient"/><linearGradient id="linear-gradient-14" x1="287.52" y1="108.31" x2="285" y2="105.58" gradientTransform="matrix(1 .04 0 1 27.21 -17.4)" gradientUnits="userSpaceOnUse"><stop offset=".01" stop-color="#b8c0d7"/><stop offset=".56" stop-color="#c7cfe6"/><stop offset="1" stop-color="#d4dcf3"/></linearGradient><linearGradient id="linear-gradient-15" x1="297.42" y1="122.43" x2="298.95" y2="116.57" gradientTransform="matrix(1 .04 0 1 27.21 -17.4)" gradientUnits="userSpaceOnUse"><stop offset=".01" stop-color="#b3bbd2"/><stop offset="1" stop-color="#a7afc6"/></linearGradient><linearGradient id="linear-gradient-16" x1="290.59" y1="106.33" x2="299.53" y2="106.33" xlink:href="#linear-gradient-15"/><linearGradient id="linear-gradient-17" x1="320.5" y1="131.82" x2="315.99" y2="129.8" gradientTransform="matrix(1 0 .02 1 -1.98 .2)" xlink:href="#linear-gradient-5"/><linearGradient id="linear-gradient-18" x1="229.22" y1="103.03" x2="233.06" y2="100.98" gradientUnits="userSpaceOnUse"><stop offset="0" stop-color="#5a1d3b"/><stop offset="1" stop-color="#51102e"/></linearGradient><linearGradient id="linear-gradient-19" x1="228.66" y1="131.59" x2="226.87" y2="124.42" xlink:href="#linear-gradient-18"/><linearGradient id="linear-gradient-20" x1="223.13" y1="100.69" x2="227.89" y2="99.89" gradientUnits="userSpaceOnUse"><stop offset="0" stop-color="#cfcdc1"/><stop offset="1" stop-color="#bcb38e"/></linearGradient><linearGradient id="linear-gradient-21" x1="231.1" y1="130.78" x2="262.61" y2="130.78" gradientUnits="userSpaceOnUse"><stop offset="0" stop-color="#e9c35f"/><stop offset="1" stop-color="#e8a35c"/></linearGradient><linearGradient id="linear-gradient-22" x1="264.21" y1="128.56" x2="240.9" y2="136.27" gradientUnits="userSpaceOnUse"><stop offset="0" stop-color="#e8851c"/><stop offset="1" stop-color="#e8a35c"/></linearGradient><linearGradient id="linear-gradient-23" x1="238.57" y1="180.09" x2="221.57" y2="142.02" gradientUnits="userSpaceOnUse"><stop offset="0" stop-color="#e89e5b"/><stop offset="1" stop-color="#e8a35c"/></linearGradient><linearGradient id="linear-gradient-24" x1="235.93" y1="214.44" x2="244.75" y2="192.83" gradientUnits="userSpaceOnUse"><stop offset="0" stop-color="#0b78a9"/><stop offset="1" stop-color="#2e8bb8"/></linearGradient><linearGradient id="linear-gradient-25" x1="234.02" y1="141.1" x2="229.51" y2="146.32" xlink:href="#linear-gradient-18"/><linearGradient id="linear-gradient-26" x1="237.74" y1="110.57" x2="245.38" y2="110.57" xlink:href="#linear-gradient-18"/><linearGradient id="linear-gradient-27" x1="208.06" y1="150.88" x2="217.53" y2="150.88" xlink:href="#linear-gradient-21"/><linearGradient id="linear-gradient-28" x1="206.71" y1="160.56" x2="226.68" y2="160.56" xlink:href="#linear-gradient-21"/><linearGradient id="linear-gradient-29" x1="225.91" y1="91.53" x2="241.05" y2="103.44" gradientUnits="userSpaceOnUse"><stop offset="0" stop-color="#351a48"/><stop offset="1" stop-color="#1d002e"/></linearGradient><linearGradient id="linear-gradient-30" x1="123.77" y1="205.71" x2="130.19" y2="190.89" gradientUnits="userSpaceOnUse"><stop offset="0" stop-color="#ed5e41"/><stop offset="1" stop-color="#cd4a41"/></linearGradient><linearGradient id="linear-gradient-31" x1="127.76" y1="224.14" x2="122.74" y2="250.44" gradientUnits="userSpaceOnUse"><stop offset="0" stop-color="#5a2614"/><stop offset="1" stop-color="#5a2614"/></linearGradient><linearGradient id="linear-gradient-32" x1="144.89" y1="255.36" x2="130.18" y2="225.45" gradientUnits="userSpaceOnUse"><stop offset="0" stop-color="#663526"/><stop offset="1" stop-color="#622f20"/></linearGradient><linearGradient id="linear-gradient-33" x1="124.91" y1="204.81" x2="133.4" y2="213.71" gradientUnits="userSpaceOnUse"><stop offset="0" stop-color="#e8225e"/><stop offset="1" stop-color="#a2225e"/></linearGradient><linearGradient id="linear-gradient-34" x1="93.22" y1="147.16" x2="115.07" y2="176.03" gradientUnits="userSpaceOnUse"><stop offset="0" stop-color="#6c3e2f"/><stop offset="1" stop-color="#592613"/></linearGradient><linearGradient id="linear-gradient-35" x1="113.11" y1="200.09" x2="117.11" y2="189.06" xlink:href="#linear-gradient-30"/><linearGradient id="linear-gradient-36" x1="143.23" y1="250.71" x2="147.42" y2="265.43" gradientUnits="userSpaceOnUse"><stop offset="0" stop-color="#ece3de"/><stop offset="1" stop-color="#e5dab6"/></linearGradient><linearGradient id="linear-gradient-37" x1="152.6" y1="268.53" x2="148.37" y2="266.06" gradientUnits="userSpaceOnUse"><stop offset="0" stop-color="#efb94b"/><stop offset="1" stop-color="#ef9c32"/></linearGradient><linearGradient id="linear-gradient-38" x1="124.26" y1="253.34" x2="117.56" y2="262.67" xlink:href="#linear-gradient-36"/><linearGradient id="linear-gradient-39" x1="124.39" y1="272.13" x2="118.17" y2="268.22" xlink:href="#linear-gradient-37"/><linearGradient id="linear-gradient-40" x1="171.58" y1="229.01" x2="154.28" y2="251.2" gradientUnits="userSpaceOnUse"><stop offset="0" stop-color="#c1447b"/><stop offset="1" stop-color="#de4a6c"/></linearGradient><linearGradient id="linear-gradient-41" x1="168.04" y1="222.36" x2="171.92" y2="218.09" gradientUnits="userSpaceOnUse"><stop offset="0" stop-color="#d8d0ca"/><stop offset="1" stop-color="#cbbfaf"/></linearGradient><linearGradient id="linear-gradient-42" x1="171.37" y1="271.74" x2="175.94" y2="265.16" gradientUnits="userSpaceOnUse"><stop offset="0" stop-color="#ee8b6f"/><stop offset="1" stop-color="#de786b"/></linearGradient><linearGradient id="linear-gradient-43" x1="164.61" y1="262.5" x2="183.62" y2="234.52" gradientUnits="userSpaceOnUse"><stop offset="0" stop-color="#c6a9a1"/><stop offset="1" stop-color="#be9b90"/></linearGradient><linearGradient id="linear-gradient-44" x1="165.96" y1="252.85" x2="186.83" y2="220.06" gradientUnits="userSpaceOnUse"><stop offset="0" stop-color="#c1447b"/><stop offset="1" stop-color="#e05b7b"/></linearGradient><linearGradient id="linear-gradient-45" x1="141.67" y1="210.67" x2="166.7" y2="210.67" xlink:href="#linear-gradient-42"/><linearGradient id="linear-gradient-46" x1="238.37" y1="278.76" x2="239.37" y2="288.34" gradientTransform="rotate(1.76 1058.627 177.143)" xlink:href="#linear-gradient-42"/><linearGradient id="linear-gradient-47" x1="186.38" y1="282.19" x2="226.96" y2="282.19" gradientTransform="rotate(1.76 1058.627 177.143)" xlink:href="#linear-gradient-43"/><linearGradient id="linear-gradient-48" x1="188.7" y1="254.65" x2="188.15" y2="217.84" gradientUnits="userSpaceOnUse"><stop offset="0" stop-color="#e6e4eb"/><stop offset="1" stop-color="#d8d0ca"/></linearGradient><linearGradient id="linear-gradient-49" x1="192.88" y1="213.3" x2="209.58" y2="240.3" xlink:href="#linear-gradient-48"/><linearGradient id="linear-gradient-50" x1="173.28" y1="211.38" x2="190.58" y2="220.17" xlink:href="#linear-gradient-48"/><linearGradient id="linear-gradient-51" x1="185.1" y1="292.67" x2="210.84" y2="292.67" gradientTransform="rotate(1.76 1058.627 177.143)" xlink:href="#linear-gradient-43"/><linearGradient id="linear-gradient-52" x1="82.12" y1="138.23" x2="79.09" y2="128.18" gradientUnits="userSpaceOnUse"><stop offset=".01" stop-color="#d8c570"/><stop offset="1" stop-color="#d7a66c"/></linearGradient><linearGradient id="linear-gradient-53" x1="49.85" y1="172.47" x2="69.63" y2="142.8" xlink:href="#linear-gradient-52"/><linearGradient id="linear-gradient-54" x1="82.5" y1="139.38" x2="70.6" y2="123.76" gradientUnits="userSpaceOnUse"><stop offset=".01" stop-color="#d68168"/><stop offset="1" stop-color="#d55b62"/></linearGradient><linearGradient id="linear-gradient-55" x1="87.4" y1="161.54" x2="88.73" y2="150.72" xlink:href="#linear-gradient-54"/><linearGradient id="linear-gradient-56" x1="76.75" y1="148.76" x2="69.33" y2="134.41" xlink:href="#linear-gradient-54"/><linearGradient id="linear-gradient-57" x1="67.07" y1="147.48" x2="84.14" y2="191.82" gradientUnits="userSpaceOnUse"><stop offset=".01" stop-color="#160828"/><stop offset="1" stop-color="#0a061d"/></linearGradient><linearGradient id="linear-gradient-58" x1="94.28" y1="170.66" x2="80.08" y2="158.37" xlink:href="#linear-gradient-57"/><linearGradient id="linear-gradient-59" x1="38.17" y1="101.39" x2="59.87" y2="139.52" xlink:href="#linear-gradient-57"/><linearGradient id="linear-gradient-60" x1="84.05" y1="255.75" x2="77.51" y2="245.22" xlink:href="#linear-gradient-57"/><linearGradient id="linear-gradient-61" x1="78.44" y1="244.6" x2="50.68" y2="199.13" gradientUnits="userSpaceOnUse"><stop offset=".01" stop-color="#160828"/><stop offset="1" stop-color="#281a3b"/></linearGradient><linearGradient id="linear-gradient-62" x1="55.63" y1="-189.68" x2="52.32" y2="-193.07" gradientTransform="rotate(-18.92 869.103 -74.308)" gradientUnits="userSpaceOnUse"><stop offset=".01" stop-color="#170829"/><stop offset="1" stop-color="#03030d"/></linearGradient><linearGradient id="linear-gradient-63" x1="274.2" y1="235.63" x2="280.2" y2="252.92" gradientUnits="userSpaceOnUse"><stop offset="0" stop-color="#ac5642"/><stop offset="1" stop-color="#792c29"/></linearGradient><linearGradient id="linear-gradient-64" x1="275.36" y1="272.11" x2="273.89" y2="257.53" xlink:href="#linear-gradient-63"/><linearGradient id="linear-gradient-65" x1="242.52" y1="257.8" x2="260.29" y2="257.8" xlink:href="#linear-gradient-63"/><linearGradient id="linear-gradient-66" x1="270.32" y1="267.81" x2="267.1" y2="253.12" gradientUnits="userSpaceOnUse"><stop offset="0" stop-color="#ac5642"/><stop offset="1" stop-color="#bb776a"/></linearGradient><linearGradient id="linear-gradient-67" x1="245.2" y1="254.46" x2="250.59" y2="249.3" gradientUnits="userSpaceOnUse"><stop offset="0" stop-color="#521c1f"/><stop offset="1" stop-color="#792c29"/></linearGradient><linearGradient id="linear-gradient-68" x1="675.88" y1="925.53" x2="688.25" y2="925.53" gradientTransform="rotate(45 1280.11 119.14)" gradientUnits="userSpaceOnUse"><stop offset="0" stop-color="#926948"/><stop offset="1" stop-color="#774d2c"/></linearGradient><linearGradient id="linear-gradient-69" x1="675.25" y1="919.1" x2="689.69" y2="919.1" gradientTransform="rotate(45 1280.11 119.14)" gradientUnits="userSpaceOnUse"><stop offset="0" stop-color="#44171d"/><stop offset="1" stop-color="#2e080b"/></linearGradient></defs><title>building</title><path class="cls-1" d="M384.29 201.55c-15.51-17.27-31.23-32-48.83-15.08s-24.26 5.65-36.84 18.24-26.44 17.58-44.32 18-36.22-14.53-50.9-17-14.11-4.44-29.63-7.41-20.19-13.51-37.69-3.95-46.32 14.28-73.08-6.09-39.55-19.78-63-3.08V238c9.48 2 13.94 2.19 24.54-1.77s28.36 2.26 41.9.57 33-11.4 65-3.54 54 15 74.8 9.45 24.81-.54 37.27-6.21 28.58-17.5 58.68-5.92 48.59-3.71 63.1 1a114.12 114.12 0 0 0 29.56 4.92v-29.61s-7.21-1.61-10.56-5.34z" transform="translate(0 -60.95)"/><path class="cls-2" d="M301.09 265.63c-.17 1.23.79 2.61-.18 3.25s-6.39 1.81-6.71.32a8.21 8.21 0 0 0-1.06-2.58l1.46-2.33zm38.52 0c-.14 1.23 1.8 2 .85 2.61s-7.31 2.44-7.66 1-.44-1.87-.44-1.87l1.41-2.33zm-30.33-138.05c-.95.09-1.88-.45-2.83-.36a.58.58 0 0 0-.27.07.47.47 0 0 0-.16.22 4.6 4.6 0 0 0 .33 2.91c.72 1.59 1.44 3.19 2.2 4.77a.49.49 0 0 0 .2.25.17.17 0 0 0 .25-.11" transform="translate(0 -60.95)"/><path class="cls-3" d="M316 129.36l.11-5.81a14.67 14.67 0 0 0 4.12-7.94c.79-4.92.14-5.32-.82-5.92s0-1.43-.93-2.71-4.85-2.78-9.67-1.09-8.57 3.25-3.91 4.79c-.78 7.33-1.7 9.66-.78 12.66 1.14 3.71 3.84 3.44 3.84 3.44l-.11 2.81-3.59 5.69 5.1 9.12 9-5.46z" transform="translate(0 -60.95)"/><path class="cls-4" d="M320.26 115.61c.06-.36.11-.69.15-1h-.16a3.49 3.49 0 0 0-1.74.47 5.28 5.28 0 0 0-1.5 1.21 2 2 0 0 1 .35 2.56c-.44.83-1.19 1.47-1.65 2.3a3.93 3.93 0 0 0-.48 2.21c0 .53.19 1.06.25 1.59a9.58 9.58 0 0 1-1.1 4.71l1.2 2.1a7.37 7.37 0 0 0 .91-.55l-.49-1.85.11-5.81a14.67 14.67 0 0 0 4.15-7.94zm-15.46 2.21a44.28 44.28 0 0 0 1-7.36l-.85.23c-.78 7.33-1.7 9.66-.78 12.66 1.14 3.71 3.84 3.44 3.84 3.44-3.73-.61-3.73-5.95-3.21-8.97z" transform="translate(0 -60.95)"/><path class="cls-5" d="M308.72 121.43a1 1 0 0 1 1.47 1.32 2 2 0 0 1-2.59 1.57c-1.23-.43-2.53-1.59-1.78-2.17.55-.43.9 0 1.56 0s.67-.46 1.34-.72z" transform="translate(0 -60.95)"/><path class="cls-6" d="M280.4 135.19c2.14-.26 6.68-2.42 9.58-2.75l-.82 5-8 1.12z" transform="translate(0 -60.95)"/><path class="cls-3" d="M283.15 136.3c1.19-2.54.79-3.57 0-6s-.42-3.27.13-5.12-.92-3.66-.58-4.24a.44.44 0 0 1 .74-.12 8.37 8.37 0 0 1 1.12 3s.48-.51 0-2.07-.76-2-.09-2.24c.26-.11 1.75-.69 2.06-.26a5.75 5.75 0 0 1 .77 3.63c-.16.9-.42 1.82.22.47s-.17-3.83.31-3.95a1.07 1.07 0 0 1 1 .11 10.14 10.14 0 0 1 .28 3.65c-.93 2.56-.64 3.29-.64 3.29a1.27 1.27 0 0 0 .8-.47c.63-.73.5-1.75 1-1.75s.86.27.76.65c-.2.69-.26.88-.6 2.39-.29 1.32-.53 1.44-2 2.6a27.18 27.18 0 0 0 0 4.88" transform="translate(0 -60.95)"/><path class="cls-7" d="M285.5 119.2a.64.64 0 0 0 0 .07 2 2 0 0 1 .9 1.32 5.11 5.11 0 0 1 0 1.63 9.89 9.89 0 0 1-1 3.85 5.56 5.56 0 0 0-1 2.21.27.27 0 0 0 .1.27 9.15 9.15 0 0 1 1.13-1.34 3.31 3.31 0 0 1 1.62-.6 2.28 2.28 0 0 0 1.27-.15s-.29-.73.64-3.29a10.14 10.14 0 0 0-.28-3.65 1.07 1.07 0 0 0-1-.11c-.48.12.33 2.6-.31 3.95s-.38.43-.22-.47a5.75 5.75 0 0 0-.77-3.63 1.14 1.14 0 0 0-1.08-.06z" transform="translate(0 -60.95)"/><path class="cls-8" d="M290.51 127.29c.33-1.51.4-1.7.6-2.39a.27.27 0 0 0-.32-.44 2.06 2.06 0 0 0-.41 1.2 2.65 2.65 0 0 1-.26.7 2.26 2.26 0 0 1-.63.64c-.71.52-1.55.86-2.25 1.4a4.65 4.65 0 0 0-.85.86 5.61 5.61 0 0 0-1 2.76 10.3 10.3 0 0 0 .16 3 4.42 4.42 0 0 0 .14.58l2.88-.82a27.17 27.17 0 0 1 0-4.88c1.43-1.16 1.65-1.29 1.94-2.61z" transform="translate(0 -60.95)"/><path class="cls-9" d="M298.39 178s-5.6 63.67-5.36 73.35.12 14.72.12 14.72h8.11a73.51 73.51 0 0 0 4-20.52c.53-8.72-.32-19.22-.31-21.52a6.39 6.39 0 0 1 .53-2.51 124.81 124.81 0 0 0 6.58-27.72s3.07 23.06 6.52 35.27c3.51 12.39 14.47 37 14.47 37h6.86s-5.42-33.45-11.08-42.4a6.82 6.82 0 0 1-1.09-3.9c.29-7.52-.78-33.71-2.6-40-2.14-7.47-26.75-1.77-26.75-1.77z" transform="translate(0 -60.95)"/><path class="cls-10" d="M310.81 193.42l-3.17-.21c-2.55-.17-3 .11-2.83 2.65a61.52 61.52 0 0 1 0 7.62 60.24 60.24 0 0 1-2.81 14.6 8.92 8.92 0 0 0-.49 2 8.75 8.75 0 0 0 .08 1.74q.07.61.13 1.21a112.71 112.71 0 0 1-4 43.09h3.57a73.51 73.51 0 0 0 4-20.52c.53-8.72-.32-19.22-.31-21.52a6.4 6.4 0 0 1 .53-2.51c1.41-3.26 5.14-15.73 6.4-26.06-.02-1.17-.26-2.04-1.1-2.09z" transform="translate(0 -60.95)"/><path class="cls-11" d="M328.84 223.66a6.82 6.82 0 0 1-1.09-3.9c.29-7.52-.78-33.71-2.6-40-2.15-7.46-26.76-1.76-26.76-1.76s-.07 2.25-.19 5.95c.6-.25 2-.82 2.47-1 1.74-.57.25-.73 1.85.2a10.44 10.44 0 0 0 2.41 1.33 5.9 5.9 0 0 0 2.71-.16 17.22 17.22 0 0 1 5.62-.52 6.74 6.74 0 0 1 4.85 2.69c1.17 1.74 1.17 4 1.17 6.08 0 2.9.2 9.07.52 12 .61 5.42 1.06 13.87 2.51 19.21.95 3.48 5.44 6.66 6.4 10.16 1.95 7.1 3.16 13.14 5.41 20.29 1.55 4.91.24 6.83 2.21 11.85h3.57s-5.4-33.46-11.06-42.42z" transform="translate(0 -60.95)"/><path class="cls-12" d="M305.11 182.26c.56 2.41 1 4.83 1.39 7.2.06.29.12.59.18.85a1.71 1.71 0 0 0 0 .18v.08-.07.05c0-.07 0 0 .1.06a8.23 8.23 0 0 0 1.44.75c.54.24 1.09.45 1.65.65l.84.31.8.27h.08a.67.67 0 0 1-.31 1.3 33.15 33.15 0 0 0-3.66-.38c-.62 0-1.25-.07-1.87-.06h-.93a3.09 3.09 0 0 0-.92.18 4.63 4.63 0 0 1 1.79-.72 16.63 16.63 0 0 1 1.9-.31c.64-.07 1.28-.12 1.92-.13a14.47 14.47 0 0 1 2 .06l-.17 1.47c-.39-.08-.65-.15-1-.23s-.61-.16-.9-.26c-.59-.2-1.18-.41-1.78-.65a7.61 7.61 0 0 1-1.78-1 1.88 1.88 0 0 1-.51-.61v-.28c0-.1 0-.18-.06-.26-.06-.34-.09-.64-.13-1a35.44 35.44 0 0 1-.2-3.7 26 26 0 0 1 .13-3.75zm13.4 0s.08.13.2.35a6.82 6.82 0 0 0 .51.82c.1.16.25.3.37.47s.29.3.46.44a5.55 5.55 0 0 0 .52.41 5.86 5.86 0 0 0 .59.36 7 7 0 0 0 .64.31c.22.1.44.19.66.26.44.17.87.29 1.26.41s.72.21 1 .27l.38.13s-.13.07-.37.17a4.62 4.62 0 0 1-1 .29 5.93 5.93 0 0 1-.71.06 5.1 5.1 0 0 1-.81 0 4.92 4.92 0 0 1-1.71-.55 4.44 4.44 0 0 1-.77-.54 3.76 3.76 0 0 1-.62-.68 3.83 3.83 0 0 1-.42-.74 3.19 3.19 0 0 1-.21-.72 2.9 2.9 0 0 1 0-1.09c-.01-.29.03-.43.03-.43z" transform="translate(0 -60.95)"/><path class="cls-2" d="M309.36 137.24s-1.74-8.46-1.57-8.47c-2.15.12-2.71.82-4.45 1.18-2.14.44-5 .85-6.72 1.94-2.62 1.64-5 6.51-6.75 10.08-.59-1.75.15-7.94.12-9.53 0 1.86-8.88 3.18-9.58 2.75.08 4.33-.16 6.11.58 10.44a42.64 42.64 0 0 0 1.65 7.14 15.8 15.8 0 0 0 2 3.63 5.48 5.48 0 0 0 1.81.95c3.11 1.16 3.9-.65 6.19-2.79 1.46-1.37 2.5-4.24 4-5.5-.17 7.76.47 16.66.4 24.47 0 3-.12 4.91-.15 7.9 1.86-.07 15.4.85 16.41 1a31.23 31.23 0 0 0 6.3.29c1.47-.06 6.91-.23 6.91-.23a3.36 3.36 0 0 1-.76-1.91c-.11-1.63-.25-4.62-.36-6.25a101.42 101.42 0 0 1 .85-19.18c.34-2.8 1.28-5.32 1.58-8.12a49 49 0 0 0 .12-8.44c-.12-1.88.82-4.83-1.86-6.85a17.38 17.38 0 0 0-9.53-3c-.16.26-7.19 8.5-7.19 8.5z" transform="translate(0 -60.95)"/><path class="cls-13" d="M298 154.28a53 53 0 0 0 1.19-7.42c.14-1.2.09-2.74-1-3.23a32.49 32.49 0 0 0-2.89 3.82c-2.24 3.29-5.08 6.63-7.24 10.25 1.9.08 2.77-1.42 4.61-3.15 1.46-1.37 2.5-4.24 4-5.5-.17 7.76.47 16.66.4 24.47 0 3-.12 4.91-.15 7.9h.08c0-.2.55-.92.56-1.11.23-4.87 1.23-7.81 1.45-12.62.11-2.4-.9-5.61-.38-7.94.46-2.03-1.14-3.47-.63-5.47z" transform="translate(0 -60.95)"/><path class="cls-14" d="M326.53 182.44s-.16-.94-.24-2.11c-.11-1.63-.77-4.42-.88-6a101.42 101.42 0 0 1 .85-19.18 30.94 30.94 0 0 1 .64-3.36 21.17 21.17 0 0 1-2.11-4.46 78.93 78.93 0 0 0-2.29 19.27 38.29 38.29 0 0 1-2.86 16.12c1.45-.11 6.89-.28 6.89-.28z" transform="translate(0 -60.95)"/><path class="cls-2" d="M317.57 129.06s.42-2.61-.42-2.87-7.79 11-7.79 11z" transform="translate(0 -60.95)"/><path class="cls-15" d="M312.54 71.29l-11.87 5.15 1.32 44.83 10.59.33 9.52-43.74-5.62-4"/><path class="cls-16" d="M319.44 109.7c-1-.6 0-1.43-.93-2.71s-4.85-2.78-9.67-1.09-8.57 3.25-3.91 4.79c3.06 1 8-.16 8.53.3s-2 2.31-1 3.16 1.86 1 1.44 2.75.6 2.61 1.34 1.5 1.8-2.2 2.5-1.24-.38 3-1.18 3.68a2.13 2.13 0 0 0-.44 2.71 14.67 14.67 0 0 0 4.12-7.94c.76-4.92.15-5.32-.8-5.91z" transform="translate(0 -60.95)"/><path class="cls-17" d="M318.44 120.58a14.29 14.29 0 0 0 1.82-5c.79-4.92.14-5.32-.82-5.92s0-1.43-.93-2.71-4.85-2.78-9.67-1.09l-1.38.5a2.21 2.21 0 0 0-.41.56 1.51 1.51 0 0 0 .55 2c2.38 1 4.75.67 6.65 1a.74.74 0 0 0 .19.83c1.17 1.42 3.3 1.89 4.33 3.41a4.48 4.48 0 0 1 .56 3.2 23.59 23.59 0 0 1-.89 3.22z" transform="translate(0 -60.95)"/><path class="cls-18" d="M300 152l2.56 3.43a1.12 1.12 0 0 0 1.64.16 1.08 1.08 0 0 0 .14-1.45l-2.54-3.44c-.39-.53-.91-.34-1.4.11-.4.33-.74.7-.4 1.19z" transform="translate(0 -60.95)"/><path class="cls-19" d="M302.47 155.27a1.7 1.7 0 0 0 .47-.23l1-.7.37-.28-2.52-3.4a.66.66 0 0 0-.8-.28.35.35 0 0 0 0 .14l.49.07a8.77 8.77 0 0 1 .87 1.54 1 1 0 0 1 .12.48.39.39 0 0 1-.29.36c-.34.06-.62-.47-.93-.32a3 3 0 0 1 .66 1 1.27 1.27 0 0 1-.24.61zm13.77 17.36l2.64 3.52a1.12 1.12 0 0 0 1.67.17 1.12 1.12 0 0 0 .12-1.49l-2.67-3.54a1.12 1.12 0 0 0-1.67-.16 1.12 1.12 0 0 0-.09 1.5z" transform="translate(0 -60.95)"/><path class="cls-20" d="M301.59 156.77l11.5 14.74a1.51 1.51 0 0 0 2.2.21l2-1.85a1.49 1.49 0 0 0 .14-2.06l-11.58-14.2a1.51 1.51 0 0 0-2-.3l-2 1.34a1.46 1.46 0 0 0-.26 2.12z" transform="translate(0 -60.95)"/><path class="cls-18" d="M317.33 169.87a1.49 1.49 0 0 0 .14-2.06l-11.58-14.2a1.5 1.5 0 0 0-1.36-.52c-1.19 1 3.42 5.14 4.17 6 2.56 2.91 3.46 4.49 2.86 4.95s-4.13-2.91-3.78-1.35c.24 1.09 2.13 4.36 4.19 7.41l1.12 1.43a1.51 1.51 0 0 0 2.2.21z" transform="translate(0 -60.95)"/><path class="cls-20" d="M315.45 168.84c-.32 0-.74-.38-1 0a1.48 1.48 0 0 0 1.1 1.17 1.3 1.3 0 0 0 1.42-.66 1.23 1.23 0 0 0 .06-.89 2.24 2.24 0 0 0-.25-.5 11.19 11.19 0 0 0-2.08-2.49 2.06 2.06 0 0 0-.88-.53 2.11 2.11 0 0 0 .71.94 5.53 5.53 0 0 1 1.57 2.34c.15.43-.28.58-.65.62z" transform="translate(0 -60.95)"/><path class="cls-6" d="M322.49 166.55c.11 3.29 4.7 6.15 6.27 8.45l.94-4.92-2.53-4.38-2.91.66z" transform="translate(0 -60.95)"/><path class="cls-3" d="M323.1 166.7c-1.08.77-2.7 2.6-3.69 2.53s-2.65-1-3.52-.42-1.38.47-1.36 1.5-.44 2.31-.06 3a12.8 12.8 0 0 0 2.84 3c.77.46 1.68.49 1.94.07-.49-.46-.28-1.18.49-1a3.05 3.05 0 0 0 2.81-.33c.92-.79.8-3 2.55-4s5.23-2.7 5.23-2.7l-3.62-3z" transform="translate(0 -60.95)"/><path class="cls-21" d="M328.83 168.67a.7.7 0 0 0-.31-.23c-.13 0-4.54-1.82-4.67-1.79-1.42.4 1.66 3.18.23 3.55a2.88 2.88 0 0 0-.93.33c-.73.51-.67 1.71-1.4 2.23a1.74 1.74 0 0 1-.73.26 3.73 3.73 0 0 1-1.21 0c-.85-.14-1.76-.56-2.52-.17-1.19.62-.83 2.17-.35 3.23a3.26 3.26 0 0 0 .36.26c.77.46 1.68.49 1.94.07-.49-.46-.28-1.18.49-1a3.05 3.05 0 0 0 2.81-.33c.92-.79.8-3 2.55-4a180.2 180.2 0 0 1 4-2.06 2.63 2.63 0 0 0-.26-.35z" transform="translate(0 -60.95)"/><path class="cls-2" d="M326.1 131.69c3.3 2.08 6.25 10.45 8.86 16.14s5 8.85 4.59 12.27-8.61 13-10.78 14.91c0 0-.94-6.13-6.27-8.45 0 0 8.09-4.25 9.05-7.27 0 0-6.67-10.37-8.06-15.38s2.61-12.22 2.61-12.22z" transform="translate(0 -60.95)"/><path class="cls-22" d="M335 147.83c-2.36-5.16-5-12.51-7.93-15.39a1.74 1.74 0 0 0-1.33 1.09 4 4 0 0 0-.05 2.18c1.35 7.42 7.17 13.51 9.38 20.88.24.8.43 1.6.68 2.4a2.9 2.9 0 0 1 .19.94 2.59 2.59 0 0 1-.6 1.34 24.66 24.66 0 0 1-4.11 4.89 8.51 8.51 0 0 1-5.93 2.19 12.8 12.8 0 0 1 3.52 6.62c2.17-1.95 10.36-11.47 10.78-14.91s-2.03-6.5-4.6-12.23z" transform="translate(0 -60.95)"/><path class="cls-23" d="M292.09 139.46a19.7 19.7 0 0 0 1.8-4.73 50.67 50.67 0 0 0-4 7.24c-.59-1.75.15-7.94.12-9.53 0 1.11-3.14 2-5.84 2.49v.09c-.12.87.58 2.07.81 2.89.43 1.52.75 3.08 1.13 4.62a23.65 23.65 0 0 1 1 7.91q2.36-5.57 4.98-10.98z" transform="translate(0 -60.95)"/><path class="cls-24" d="M301.52 137.46a.45.45 0 0 0 .5.47.65.65 0 0 0 .53-.51.49.49 0 0 0-.13-.5.48.48 0 0 0-.57 0 1.35 1.35 0 0 0-.35.49m1.34 8.37a.52.52 0 0 0-.47.31.53.53 0 1 0 1 .19.57.57 0 0 0-.64-.52m1.13 20.42a.69.69 0 0 0-.7.75.87.87 0 0 0 .8.73.32.32 0 0 0 .17 0 .37.37 0 0 0 .13-.15 1.16 1.16 0 0 0 .22-.84.45.45 0 0 0-.69-.29m-.49 13.37a.63.63 0 0 0-.73.51.61.61 0 0 0 .58.67.56.56 0 0 0 .51-.69 1.08 1.08 0 0 0-.41-.49m8.63.37a.48.48 0 0 0-.78.12.82.82 0 0 0 .2.88.48.48 0 0 0 .5.18.55.55 0 0 0 .22-.21 1.14 1.14 0 0 0 .22-.44.46.46 0 0 0-.15-.45m3.2-23.37a.81.81 0 0 0-.15.82.84.84 0 0 0 .67.52.57.57 0 0 0 .27 0 .58.58 0 0 0 .28-.25.85.85 0 0 0 0-.89.77.77 0 0 0-.83-.32.65.65 0 0 0-.45.72m2.71-10.33a.5.5 0 0 0-.73.27.68.68 0 0 0 .49.84.66.66 0 0 0 .78-.57.69.69 0 0 0-.69-.7m1.52-9.27a.51.51 0 0 0-.41.74.74.74 0 0 0 .92.26.58.58 0 0 0 .27-.21.52.52 0 0 0-.13-.65.7.7 0 0 0-.69-.09" transform="translate(0 -60.95)"/><path class="cls-25" d="M307.55 119.46c-.18 1.13-.65 1.25-1.19 1.16s-.95-.35-.76-1.49.89-2.7 1.43-2.61.71 1.8.52 2.94z" transform="translate(0 -60.95)"/><path class="cls-26" d="M311.37 116.23a.65.65 0 0 1-.34.88.71.71 0 0 1-.91-.35.65.65 0 0 1 .34-.88.71.71 0 0 1 .91.35zm-5.63-.35a.62.62 0 0 1-.33.83.67.67 0 0 1-.86-.33.62.62 0 0 1 .33-.83.67.67 0 0 1 .86.33zm5.04-1.35a1 1 0 0 1 .3 0 1.64 1.64 0 0 1 .58.29 1.62 1.62 0 0 1 .4.51 1 1 0 0 1 .09.29 2.63 2.63 0 0 1-.25-.15c-.14-.09-.31-.23-.48-.35s-.32-.28-.44-.4a2.84 2.84 0 0 1-.2-.19zm-5.24-.27l-.22.1-.2.08-.22.08-.43.12-.23.05a.6.6 0 0 1 .11-.23 1 1 0 0 1 .44-.31 1 1 0 0 1 .54 0 .59.59 0 0 1 .21.11z" transform="translate(0 -60.95)"/><path class="cls-27" d="M312.17 126.81c1.19-1.31 1.33-2.6-.18-1.22a6 6 0 0 1-4 1.19l-.11 2.81c1.48 1.52 3.12-1.47 4.29-2.78z" transform="translate(0 -60.95)"/><path class="cls-20" d="M310.4 166.21a1.47 1.47 0 0 0 .83.56.21.21 0 0 0 .26-.21.31.31 0 0 0-.09-.14c-.36-.39-.75-.73-1.12-1.11.23-.11.61.31.66-.12a1.23 1.23 0 0 0-.31-.64 2.4 2.4 0 0 0-1.14-.85c-1.34-.36.61 2.18.91 2.51z" transform="translate(0 -60.95)"/><path class="cls-18" d="M309.81 161.46c-.74-.9-1.34-1.92-2-2.85a7.2 7.2 0 0 0-2.59-2.31 18.62 18.62 0 0 1 3.71 4.66.37.37 0 0 1 .07.3.83.83 0 0 0-.38 0 .37.37 0 0 0 .29.27c.72.31 1.15 1.17 1.91 1.33 0 0-.32-.57-.37-.63-.24-.23-.45-.5-.64-.77zm-5.68-4.67a1.86 1.86 0 0 0-1.11-.54c-.19.34.92 1.15 1.14 1.36s.57.55.88.81c.56.47 1.18.87 1.74 1.34a.61.61 0 0 1 .3.66 2.91 2.91 0 0 1-.66.42.83.83 0 0 0 .16 1c.21.44.31.92.55 1.36a3 3 0 0 1-.05-1.69c.21-.4.85-.45.81-1a2.27 2.27 0 0 0-.94-1.2l-1.33-1.21-.75-.66a3.84 3.84 0 0 1-.74-.65z" transform="translate(0 -60.95)"/><path class="cls-20" d="M311.54 168.43a2.21 2.21 0 0 1-.43-1 .93.93 0 0 1 .77.15c.23.15.42.34.63.51a.42.42 0 0 0 .23.1.3.3 0 0 0 .26-.37 1 1 0 0 0-.25-.44 8.71 8.71 0 0 1-1.15-1.81.85.85 0 0 1 .63.28 11.61 11.61 0 0 1 1.45 1.51 2 2 0 0 1 .38.65.73.73 0 0 1-.13.71.89.89 0 0 1-.82.16 4.53 4.53 0 0 0-.85-.17c.15 1.09 1.42 1.62 1.66 2.69-.5.11-.81-.71-1-1-.5-.68-.92-1.32-1.38-1.97zm1.15-4.53a.27.27 0 0 1 0 .17.3.3 0 0 1-.31.14c-.12 0-.28.08-.25.2a.24.24 0 0 0 .05.09l1.58 2a15 15 0 0 0 1.31 1.52 3.17 3.17 0 0 0-.77-1.52 15.79 15.79 0 0 1-1.35-2.19.13.13 0 0 0 .13 0 17.47 17.47 0 0 0-.9-1.9c-.16-.28-.74-1.58-1.09-1.53a5.5 5.5 0 0 0 .69 1.14c.16.3.31.61.46.91a3 3 0 0 1 .45.97z" transform="translate(0 -60.95)"/><path class="cls-18" d="M304.69 156.26a.26.26 0 0 1-.38-.08 1.93 1.93 0 0 0-.25-.37.73.73 0 0 0-.47-.11 2 2 0 0 0-.76.09.45.45 0 0 1-.39 0 .34.34 0 0 1-.12-.27 2.66 2.66 0 0 1 0-.49.09.09 0 0 1 0-.09.1.1 0 0 1 .07 0 .84.84 0 0 0 .89 0c.33-.22 0-.54.17-.77s.28 0 .36.13a10 10 0 0 1 .36.93q.27.55.52 1.03zm.43 4.09a4.78 4.78 0 0 1 .65.51.32.32 0 0 0 0-.28.85.85 0 0 0-.18-.23c-.27-.28-1.52-1.69-1.79-2a9.5 9.5 0 0 1 1.94 1.85 1.4 1.4 0 0 0 .43.44c-1-1.55-2-2.56-3.09-3.91a2.75 2.75 0 0 0-.85-.49c-.06 0-.13-.07-.14 0a.6.6 0 0 0 0 .2 4.12 4.12 0 0 0 .63 1.09 25.22 25.22 0 0 0 2.4 2.82z" transform="translate(0 -60.95)"/><path class="cls-2" d="M310.75 105.38s8.62 2.45 9.45 10.25c0 0 0 3.35 4.15 2.12s4.64-4.31 4.64-4.31a8.75 8.75 0 0 0 2.56-8.92c-1.43-5.74-4.71-5.14-4.71-5.14s-2.4-5.43-9-2.84a6.8 6.8 0 0 0-7.36 3.22c-2.75 4.3.68 5 .68 5z" transform="translate(0 -60.95)"/><path class="cls-29" d="M317.82 96.53a6.8 6.8 0 0 0-7.36 3.22c-2.75 4.3.68 5 .68 5l.86-1.25a3 3 0 0 1 .3-4.71 9.18 9.18 0 0 1 5.52-2.26z" transform="translate(0 -60.95)"/><path class="cls-30" d="M331.55 104.51c-1-4.06-2.94-4.95-4-5.12a4.79 4.79 0 0 1 2.4 2.55 9.65 9.65 0 0 1 .36 4.44 5.73 5.73 0 0 1-2.3 3.37 3.82 3.82 0 0 1-4.13.12c-1.1-.83-1.27-1.65-1.39-3.43a7 7 0 0 0-1.51 3.25 10.39 10.39 0 0 0 .47 5.34l-1.25.6a2.86 2.86 0 0 0 .36 1.3c.45.78 1.48 1.5 3.79.82 4.18-1.23 4.64-4.31 4.64-4.31a8.75 8.75 0 0 0 2.56-8.93z" transform="translate(0 -60.95)"/><path class="cls-31" d="M323.68 98.83a5.83 5.83 0 0 0-1.06 1.16c-.57.81-.05 2.26-.13 3.25a4.59 4.59 0 0 1 4.26-4.05c-.49-.91-3-4.94-8.87-2.68l-.07.08a8.24 8.24 0 0 1 4.67 0 5.82 5.82 0 0 1 1.55.63 1.18 1.18 0 0 1 .82.7c0 .35-.85.69-1.17.91z" transform="translate(0 -60.95)"/><path class="cls-32" d="M340.65 269c.15-1.25.65-2-.25-1.64a7.33 7.33 0 0 1-3.88.15c-1.78-.29-2.71-1.88-4.49-2.4s-2.05 1-1.28 1.67a47.52 47.52 0 0 1-5 2.1c-2.21.72-3.39 2.2-3.39 2.58a.56.56 0 0 0 .48.47H341c.5.01-.46-2.01-.35-2.93zm-39.17 0c.18-1.25.69-2-.21-1.64a7.35 7.35 0 0 1-3.88.15c-1.77-.29-2.67-1.88-4.44-2.4s-2.07 1-1.32 1.67a48.66 48.66 0 0 1-5.06 2.1c-2.22.72-3.44 2.2-3.44 2.58a.55.55 0 0 0 .47.47h18.19c.48.01-.44-2.01-.31-2.93z" transform="translate(0 -60.95)"/><path class="cls-33" d="M323.83 131.67a3 3 0 0 0 1.29-.6 17.66 17.66 0 0 0-7.46-2.24c.09-.68.26-2.39-.41-2.59-.43-.13-2.54 2.82-4.49 5.71a2.4 2.4 0 0 0 .47-.29c.92-.71 1.68-1.6 3-1.46a7 7 0 0 1 2.25.92 7.91 7.91 0 0 0 5.35.55z" transform="translate(0 -60.95)"/><path class="cls-34" d="M235.84 104.35a48.52 48.52 0 0 0-10.64-6.83c-1.49-.69-3.65-1.17-3.77-.52a4.35 4.35 0 0 0 1.22 1.65 10.91 10.91 0 0 0 3.23 2.38c3.17 1.71 5.74 4.36 9 5.88l3.59 1.67a8.43 8.43 0 0 0 2.6.88h.13a2.32 2.32 0 0 0-1-1.86c-1.2-1.08-3.12-2.26-4.36-3.25z" transform="translate(0 -60.95)"/><path class="cls-35" d="M228.19 125.86c1-1.6 1.7-2.13 1.7-.63a11.2 11.2 0 0 0 1.21 3.84l-1.11 2" transform="translate(0 -60.95)"/><path class="cls-36" d="M230.41 129.81s-1.85-4.93-1-6.9c0 0 4.55-.56 5.13-3s-.5-11.75-.29-14.58-.69-6.11-6.25-6-10 1.67-9.84 8.67-.93 10.89.35 11.23v6.72l4.3 7.13 7.69 3.67 1.9-5.29z" transform="translate(0 -60.95)"/><path class="cls-37" d="M234.23 106.77v-1.44c.22-2.83-.69-6.11-6.25-6a14.85 14.85 0 0 0-5.74 1 3.82 3.82 0 0 0 .18 2.88l2.4 2a10.31 10.31 0 0 1 2.59-2.27 3.49 3.49 0 0 1 3.31-.15c1.48.84 1.84 2.94 3.28 3.84z" transform="translate(0 -60.95)"/><path class="cls-38" d="M229.41 122.91a12.45 12.45 0 0 1-6.14-1.25s-.77 4.48 1.85 7.11 5 7.29 7.24 2.68l-1.95-1.64s-1.85-4.93-1-6.9z" transform="translate(0 -60.95)"/><path class="cls-39" d="M218.36 119.35c2.1-.69 3.51-3.33 2.85-4.55s-1.84-1.13-1.72-2.92 1.39-2.54 1.88-1.13 2.66 2.82 2.56.94-.76-3.2.7-3.39-.29-1.41 1.34-3.2-.7-5.58 3.92-5.68c-6.72-1.48-10.81.91-12 5.53s-.61 12.3-.5 13.28a1.21 1.21 0 0 0 .97 1.12z" transform="translate(0 -60.95)"/><path class="cls-40" d="M229.89 99.43c-4.23-.93-7.43-.32-9.5 1.41.88.76 3.08 0 4.1.12.65.08 1.27.32 1.91.42h.45c.24-1.04.88-1.9 3.04-1.95z" transform="translate(0 -60.95)"/><path class="cls-41" d="M240.7 104.22a3.43 3.43 0 0 1 3 3.2c.16 1.71-1.48 2.77-2.7.92s-2.94-4.68-.3-4.12z" transform="translate(0 -60.95)"/><path class="cls-42" d="M241.57 102.88a4.87 4.87 0 0 0-.88-1.26 16.76 16.76 0 0 1-2.23-2.36 11.1 11.1 0 0 0-2-2.59 39.09 39.09 0 0 0-5.51-4.7 7.44 7.44 0 0 0-2.3-1.1c-1.71-.41-4.17 1.2-5.33 2.34a5 5 0 0 0-1.9 3.79c.12-.64 2.12 0 3.61.72a48.73 48.73 0 0 1 10.64 6.83 30.72 30.72 0 0 1 4.37 3.25c.54.49 1.28 1 1.15 1.66h-.13a.75.75 0 0 0 .4 0 .81.81 0 0 0 .19-1 12.08 12.08 0 0 0-1.77-3.24c.41-.34.92-.09 1.35-.37a1.55 1.55 0 0 0 .34-1.97z" transform="translate(0 -60.95)"/><path class="cls-36" d="M238.73 109.34l1.33.26a1.68 1.68 0 0 1 1.43 1.18c.53 1 .65 1.9 1.63 2.56s2.68.46 3.73.19a12.75 12.75 0 0 1 1.42 4.09 19.44 19.44 0 0 1 5-.92c-3.63-6.39-6.95-10.1-7.94-10.36a6.4 6.4 0 0 0-3 .17 4.06 4.06 0 0 0-1.61 1.55c-.62-.26-4.14-.68-2.74 1a1.16 1.16 0 0 0 .75.28z" transform="translate(0 -60.95)"/><path class="cls-43" d="M262.5 139c-.7-6.32-3.57-10.9-6.28-16.65A77.68 77.68 0 0 0 251 113a10.47 10.47 0 0 0-3.56 1.82 30 30 0 0 1 1.5 7.76c.2 3 0 1.95.24 4.92.42 4.39 1.56 7.57 1.6 9.05-.06-.13-16.43-8.21-19.7-8.63l.21 2.54c-.35 3.31-.13 6.65 1.81 9.36s1.76 4.61 5 5.36c.94.61 4.14 1.27 4.89 1.56a27.05 27.05 0 0 0 7.37 1.66c3.39.27 8.38.92 10.5-1.73 1.7-2.14 1.93-5.03 1.64-7.67z" transform="translate(0 -60.95)"/><path class="cls-44" d="M262.5 139c-.7-6.32-3.57-10.9-6.28-16.65a80.51 80.51 0 0 0-4-7.5c3.42 8.87 6.63 18 6.59 27.46a2.41 2.41 0 0 1-.39 1.58c-1 1.13-6.95-1.06-8.27-1.45a53.25 53.25 0 0 1-8.44-3.28c-.88-.43-1.75-.89-2.59-1.4a24.54 24.54 0 0 1-3.85-2.88l-1.46 4.95q.42 1.33.91 2.65a4.54 4.54 0 0 0 3.41 2.65c.94.61 4.14 1.27 4.89 1.56a27.05 27.05 0 0 0 7.37 1.66c3.39.27 8.38.92 10.5-1.73 1.67-2.09 1.9-4.98 1.61-7.62z" transform="translate(0 -60.95)"/><path class="cls-45" d="M237.81 136.83c5.7 14.48 7.22 23.55 6 39 .26-.38-.32-.77-.77-.87a56.31 56.31 0 0 0-10.9-1.32c-2.5-.06-5 .05-7.51-.19-3.59-.35-7.94 0-11.39-1a21.49 21.49 0 0 1 .57-6.1c1.71-5.05 2.26-4.27 1.45-9.54a69 69 0 0 0-4.55-15.3c-.65-1.62-2.16-3.93-3.82-4.48a35.35 35.35 0 0 1 5.88-5.57 34.36 34.36 0 0 1 5.33-4c.71-.37-.61-2.7.16-2.94 2 2.94 9.72 9.08 11.37 9 1.67-2.47.3-6.75.3-6.75a32.08 32.08 0 0 1 7.88 10.06z" transform="translate(0 -60.95)"/><path class="cls-46" d="M238.26 138a1.38 1.38 0 0 0-.39-1c-.36-.31-.88-.45-1.24-.82a3.54 3.54 0 0 0-3-1.3 4 4 0 0 0-1.61.81c-2.07 1.5-4.05 3.4-4.7 5.88s.11 4.92.47 7.37a18.4 18.4 0 0 1-.38 7.7 12.36 12.36 0 0 1-4.17 6.39c-1.66 1.28-3.67 2.05-5.26 3.42s-2.68 3.71-1.7 5.55a3.67 3.67 0 0 0 .92 1.1c2.47.19 5.06.11 7.35.33 2.49.24 5 .13 7.51.19a56.3 56.3 0 0 1 9 .94 13.64 13.64 0 0 0 2.61-1.17l.28-.18c.87-13.49-.68-22.21-5.69-35.21z" transform="translate(0 -60.95)"/><path class="cls-47" d="M230.38 136.15l2.14 5.42 2.14 5.57a13.09 13.09 0 0 1 .54 1.6 3.17 3.17 0 0 1-.1 1.78 9.32 9.32 0 0 0-.64 3.33 8.93 8.93 0 0 0 .61 3.32 8.74 8.74 0 0 0 .76 1.49 3.87 3.87 0 0 1 .66 1.6c.09 1.23-.64 2.14-.89 3.06a6.79 6.79 0 0 0-.06 2.74 14.4 14.4 0 0 1 .19 2.39 9.29 9.29 0 0 1-.23 1.83 8.07 8.07 0 0 1-.49 1.53 8.06 8.06 0 0 0 .42-1.54 9.18 9.18 0 0 0 .14-1.82 17.45 17.45 0 0 0-.28-2.35 7.05 7.05 0 0 1 0-2.86c.25-1 .92-1.92.82-2.94a3.54 3.54 0 0 0-.62-1.43 9.15 9.15 0 0 1-.8-1.54 9.32 9.32 0 0 1-.67-3.47 9.74 9.74 0 0 1 .69-3.45c.43-1.05 0-2.1-.41-3.13l-2-5.62z" transform="translate(0 -60.95)"/><path class="cls-48" d="M219.08 128.68c1.73 2.88 3.34 3.9 4.93 6.86a.51.51 0 0 0 .21.25.53.53 0 0 0 .57-.37c.57-1 1.18-.13 1.74-1.14" transform="translate(0 -60.95)"/><path class="cls-49" d="M212.83 172.18c.3 1.1-3.18 11.81-3.38 20.61s2 22.26-.6 32.69a230.32 230.32 0 0 0-5.85 37.93h9.15a101.64 101.64 0 0 1 6.3-26.84c5.58-14.39 8.55-39 8.55-39-.47 5.28 1.8 22-.6 35.08a192.08 192.08 0 0 0-3 30.74h7.92c3.21-3.82 13.31-76.56 12.71-89.85z" transform="translate(0 -60.95)"/><path class="cls-50" d="M235.89 242.8a189.17 189.17 0 0 1-1.3-24.63c.34-10.19 4.55-19.89 5.48-30 .22-2.39-.28-5.52-2.63-6-1.63-.32-3.18 1-3.86 2.51a24.51 24.51 0 0 0-1.08 4.84 13.62 13.62 0 0 1-5.05 7.9l-.45 5.44c.31 7.51 1.23 19.76-.62 29.81a192.08 192.08 0 0 0-3 30.74h7.92c1.03-1.22 2.7-9.65 4.59-20.61z" transform="translate(0 -60.95)"/><path class="cls-51" d="M222.72 172.41a.42.42 0 0 0-.56.38.89.89 0 0 0 .36.68 3.83 3.83 0 0 0 1.89.74 3.26 3.26 0 0 0 1.26 0 1.24 1.24 0 0 0 .94-.76.85.85 0 0 0-.16-.82.72.72 0 0 0-.79-.19" transform="translate(0 -60.95)"/><path class="cls-52" d="M225.85 173.07c.52-4.71 0-11-1.12-20-1.87-15.53-6-22.42-7.76-25.35-.52.34-1.1 1-1.62 1.39 4.4 7.41 6.18 15.7 6.83 24.41s1.26 10.54.59 19.29c1.5.06 1.58.19 3.08.26z" transform="translate(0 -60.95)"/><path class="cls-51" d="M240.62 173.22a1 1 0 0 0 .65 1.09 5.34 5.34 0 0 0 1.38.21 1.68 1.68 0 0 0 .81 0 .72.72 0 0 0 .2-1.16 1.33 1.33 0 0 0-.75-.24 17.64 17.64 0 0 0-2.24-.07" transform="translate(0 -60.95)"/><path class="cls-52" d="M243.48 173.76c.1-4.9-1.49-11.78-2.93-21.07-2.12-13.67-5.1-20.91-6.93-24.66l-2.07-.29c4 7.71 5.93 16.34 7 25.42s3 11.55 2.44 20.52c1.2.02 1.3.05 2.49.08z" transform="translate(0 -60.95)"/><path class="cls-41" d="M226.64 138.5a1.32 1.32 0 0 1 1-1.07 1.19 1.19 0 0 1 .78.51 7.37 7.37 0 0 1 1.61 3.36 1 1 0 0 1 0 .51 1 1 0 0 1-.31.38c-.82.71-5.09 3.39-4.79 1.77a39.85 39.85 0 0 1 1.71-5.46z" transform="translate(0 -60.95)"/><rect class="cls-53" x="226.3" y="131.66" width="6.69" height="12.89" rx="1.14" ry="1.14" transform="rotate(-21.2 66.853 107.637)"/><path class="cls-54" d="M227.86 133.08q.57-.41 1.17-.77a1.79 1.79 0 0 1 1.53-.37 4.91 4.91 0 0 1 .44.38l-.24-.61a.89.89 0 0 0-1.15-.51L225 133a.89.89 0 0 0-.51 1.15l4 10.35a2.82 2.82 0 0 0 1.06-.64 2.3 2.3 0 0 0 .68-1.18.41.41 0 0 0 0-.31.51.51 0 0 0-.23-.15 2.81 2.81 0 0 1-1.42-1.69 5.76 5.76 0 0 1-.21-2.24 1.88 1.88 0 0 0 0-.58 2.1 2.1 0 0 0-.63-.87 3.44 3.44 0 0 1-.86-1.4 2 2 0 0 1 .19-1.6 3 3 0 0 1 .79-.76z" transform="translate(0 -60.95)"/><path class="cls-36" d="M233 138.45a12.52 12.52 0 0 0-6.11 3.12 67.21 67.21 0 0 0-5.63 7.9 6.35 6.35 0 0 1 .8.85 42.81 42.81 0 0 0 3.36 3.93c2-7 1.06-6.55 5.69-7.08 2.35-.27 4.5.54 4.48-5.25-.01-1.92-.36-4-2.59-3.47z" transform="translate(0 -60.95)"/><path class="cls-55" d="M235.59 141.92c0-1.7-.31-3.59-2-3.53v.13a2.13 2.13 0 0 1-1 1.6 9.24 9.24 0 0 1-1.75.84 13.3 13.3 0 0 0-5.14 3.92c-.68.85-1.17 1.81-1.76 2.72a3.14 3.14 0 0 0-.05 3 13.82 13.82 0 0 0 1.42 2.56 4.42 4.42 0 0 0 .32.44c1.77-6.26 1-5.91 5.5-6.43 2.32-.27 4.47.54 4.46-5.25z" transform="translate(0 -60.95)"/><path class="cls-41" d="M230.36 113.65c0 1.54.63 1.79 1.37 1.77s1.32-.29 1.29-1.83-.68-3.75-1.41-3.73-1.29 2.25-1.25 3.79z" transform="translate(0 -60.95)"/><path class="cls-56" d="M227.6 108.91a.66.66 0 0 0 .22.93.72.72 0 0 0 1-.22.66.66 0 0 0-.22-.93.72.72 0 0 0-1 .22zm5.71.44a.63.63 0 0 0 .21.88.68.68 0 0 0 .92-.21.63.63 0 0 0-.21-.88.68.68 0 0 0-.92.21zm-4.88-2.06a2.88 2.88 0 0 1-.23.19c-.07 0-.15.12-.23.17l-.27.17c-.19.1-.37.22-.53.29a2.67 2.67 0 0 1-.28.12 1 1 0 0 1 .13-.28 1.65 1.65 0 0 1 .47-.46 1.66 1.66 0 0 1 .63-.21 1 1 0 0 1 .31.01zm5.31.46a.6.6 0 0 1 .24-.09 1 1 0 0 1 .54.08 1 1 0 0 1 .4.38.61.61 0 0 1 .08.25l-.23-.09-.42-.18-.21-.11c-.07 0-.13-.08-.19-.1zm-5.31 8.44l.21.18.52.48a4 4 0 0 0 1.63 1 1.76 1.76 0 0 0 .92 0 1.81 1.81 0 0 0 .4-.17 2.62 2.62 0 0 0 .34-.25 3.3 3.3 0 0 0 .46-.5l.16-.22a2.05 2.05 0 0 1-.31 1 1.85 1.85 0 0 1-.33.41 1.74 1.74 0 0 1-.51.34 2 2 0 0 1-1.33.07 2.68 2.68 0 0 1-1.11-.63 3.53 3.53 0 0 1-.65-.83 5.26 5.26 0 0 1-.4-.88z" transform="translate(0 -60.95)"/><path class="cls-57" d="M238 109a1.16 1.16 0 0 0 .69.31l1.33.26a1.68 1.68 0 0 1 1.43 1.18c.44.8.69 2.15 1.69 2.46a1.83 1.83 0 0 0 1.17-.08 1.47 1.47 0 0 0 1-1.06 1.67 1.67 0 0 0-.11-.77 3.76 3.76 0 0 1-.42-2.39c0-.22.06-.53-.16-.57a.43.43 0 0 0-.37.23 7.84 7.84 0 0 1-1.27 1.29 1.42 1.42 0 0 1-.67.35c-.67.09-2.21-1.54-1.6-2.17-.71-.28-3.96-.54-2.71.96z" transform="translate(0 -60.95)"/><path class="cls-45" d="M224.44 157.44c1.3-4 1.8-6.32 2.24-7.73a14.18 14.18 0 0 0-2.93-4c-2.75 4-6.05 9.36-6.05 9.36a96.07 96.07 0 0 0-2.8-10.78 11.21 11.21 0 0 0-8-7.31c-3.45 4.44-4.1 12.53-1.23 24.67s6.58 14.38 11.1 9.53 5.54-7.18 7.67-13.74z" transform="translate(0 -60.95)"/><path class="cls-58" d="M212.58 163.63c-.81-.29-.9-1.37-.85-2.23.4-7.42.21-15.23-3.39-21.74-.26-.48-.48-1.19 0-1.46a1 1 0 0 1 .73 0 8.11 8.11 0 0 1 4.35 3.72 24.11 24.11 0 0 1 2.15 5.43c.7 2.3 2.62 5.8 1.74 8.14-.31.73-4.58 8.19-4.73 8.14z" transform="translate(0 -60.95)"/><path class="cls-59" d="M216.72 171.19c4.53-4.87 5.58-7.22 7.71-13.75 1.3-4 1.8-6.32 2.24-7.73a14.69 14.69 0 0 0-1.31-2.15c-1.39 3.08-2.43 6.31-4 9.31-1.67 3.23-3.93 6.15-5.24 9.54-.45 1.16-.86 2.47-1.91 3.13-2.81 1.4-5.26-1.16-6.9-3.14l-.62-.76c2.72 8.59 6.06 9.81 10.03 5.55z" transform="translate(0 -60.95)"/><path class="cls-51" d="M219.83 141.95c.12-.06.22.1.25.23l.39 1.51a6 6 0 0 1 2.8-1.5l-.27-1.38a.26.26 0 0 0-.06-.14.27.27 0 0 0-.27 0l-2.63 1m15.76-1.61l.3 1a7.07 7.07 0 0 1 2.13.33l.11-1.47h-2.45" transform="translate(0 -60.95)"/><path class="cls-60" d="M227 197.58v-.33a2 2 0 0 1 .12-.38 2.24 2.24 0 0 1 .25-.47 4 4 0 0 1 .91-.93 7 7 0 0 1 1.25-.75 12.33 12.33 0 0 1 3.75-1s-.42.26-1.07.59-1.53.69-2.37 1.09a9.2 9.2 0 0 0-2.16 1.29c-.11.12-.25.22-.33.33a1.79 1.79 0 0 0-.22.29c-.07.17-.13.27-.13.27z" transform="translate(0 -60.95)"/><path class="cls-60" d="M235.28 173.94l.08.9v2.34c-.07 1-.18 2.13-.37 3.34s-.44 2.5-.71 3.78-.6 2.55-.92 3.73-.66 2.28-.93 3.21-.55 1.71-.72 2.26l-.28.85s.19-1.3.6-3.21l.7-3.27.83-3.73c.29-1.27.55-2.54.8-3.73s.46-2.31.6-3.27c.06-.48.15-.92.18-1.31s.09-.73.1-1z" transform="translate(0 -60.95)"/><path class="cls-61" d="M214.45 175l-.32.94c-.19.62-.46 1.53-.71 2.71a60.4 60.4 0 0 0-1.08 9.91c-.08 2.06-.06 4.3 0 6.67s.15 4.86.3 7.44.37 5.24.49 8-.09 5.49-.29 8.27-.54 5.51-.93 8.2-.83 5.34-1.29 7.89c-.94 5.1-1.94 9.83-2.84 13.87l-2.18 9.77c-.26 1.18-.45 2.11-.57 2.75l-.19 1 .17-1c.11-.64.27-1.57.5-2.76l1.95-9.82c.82-4.06 1.78-8.79 2.64-13.89.43-2.55.84-5.19 1.2-7.88s.66-5.43.89-8.17a80.22 80.22 0 0 0 .25-8.19c-.16-2.7-.36-5.38-.48-8a125.58 125.58 0 0 1-.07-14.17 51.17 51.17 0 0 1 1.41-9.92c.3-1.17.61-2.08.83-2.68zm15.88 22.06l-.07.74c-.05.48-.12 1.19-.17 2.09s-.09 2-.08 3.25 0 2.67.1 4.21c.12 3.09.46 6.68.59 10.56.07 1.94.09 3.95 0 6s-.32 4.09-.6 6.16c-.63 4.09-1.52 8.13-2.3 11.92-.38 1.89-.78 3.72-1.09 5.46s-.6 3.39-.78 4.92c-.11.76-.18 1.5-.25 2.2s-.15 1.36-.17 2c-.1 1.25-.1 2.34-.1 3.25s.07 1.61.08 2.09v.74l-.07-.74c0-.48-.15-1.19-.17-2.09s-.08-2 0-3.26c0-.63 0-1.3.09-2s.1-1.45.19-2.22c.15-1.54.38-3.21.67-5s.61-3.6 1-5.5c.75-3.8 1.6-7.83 2.2-11.9.28-2 .55-4.09.64-6.09s.1-4 0-5.93c-.12-3.86-.31-7.46-.37-10.56v-4.23c0-1.23.13-2.35.23-3.25s.18-1.6.26-2.08z" transform="translate(0 -60.95)"/><path class="cls-62" d="M233.17 175a.22.22 0 0 1 .13 0 .13.13 0 0 1 .07.09 2.8 2.8 0 0 1 0 2.09.68.68 0 0 1-.69.51.6.6 0 0 1-.32-.2 1.22 1.22 0 0 1-.18-1.41 1.79 1.79 0 0 1 .99-1.08z" transform="translate(0 -60.95)"/><path class="cls-61" d="M219.8 176a2.84 2.84 0 0 1-.15 1.18 3.44 3.44 0 0 1-.6 1.1 3.67 3.67 0 0 1-.5.51 4.9 4.9 0 0 1-.61.42 5.92 5.92 0 0 1-2.52.68 8.4 8.4 0 0 1-1.17 0l.3-.12.79-.27a12.54 12.54 0 0 0 2.24-.9 4.23 4.23 0 0 0 .52-.33 5.11 5.11 0 0 0 .47-.39 5.06 5.06 0 0 0 .7-.85 5 5 0 0 0 .4-.71z" transform="translate(0 -60.95)"/><path class="cls-63" d="M228 133.77a1.15 1.15 0 0 0 .42 2.24.06.06 0 0 0 .06-.08l-.07-.18a.29.29 0 0 1-.42 0 .31.31 0 0 0-.18-.12c-.12 0 0-.07 0-.07a.24.24 0 0 1 .21.05.25.25 0 0 0 .35 0 .25.25 0 0 1 0-.17.51.51 0 0 1-.69-.36.45.45 0 0 1 0-.33.41.41 0 0 1-.09-.29.43.43 0 0 1 .34 0 1.09 1.09 0 0 1 .54-.2.43.43 0 0 1 .26-.22.41.41 0 0 1 .11.28.45.45 0 0 1 .22.25.51.51 0 0 1-.3.71.28.28 0 0 1 .15.17l.11.3a.06.06 0 0 0 .09 0 1.15 1.15 0 0 0-1.11-1.98z" transform="translate(0 -60.95)"/><path class="cls-64" d="M223.4 263.41l-.61 7.47a1 1 0 0 0 1 1.06h12.65a.58.58 0 0 0 .48-.91c-.81-1.2-2.48-3.13-4.68-3l-.91-4.63h-7.93zm-20.45 0l-.61 7.47a1 1 0 0 0 1 1.06h13.93a.58.58 0 0 0 .48-.91c-.81-1.2-2.48-3.13-4.68-3l-.91-4.63h-9.2z" transform="translate(0 -60.95)"/><path class="cls-65" d="M233.81 148.57a.61.61 0 0 0-.63-.51 1.29 1.29 0 0 0 .83 1.25.89.89 0 0 0-.15-.81m1.06 11.65a1.62 1.62 0 0 0-.66-.62 1 1 0 0 0 1.11 1.23 1.15 1.15 0 0 0-.79-1.08m-1.58-5.35a1.1 1.1 0 0 0 0 1.07.21.21 0 0 0 .1.1.22.22 0 0 0 .23-.19 1.49 1.49 0 0 0-.13-1.23l-.16.27m1.22 12.87a1.27 1.27 0 0 0 .52 1.59 1.49 1.49 0 0 0-.36-1.59" transform="translate(0 -60.95)"/><path class="cls-66" d="M232.11 96.17l-1.66-.81a2.46 2.46 0 0 0-1.31-.36.85.85 0 0 0-.8.92 1.24 1.24 0 0 0 .53.63c2.09 1.58 4.18 3.16 6.36 4.61a18 18 0 0 1 2.07 1.51c.9.8 1.63 2.14 2.72 2.7l-.14-.21c.41-.34.92-.09 1.35-.37a1.55 1.55 0 0 0 .34-1.93 4.87 4.87 0 0 0-.88-1.26 16.75 16.75 0 0 1-2.23-2.36 11.43 11.43 0 0 0-1-1.47 18.26 18.26 0 0 1-3.77-.91c-.54-.19-1.06-.44-1.58-.69z" transform="translate(0 -60.95)"/><path class="cls-67" d="M217.06 262s.77-.14 1.55-.26a5.18 5.18 0 0 1 1.07-.11 2 2 0 0 1 .37 0 .22.22 0 0 1 .13.08.17.17 0 0 0-.12 0l-.34.09a5.18 5.18 0 0 1-1.07.12c-.78 0-1.57.07-1.57.07zm.36 2.95a.13.13 0 0 1 0-.12 1.13 1.13 0 0 1 .26-.15l.81-.39a3.58 3.58 0 0 1 .83-.33 2.24 2.24 0 0 1 .41-.06 2.23 2.23 0 0 1-.34.24 3.58 3.58 0 0 1-.83.33l-.86.27a1.12 1.12 0 0 0-.27.1.09.09 0 0 0 0 .08zm3.75.05a4 4 0 0 0-.81 1.21c-.13.34-.22.68-.3.94l-.14.44a1.57 1.57 0 0 1 0-.48 2.18 2.18 0 0 1 .32-1 3.56 3.56 0 0 1 1-1.14zm-22.6-2.63a9.63 9.63 0 0 0 1.55-.1c.38-.07.75-.15 1-.18s.49 0 .49 0a2.23 2.23 0 0 1-.45.22 3.22 3.22 0 0 1-1.07.18 7.22 7.22 0 0 1-1.57-.09zm.43 2.9a5.69 5.69 0 0 0 1.32-.47c.31-.17.59-.35.83-.47s.41-.19.41-.19a1.69 1.69 0 0 1-.3.35 2.39 2.39 0 0 1-.87.49 4.63 4.63 0 0 1-1.41.29zm1.69 2.13a.6.6 0 0 1 .11-.47 6.75 6.75 0 0 1 .68-.8 3.58 3.58 0 0 1 .79-.68 2.34 2.34 0 0 1 .43-.21 3.9 3.9 0 0 1-.31.36 7.33 7.33 0 0 1-.78.67 9.43 9.43 0 0 0-.76.69.55.55 0 0 0-.16.41zm-7.47-2.11l.17-.06a1.22 1.22 0 0 1 .48 0 1.88 1.88 0 0 1 1.26.72 2.45 2.45 0 0 1 .39.68 2.88 2.88 0 0 1 .17.66 3.73 3.73 0 0 1 0 .65s-.1-.24-.23-.61a6 6 0 0 0-.53-1.26 1.8 1.8 0 0 0-1.09-.75 1.08 1.08 0 0 0-.62 0zm19.52-.11a2.55 2.55 0 0 1 .62.07 2.28 2.28 0 0 1 1.2.69 1.56 1.56 0 0 1 .37.68 3.39 3.39 0 0 1 .08.64 2.63 2.63 0 0 0 .09.6 1.34 1.34 0 0 1-.28-.57 3.29 3.29 0 0 0-.41-1.22 2.25 2.25 0 0 0-1.06-.74 2.52 2.52 0 0 0-.6-.14z" transform="translate(0 -60.95)"/><path class="cls-68" d="M131.8 180.11c-1-.36-.64-4.8 0-4.71a3.52 3.52 0 0 0 3.19 1c2.07-.32 8.06-5 7.1-10.77s-5-11.65-8.94-10.61-5.19 5.11-7.1 6.22-4.51 4.25-3.11 7.58a11 11 0 0 0 2.23 3.51l-2 5.75 2.15 10.13 7.74 6.62.8-7.74z" transform="translate(0 -60.95)"/><path class="cls-69" d="M132.42 172.77c-1-.63-.94 1.68-.62 2.63s3 2.47 6.06.88 5.19-3.51 5.82-5.11c0 0 0 2.19-1.2 3.17s-4 7.84-.3 13.58a5.87 5.87 0 0 1 1.81-4.79c2.23-2.23 7.18-3.35 7.82-8.78s-3-7.66-4.63-8l-1.52-2.55s.84-2.39-3.33-6.38-8.8-3.75-9.2-2.39 2.47 4.55 4.39 4.95 1.44 1.6.32 1.52-3.35.48-2.87 3 1.2 2.71.16 2.87-1.6 1.92-.32 2.15 3.35.48 2.47 2.07a3.18 3.18 0 0 1-4.86 1.18z" transform="translate(0 -60.95)"/><path class="cls-70" d="M143.69 171.18a17.32 17.32 0 0 0 2-7.34c0-1.43 1.47 1 1.52 2.55.09 3.27-1.93 4.87-3.52 4.79z" transform="translate(0 -60.95)"/><path class="cls-71" d="M144.25 159.59a16.27 16.27 0 0 0-1.9-2.13 14.38 14.38 0 0 1-4.92 13.1 1.1 1.1 0 0 1-.13 1l-.12.2c8.33-1.86 7.08-12.11 7.07-12.17z" transform="translate(0 -60.95)"/><path class="cls-70" d="M115.36 206.69c-1.76-7.42.16-21.94.16-21.94l-.72-.48a22.9 22.9 0 0 1 3.27-2.63c1.84-1.2 1.52-4.55 2-4s1.84.32 3.11.48a12.82 12.82 0 0 1 4.71 6.54c1.52 4.55 3.4 2.31 3.82 1s.09-5.51.09-5.51a3.1 3.1 0 0 1 2.31 2.23c.64 2 .24 7.92-.4 10.22s-.41 11.49-.18 14.13h-18.17z" transform="translate(0 -60.95)"/><path class="cls-72" d="M131.8 180.11s.32 4.15-.09 5.51-2.3 3.59-3.82-1a13.93 13.93 0 0 0-1.12-2.5c-.75 0-1.41-.78-2.14-.59a1.42 1.42 0 0 0-.74.61 6.56 6.56 0 0 0-1.05 3.85 19.54 19.54 0 0 0 .6 4l3.68 16.66h6.43c-.23-2.64-.46-11.82.18-14.13s1-8.23.4-10.22a3.1 3.1 0 0 0-2.33-2.19z" transform="translate(0 -60.95)"/><path class="cls-73" d="M116.22 266.94c-1.43-.18-3.63 0-5-.6 1.37-2.66 2.35-6.12 3.73-8.73 1.28-2.41 2.12-7.31 5.4-11.09a23.93 23.93 0 0 1 3.24-3s-.91-3-1.22-3.93a34.94 34.94 0 0 1-1.44-13.2c.05-.74-.08-2.3.49-2.86s1.73-.54 2.35-.7a26.05 26.05 0 0 1 7.19-1 .88.88 0 0 1 .79.32.74.74 0 0 1 0 .41c-.3 3.41-.95 6.68-1 10.18.09 2.9-.1 5.85-.14 8.8a15.3 15.3 0 0 1-1.81 7.8c-.56 1.12-11.22 15.49-12.58 17.6z" transform="translate(0 -60.95)"/><path class="cls-74" d="M131.34 224.54a11.13 11.13 0 0 0-2.07-2.63 30.27 30.27 0 0 0-5.47 1c-.63.16-1.88.23-2.35.7s-.43 2.12-.49 2.86a37 37 0 0 0 .41 8.91 1.86 1.86 0 0 1 .87-.73 3.62 3.62 0 0 1 3.25.6 6.78 6.78 0 0 1 2.27 4.67 14.2 14.2 0 0 1-1.39 8.07c-1.2 2.4-3.1 4.48-3.8 7.07a5.68 5.68 0 0 0 0 3.16c3-4.12 6-8.22 6.33-8.77a15.3 15.3 0 0 0 1.81-7.8c0-2.95.24-5.9.14-8.8a72.52 72.52 0 0 1 .75-7.76c-.1-.23-.18-.39-.26-.55z" transform="translate(0 -60.95)"/><path class="cls-75" d="M118.72 221.07a17.26 17.26 0 0 1 1.19 4.46h3.33l-.55-4.47z" transform="translate(0 -60.95)"/><path class="cls-76" d="M119.92 164.35l.02 1.35 4.49-.07-.16-1.66-4.35.38z"/><path class="cls-68" d="M139.6 230.19c1.06 1.82 1.82 3.65 2.8 5.54 1.92 3.71 2.54 7.74 2.93 11.84.35 3.65.86 7.43 1.1 11.16a19.06 19.06 0 0 0 1.07 4.91c.13.42 1.44 3.79 1.13 3.84a59.65 59.65 0 0 0-6.13 1.16c-1.34-3.78-1.17-6.89-2.4-10.22a46.09 46.09 0 0 1-2.42-8c-.46-2.68-1.44-6.71-1.05-9.2-5.76-3.34-10.26-10.15-14.15-16.28.78-.65 2.45-.86 3.23-1.51 1.77-1.48 3.65-2.82 5.43-4.26.52-.42.58-.7 1.13-.28 1.45 1.08 2 2.79 2.77 4.3 1.1 2.11 3.66 5.46 4.56 7z" transform="translate(0 -60.95)"/><path class="cls-77" d="M144.47 261.14a3.33 3.33 0 0 0 2.51.78 14.42 14.42 0 0 1-.56-3.19c-.24-3.73-.75-7.5-1.1-11.16-.39-4.1-1-8.13-2.93-11.84-1-1.89-1.74-3.72-2.8-5.54-.9-1.54-3.46-4.89-4.57-7-.74-1.42-1.26-3-2.52-4.09a18.72 18.72 0 0 0-2.82 1.19c-1.34 1-2.69 2.06-4 3.14a2.78 2.78 0 0 1-.61.36 7.49 7.49 0 0 0-1.45 3l.83 1.28a3.65 3.65 0 0 0 1.44-.36c.19-.1 1.91-1.72 1.64-1.81a4.25 4.25 0 0 0 3.37-.35c.87-.5 1.82-1.33 2.71-.88a2.21 2.21 0 0 1 .77.81 78.32 78.32 0 0 1 4.65 8 14.22 14.22 0 0 1 1.39 3.58 16.13 16.13 0 0 1 .21 3q0 2.91.11 5.81c.13 4.16.37 8.4 1.84 12.3a7 7 0 0 0 1.89 2.97z" transform="translate(0 -60.95)"/><path class="cls-71" d="M115.2 208c.49 2.05 0 4-.21 6.84a10.48 10.48 0 0 0 4.82 9c3.36 2 3.39 3.68 3.39 3.68l2.18-1.14.58-2.86 3 .65 5.13-3.27-1.14-2a11.4 11.4 0 0 1 .06-5.15 11.17 11.17 0 0 0 .13-5.82c-.26-1.93-17.94.07-17.94.07z" transform="translate(0 -60.95)"/><path class="cls-78" d="M133.05 213.75a11.18 11.18 0 0 0 .13-5.82c-.07-.42-1.23-.64-2.58-.74-.13 0-1.69-.51-1.81-.49-2.72.54-1.6 1.65-.79 4.49s5 7.72 5 7.72a11.4 11.4 0 0 1 .05-5.16z" transform="translate(0 -60.95)"/><path class="cls-79" d="M133.5 147.34h-18.32v-2l18.42.01-.1 1.99z"/><path class="cls-68" d="M92.14 150l22.66 34.22 4.53-3.42.74-3.2c-1.2-2.33-7.49-7-10.7-13-3.91-7.29-15.13-16.05-15.13-16.05-.88-.57-.07-1.26-.52-2S90.8 148 90.8 148a1.11 1.11 0 0 0 0 1.5c.72.6.89-.13 1.34.5z" transform="translate(0 -60.95)"/><path class="cls-80" d="M120.07 177.64c-1.2-2.33-7.49-7-10.7-13-2-3.64-5.72-7.65-9-10.75a20.43 20.43 0 0 0-1.87-1.05 1 1 0 0 0-1-.11 1 1 0 0 0-.23 1.07 12.65 12.65 0 0 0 2.15 4.08c1.32 1.86 1.94 4.06 3.39 5.82a25.12 25.12 0 0 0 2.51 2.72c.8.72 1.68 1.35 2.45 2.11a18.73 18.73 0 0 1 2.59 3.49q3 4.86 5.61 10l.52 1 2.84-2.15z" transform="translate(0 -60.95)"/><path class="cls-79" d="M114.32 183.88l1.2.86a7.66 7.66 0 0 0 3.84-3c1.73-2.45 1.13-4.16 1.13-4.16l-1-.64a6.58 6.58 0 0 1-1.7 4.2 10.22 10.22 0 0 1-3.47 2.74zm8.33-5.81a19.92 19.92 0 0 1 4.88 7.18c1.31 3.94 3.3 3.19 3.95 1.64s.91-3.23.58-6.72l-.46-.2s.63 4.77-.51 6.44-2.23.42-2.75-1.2a12.87 12.87 0 0 0-5.16-7.1z" transform="translate(0 -60.95)"/><path class="cls-79" d="M122.98 166.05l.35 1.01 2.35-1.27.5-2.83 3 .73 5.13-3.38-.43-.8-4.73 3.1-3.07-.61-8.33-12.48-1.06.62 8.54 12.39-.26 2.51-1.99 1.01z"/><path class="cls-79" d="M123 187.67a6.55 6.55 0 0 0 .55 2.07 1.07 1.07 0 0 0 .92.85 1 1 0 0 0 .68-.71c.4-1 1.11-3 .33-4-1.2-1.57-2.48.54-2.48 1.79z" transform="translate(0 -60.95)"/><path class="cls-81" d="M130.88 211a.43.43 0 0 0 .15.4.3.3 0 0 0 .34-.08.87.87 0 0 0 .17-.32c.12-.32.23-.64.33-1a2.11 2.11 0 0 0-.09-1.93 6.77 6.77 0 0 0 2.49 2.87.42.42 0 0 0 .48.06.36.36 0 0 0 .1-.23 1.94 1.94 0 0 0-.27-1.13c-.4-.75-1.59-2.08-2.59-1.79s-1.11 2.33-1.11 3.15z" transform="translate(0 -60.95)"/><path class="cls-82" d="M119.5 188a5.91 5.91 0 0 1-3-1.17 3.89 3.89 0 0 1-1-2.13c-.32 2.73-1.36 12.62-.63 19.14a61.33 61.33 0 0 0 1.22-6.15 39.81 39.81 0 0 1 3.41-9.69z" transform="translate(0 -60.95)"/><path class="cls-83" d="M142.5 268.63a59.66 59.66 0 0 1 6.13-1.16c.32 0-1-3.42-1.13-3.84a19.06 19.06 0 0 1-1.07-4.91c-.23-3.73-.75-7.5-1.1-11.16v-.23l-7.92 1.59c.11.52.21 1 .29 1.47a46.11 46.11 0 0 0 2.42 8c1.2 3.35 1.03 6.46 2.38 10.24z" transform="translate(0 -60.95)"/><path class="cls-84" d="M147.5 263.63a19.06 19.06 0 0 1-1.07-4.91c-.23-3.73-.75-7.5-1.1-11.16v-.23l-4.78 1c0 2.48 1.2 5 2 7.42 1.21 3.75 1.55 7.71 2.44 11.55q.09.39.19.78c1.32-.25 2.73-.48 3.49-.58.27-.07-1.05-3.5-1.17-3.87z" transform="translate(0 -60.95)"/><path class="cls-85" d="M141.15 265.86a12.93 12.93 0 0 1 1.07 4.19 1 1 0 0 0 1 1 53.77 53.77 0 0 0 12.08-2.77c.5-.16.9-.24.66-.8a3.07 3.07 0 0 0-1.5-1.51 5.88 5.88 0 0 0-1.6-.11l-3 .07a1.06 1.06 0 0 1-.06-1 4 4 0 0 0 .08-1.31 1.34 1.34 0 0 0-.68-1.17.85.85 0 0 0-.92.31 3.15 3.15 0 0 0-.44.95 8.63 8.63 0 0 1-1.35 2.45 1.44 1.44 0 0 1-.57.49 1.57 1.57 0 0 1-.91 0c-1.29-.31-2.66-1.19-3.86-.79z" transform="translate(0 -60.95)"/><path class="cls-86" d="M146.95 268.77a5.7 5.7 0 0 0 3.94-1.12 3.69 3.69 0 0 1 .69-.47c.37-.16.79-.16 1.16-.34a1.33 1.33 0 0 0 .72-1h-.62l-3 .07a1.06 1.06 0 0 1-.06-1 4 4 0 0 0 .08-1.31 2.34 2.34 0 0 0 0-.25 1.56 1.56 0 0 0-.29.25c-.64.71-.54 1.92-1.09 2.74s-1.41 1.43-1.53 2.43z" transform="translate(0 -60.95)"/><path class="cls-83" d="M142.55 271.85a1 1 0 0 0 .71 0 82.35 82.35 0 0 0 13-3.33 1.75 1.75 0 0 0-.48-1.37c-.28-.13-6.11 1.94-9.33 2.25a20.68 20.68 0 0 0-3.7.43c-.51.15-.66 0-.67.5a2.36 2.36 0 0 0 .47 1.52zM115 257.61c-1.38 2.61-2.36 6.07-3.73 8.73 1.33.59 3.53.42 5 .6.9-1.41 6-8.31 9.41-13l-3.68-3.2c-1-.85-1.93-1.69-2.91-2.49-2.23 3.44-3.01 7.31-4.09 9.36z" transform="translate(0 -60.95)"/><path class="cls-87" d="M121.49 255.05q-3.46 5.8-6.57 11.8c.47 0 .92 0 1.31.09.9-1.41 6-8.31 9.41-13l-2.18-1.94a28.13 28.13 0 0 0-1.97 3.05z" transform="translate(0 -60.95)"/><path class="cls-88" d="M123.43 254.68q-1.54-1.62-3.19-3.13-.82-.75-1.66-1.48c-.1-.09-.22-.21-.35-.34-.12.23-.23.46-.35.69l5.42 5.07c.23.22.46.44.68.67l.36-.49c-.34-.33-.6-.67-.91-.99z" transform="translate(0 -60.95)"/><path class="cls-89" d="M122.5 256.38q-1.54-1.62-3.19-3.13-.82-.75-1.66-1.48l-.26-.25c-.1.24-.21.48-.31.72l5.29 5 .51.49.36-.49c-.24-.32-.49-.6-.74-.86z" transform="translate(0 -60.95)"/><path class="cls-88" d="M144.9 249.81l.64-.14-.06-.59-1.19.17q-2.21.36-4.39.86-1.08.25-2.15.53c0 .24.1.48.15.72z" transform="translate(0 -60.95)"/><path class="cls-89" d="M145.75 251.55l-.07-.64-.51.07q-2.21.36-4.39.86-1.08.25-2.15.53l-.5.1c.06.24.14.48.21.71z" transform="translate(0 -60.95)"/><path class="cls-85" d="M111.23 264.9a11.6 11.6 0 0 1-1.08 3.8.69.69 0 0 0 .37 1.06 55.32 55.32 0 0 0 11.87.67c.51 0 .91 0 1-.52a2 2 0 0 0-.58-1.65 4.87 4.87 0 0 0-1.34-.49l-2.63-.68a1.08 1.08 0 0 1 .41-.83 4.51 4.51 0 0 0 .7-1.09 1 1 0 0 0 0-1.16.92.92 0 0 0-1 0 4.17 4.17 0 0 0-.84.69 11.59 11.59 0 0 1-2.36 1.74 1.89 1.89 0 0 1-.74.28 1.34 1.34 0 0 1-.78-.24c-1-.55-1.76-1.63-3-1.58z" transform="translate(0 -60.95)"/><path class="cls-90" d="M122.39 270.42c.51 0 .91 0 1-.52a2 2 0 0 0-.58-1.65 4.88 4.88 0 0 0-1.34-.49l-2.63-.68a1.08 1.08 0 0 1 .41-.83 4.51 4.51 0 0 0 .7-1.09 2 2 0 0 0 .15-.5l-2.83 2.34a5.76 5.76 0 0 1-1 .78 8.28 8.28 0 0 1-1.54.52 9.46 9.46 0 0 0-1.46.57.73.73 0 0 0-.32.25.52.52 0 0 0 .16.63 1.51 1.51 0 0 0 .65.26l1.4.31c2.38.17 4.92.15 7.23.1z" transform="translate(0 -60.95)"/><path class="cls-83" d="M109.5 270.3a.84.84 0 0 0 .6.21 93.11 93.11 0 0 0 13.1.55 1.31 1.31 0 0 0 .24-1.22c-.19-.17-6.36 0-9.35-.5a21.12 21.12 0 0 0-3.46-.56c-.52 0-.56-.19-.83.23a1.81 1.81 0 0 0-.3 1.29z" transform="translate(0 -60.95)"/><path class="cls-91" d="M118.82 267.09c-.14.24-.25.59-.35.8a1.1 1.1 0 0 0-.13.43.28.28 0 0 0 0 .16.32.32 0 0 0 .15.11 1.09 1.09 0 0 0 .43.09 3.2 3.2 0 0 1 .59-1.4zm30.72.64a.17.17 0 0 0 .1 0h.65a12.43 12.43 0 0 0 .5-1.8h-1c-.17.35-.5 1.63-.25 1.8z" transform="translate(0 -60.95)"/><path class="cls-92" d="M128.52 163.49c-.91.75-1.35.52-1.7.09s-.49-.91.42-1.66 2.51-1.47 2.86-1-.68 1.82-1.58 2.57zm3.97.13a.63.63 0 0 1-.81.42.68.68 0 0 1-.44-.83.63.63 0 0 1 .81-.42.68.68 0 0 1 .44.83zm-3.49-3.56a.52.52 0 0 1-.67.35.57.57 0 0 1-.37-.69.52.52 0 0 1 .67-.34.57.57 0 0 1 .37.68zm4.14 1.94a.94.94 0 0 1 .2.22 1.58 1.58 0 0 1 .24.58 1.56 1.56 0 0 1 0 .63.94.94 0 0 1-.12.27 2.54 2.54 0 0 1-.09-.27c0-.16-.07-.36-.12-.56s-.06-.41-.07-.57a2.74 2.74 0 0 1-.04-.3zm-3.42-3.08l-.19-.06-.35-.14a5.37 5.37 0 0 1-.52-.26.51.51 0 0 1 .2-.09.81.81 0 0 1 .45 0 .82.82 0 0 1 .34.3.5.5 0 0 1 .07.25z" transform="translate(0 -60.95)"/><path class="cls-93" d="M124.16 164.61c-.64 1.79-.07 4.47 2.29 4.9s3.15-1.84 2.09-2.72c-1.69-1.41-2.95-2.36-3.06-3.29s-.89-.09-1.32 1.11z" transform="translate(0 -60.95)"/><path class="cls-94" d="M129.32 165.16a.36.36 0 0 0-.09.22 2.69 2.69 0 0 0 .51 1.65 5.81 5.81 0 0 0 1 1.29 2.5 2.5 0 0 0 1.42.7.93.93 0 0 0 .74-.19c.69-.66-.31-2.15-.82-2.65s-2.22-1.53-2.76-1.02zm-2.61-3.5a.23.23 0 0 0 .05-.1.9.9 0 0 0-.09-.66 1.5 1.5 0 0 0-.32-.48.79.79 0 0 0-.59-.21.59.59 0 0 0-.36.14.83.83 0 0 0 .17 1.13 1.12 1.12 0 0 0 1.14.18z" transform="translate(0 -60.95)"/><path class="cls-95" d="M143.61 211.43c-.18 3.06 2.36 5.22 5.79 4.14s-3.37-5.81-3.37-5.81z" transform="translate(0 -60.95)"/><path class="cls-96" d="M176.47 241.59a3.23 3.23 0 0 1-1.36-.59 3 3 0 0 1-.57-.76 29.17 29.17 0 0 1-2.43-5.37 4 4 0 0 1-.28-1.38 4.44 4.44 0 0 1 .61-1.8 73.37 73.37 0 0 0 3.94-9.43c1-3 2-6.29 4.77-7.83a8.85 8.85 0 0 1 3.88-1 7.72 7.72 0 0 1 3.68.53 9.93 9.93 0 0 1 3.17 2.78c3.52 4.13 7.17 8.48 8.33 13.78s0 11.49-2.06 16.32c-.9 2.14-2.57 1.48-4.35.74-2.66-1.11-5.32-2.2-8-3.15q-4.62-1.6-9.33-2.84z" transform="translate(0 -60.95)"/><path class="cls-97" d="M159.89 254.58a4.39 4.39 0 0 1-4 3.41c-.95 0-2-.21-2.79.3a2.9 2.9 0 0 0-.72.72 10.89 10.89 0 0 0-1.14 1.85 2.58 2.58 0 0 0-.31 1.06c0 1 1.25.55 2 .83a.43.43 0 0 0 .59-.27 4.92 4.92 0 0 1 1-1.24 1.51 1.51 0 0 1 2-.5c1.21 1 2.83.42 4-.76a7.62 7.62 0 0 0 2.1-4.37" transform="translate(0 -60.95)"/><path class="cls-98" d="M165 220.51s-.86 7.08-.43 10.73-2.16 4.22-2.58 9.62-1.17 11.36-2.89 14.33l3.43 1s2.12 1.3 4.76-7.93 5.16-25.73 5.16-25.73l-.6-2.05H165z" transform="translate(0 -60.95)"/><path class="cls-99" d="M171.84 220.51H165s-.17 1.38-.32 3.22a8.91 8.91 0 0 1 1.53.91c2 1.6 2.12 5.09 2 7.43a5.62 5.62 0 0 1-.75 3 22.19 22.19 0 0 1-2.22 2.1 8.48 8.48 0 0 0-1.6 3.27c-.82 2.59-2.06 5.5-2.3 8.21a5.51 5.51 0 0 1-.79 2.42 15.86 15.86 0 0 1-1.48 4.08l3.43 1s2.12 1.3 4.76-7.93 5.16-25.73 5.16-25.73z" transform="translate(0 -60.95)"/><path class="cls-96" d="M165.77 210.93c-.41 2.91-1.06 8.37-2.36 11 2.81.39 4.45.44 7.26.83a5.36 5.36 0 0 1 1.41.32 2.58 2.58 0 0 0 1.54.47l.21-5.36a26.27 26.27 0 0 1 .43-4.41 12.14 12.14 0 0 0 .61-4.15.43.43 0 0 0-.3.28" transform="translate(0 -60.95)"/><path class="cls-100" d="M174.71 211.84l-.09-.13a2.21 2.21 0 0 0-1.87-.85 2.58 2.58 0 0 0-1.11.47 9.06 9.06 0 0 0-2.32 2.51 23.3 23.3 0 0 0-2.46 4.73c-.47 1.22-.87 2.44-1.43 3.6 1.74.19 3.17.29 5.24.58a5.36 5.36 0 0 1 1.41.32 2.57 2.57 0 0 0 1.54.47l.21-5.36a26.27 26.27 0 0 1 .43-4.41c.13-.63.31-1.28.45-1.93z" transform="translate(0 -60.95)"/><path class="cls-101" d="M174.11 264c0 1.23-1 1.8-2.87 2.59s-4.78 2.87-5.91 3.15 2 1 4.9 1 6.59.73 8.27 0 2.82-1.49 2.25-3.21-1.18-2.36-1.07-3.32-5.57-.21-5.57-.21z" transform="translate(0 -60.95)"/><path class="cls-102" d="M168 268.37c-1.52.09-4.17.54-5.07 1.55s-1.35 2 1.18 2h14.39a2.88 2.88 0 0 0 2.95-2c.38-1-.13-2.81-.69-2.36s-.45 1.29-1.86 1.46-9.27.54-10.86.39-.04-1.04-.04-1.04z" transform="translate(0 -60.95)"/><path class="cls-103" d="M196.57 242c-5.67-3.12-11.93-5-18.14-6.8l-3.22-.95v.49a25.93 25.93 0 0 1 4.91 13.31 61.84 61.84 0 0 1-.12 7.22c-.06 1.17.79 9 .81 10.18s-8.1-.41-8.11-.61c-.14-4.16-2.67-15.59-3.19-19.73-.33-2.6-1.51-5-1.83-7.56q-.28-2.25-.7-4.47a16.61 16.61 0 0 1-.65-3.52 4.65 4.65 0 0 1 .73-2.75c1-1.31 2.49-1.32 4-1.57a29.12 29.12 0 0 1 5.06-.5c2.55 0 12.54.3 15.07 0" transform="translate(0 -60.95)"/><path class="cls-104" d="M178.43 235.21c6.21 1.83 12.47 3.67 18.14 6.8l-5.39-17.26c-2.17.26-9.83.1-13.57 0a18.54 18.54 0 0 1-1.91 2.2c-.87.77-4.1-.05-5.06.61a4.75 4.75 0 0 0-2.11 2.68 5.63 5.63 0 0 0 .43 3.06c2.06 5.88 7.43 12.69 8.9 18.74a60.14 60.14 0 0 1 .81 13.79c1.22.07 2.15 0 2.14-.39 0-1.17-.87-9-.81-10.18a61.85 61.85 0 0 0 .12-7.22 25.93 25.93 0 0 0-4.91-13.31v-.49z" transform="translate(0 -60.95)"/><path class="cls-96" d="M171 222c4.21 1.83 11.67 2.45 13.48 3.78l-1.08-4.57-8.51-1.91z" transform="translate(0 -60.95)"/><path class="cls-97" d="M158.66 261.1a2.93 2.93 0 0 1-1.2 1.71 1.53 1.53 0 0 0-.46.57.77.77 0 0 0 1 1 1.55 1.55 0 0 0 .43-.34l.62-.63a16.23 16.23 0 0 0 1.81-1.71 1.69 1.69 0 0 0 .17-1.34.18.18 0 0 0-.21-.16" transform="translate(0 -60.95)"/><path class="cls-97" d="M156.14 263.85c.11-.19.19-.39.3-.58a4.31 4.31 0 0 1 2-1.77 1.63 1.63 0 0 0 1-.79.41.41 0 0 0 0-.28.58.58 0 0 0-.54-.25 3.82 3.82 0 0 0-1.08 0 3.66 3.66 0 0 0-1 .46 2.77 2.77 0 0 0-.84.65 3.67 3.67 0 0 0-.36.66c-.12.25-.26.49-.37.74a4.67 4.67 0 0 0-.33 1 2.1 2.1 0 0 0-.07 1.06c.21.47 1.15-.67 1.29-.9z" transform="translate(0 -60.95)"/><path class="cls-105" d="M159.53 261.47a9.83 9.83 0 0 0-1.16-.12 2.47 2.47 0 0 0-2.32 1.2c-.41 1-.67 2.09-1.21 2.38a.88.88 0 0 1-.53-1 8 8 0 0 1 .22-2.13 2.7 2.7 0 0 1 1.25-1.68 6.71 6.71 0 0 1 1.68-.43c1.78-.4 3.18-1.72 4.57-2.9a2.48 2.48 0 0 1 1.21-.68 1.76 1.76 0 0 1 1.82 1.23 3.9 3.9 0 0 1-1 2.15 5.25 5.25 0 0 1-4.53 1.98z" transform="translate(0 -60.95)"/><path class="cls-102" d="M182.26 220.51c0 12.2-5.58 19.89-8.26 25.12s-9.12 13.52-9.12 13.52l-2.9-2.92s4-5.18 4.76-10.08S168 236.73 171 231s2-14.2 2-14.2z" transform="translate(0 -60.95)"/><path class="cls-106" d="M164.88 259.15s6.44-8.28 9.12-13.52c1.57-3.07 4.14-7 6-12.18h-.06c.06-.1.11-.2.17-.3.35-1 .66-2 .94-3.1a7.77 7.77 0 0 0-.22-2.71 1.22 1.22 0 0 0-.69-.95 1.07 1.07 0 0 0-.88.25c-1.1.81-1.45 2.27-1.86 3.57-1.45 4.54-4.53 8.38-6.41 12.77-1.15 2.68-1.84 5.57-3.4 8-1.38 2.18-3.37 3.95-4.6 6.21z" transform="translate(0 -60.95)"/><path class="cls-95" d="M185.84 198.3c1.87-4.17-5-4.22-6.5-1a11.92 11.92 0 0 1-6.16 6.28c-3.76 1.67-7.68 7.74-11.61 4.91s-3.69-8.18-3.69-8.18l14.9-9.12h9.48l5.8 1.17.42 5.61" transform="translate(0 -60.95)"/><path class="cls-107" d="M152 216.16a29.75 29.75 0 0 1 2.87 2 1.57 1.57 0 0 0 1.32.49 1.48 1.48 0 0 0 .79-1.26" transform="translate(0 -60.95)"/><path class="cls-105" d="M161.3 205.14c-1.32-.28-2.5-1-3.79-1.44a8.78 8.78 0 0 0-5.6.2 12.09 12.09 0 0 0-4.66 3.19c-1.15 1.24-2.13 2.85-1.85 4.52.32 1.94 2.21 3.21 4 3.93 1.12.45 2.48.51 3.51 1.11 2.46 1.43 6.58 1 7.8-.26a1.83 1.83 0 0 0 .24-1.65 3.59 3.59 0 0 1-.16-1.71c.33-1.16 1.54-1 2.45-1.07a20 20 0 0 1 6 .2 2.16 2.16 0 0 0 1 0 1.81 1.81 0 0 0 1-1.6c.23-1.54.1-7-2.24-6.89a19.29 19.29 0 0 0-3.25 1 9.91 9.91 0 0 1-4.45.47z" transform="translate(0 -60.95)"/><path class="cls-108" d="M168.75 203.77c-1 .17-2 .74-2.89 1a16.88 16.88 0 0 1-2.24.46.71.71 0 0 0 .22.47c.12.11.26.17.38.28a1.1 1.1 0 0 1-.2 1.57 3.93 3.93 0 0 1-1.66.64 11 11 0 0 0-4.83 2.6 2.65 2.65 0 0 0-.87 1.27c-.16.69.17 1.43 0 2.1a1.79 1.79 0 0 1-1.14 1.09 4.39 4.39 0 0 1-1.61.18 17.7 17.7 0 0 1-6.57-1.53 3.53 3.53 0 0 0-.91-.3 8.19 8.19 0 0 0 3 2c1.12.45 2.48.51 3.51 1.11 2.46 1.43 6.58 1 7.8-.26a1.83 1.83 0 0 0 .24-1.65 3.59 3.59 0 0 1-.16-1.71c.33-1.16 1.54-1 2.45-1.07a20 20 0 0 1 6 .2 2.16 2.16 0 0 0 1 0 1.81 1.81 0 0 0 1-1.6c.18-1.21.14-4.89-1-6.31l-1.07-.38z" transform="translate(0 -60.95)"/><path class="cls-109" d="M142.2 206.46c.2 3.49 1.68 7.44 3.87 7 .2-1.77 3-.91 2.75-3.26-.11-1.31 1.24-.35 1.83-.08s5.19 1.28 5.53-1.49c0 0-2.25-1.46-1.18-2.85s4.09.72 4.09.72 1.91.07 2.21-1.32c.51-2.36 2.31-4.26 4.05-5.84a21.47 21.47 0 0 1 6.46-4 33.16 33.16 0 0 1 3.56-1.15q2.21-.6 4.46-1.07a11.68 11.68 0 0 1 5-.26 4.42 4.42 0 0 1 2.51 2.47 2.35 2.35 0 0 1-1.46 3.05s5.91 1.49 5.13-5.42-7-9.75-10.84-9.84c-8.86-.22-10.58 9.18-16.71 10.35s-9.27.61-14.48 2.94a11.08 11.08 0 0 0-6.78 10.05z" transform="translate(0 -60.95)"/><path class="cls-110" d="M232.75 263.46a8.72 8.72 0 0 0 3.78-.89c0 1.23 1.22 2.63 1.74 3.74a5.32 5.32 0 0 1 .45 2.93.59.59 0 0 0 .18.66c.66.28 1.51.66 2 .12a4.17 4.17 0 0 0 .79-2c.65-3.18 1.13-6.58 0-9.62a3.3 3.3 0 0 0-1.38-1.84 3.82 3.82 0 0 0-2.8 0 42.48 42.48 0 0 0-7.48 2.92 17.56 17.56 0 0 0 1.12 3.11 2.53 2.53 0 0 0 .77 1.06c.31.35.53.13.83-.19z" transform="translate(0 -60.95)"/><path class="cls-102" d="M240.48 268.42a4.3 4.3 0 0 0-1.77.81c-1 .73-2.58.36-2 1.35s1.11.85 1.11.85l3.82.12c.65 0 1.59-1.33 1.78-2.47a60.28 60.28 0 0 0 .29-9.39 3.83 3.83 0 0 0-2.26-3.3c-1.28-.66-4.14-.44-4 .22s2.71.42 3.54 2.64.27 7.4-.51 9.17z" transform="translate(0 -60.95)"/><path class="cls-103" d="M234.19 264a14.11 14.11 0 0 0-1.83-6.7c-4.24.87-4.08 1.14-8.41 1.14-4.15 0-7.58.21-11.72-.14a13 13 0 0 0-5.14.33 10 10 0 0 1 1.07-5.34 69.81 69.81 0 0 1 4-7.32l-17.49 7.54a5.59 5.59 0 0 0-.65 2.33c-.48 3.7-.91 7.66.77 11a18.85 18.85 0 0 0 2.39 3.4 2.21 2.21 0 0 0 .87.74 2.19 2.19 0 0 0 1.13 0c4.59-.79 9.1-1.91 13.64-2.94 6.06-1.37 19.42-1.17 21.37-4.04z" transform="translate(0 -60.95)"/><path class="cls-111" d="M234.19 264a14.11 14.11 0 0 0-1.83-6.7c-4.24.87-4.08 1.14-8.41 1.14-4.15 0-7.58.21-11.72-.14a13 13 0 0 0-5.14.33 10 10 0 0 1 1.07-5.34 69.81 69.81 0 0 1 4-7.32l-17.49 7.54a5.59 5.59 0 0 0-.65 2.33c-.1.8-.2 1.62-.28 2.43 1.38-.18 2.83-.85 4.14-.76 1.8.13 3.66 1.34 3.89 3.13a3.88 3.88 0 0 0 .25 1.46c.46.82 1.63.78 2.56.63l7.6-1.2a17.24 17.24 0 0 1 5.74-.26 5.84 5.84 0 0 1 4.48 3.25 5.13 5.13 0 0 1 .33 2.28c5.27-.49 10.27-1.12 11.46-2.8z" transform="translate(0 -60.95)"/><path class="cls-112" d="M167.44 203.6s1.39 6.49.69 8 1.67 2.82 3.63 3.37 14.41-.52 16.61 10.42c2.53 12.57 3 20.78 1.77 26s-1.67 4.36 2.65 3.8 16.79-1 20.42-.28 3.35 2.5 2.93-6.08S215 223.74 200 209.06s-26.8-8.41-28.19-6.87c-.05 0-4.65 0-4.37 1.41z" transform="translate(0 -60.95)"/><path class="cls-112" d="M185 209.32c-1 5.89 0 10.53-.55 16.49a27.07 27.07 0 0 0-4.35-2.95c-2.88-1.28-6-1.1-9.13-.83a33 33 0 0 0 .87-13.25c0-.32-.09-.65-.14-1" transform="translate(0 -60.95)"/><path class="cls-113" d="M189.51 220.37c-.58-3.38-1.26-7.92-3.28-11.07a.91.91 0 0 0-1.66.58c.07 1.29.28 2.75.28 3.32 0 1.88-.08 3.76-.24 5.63a11.26 11.26 0 0 1 3.76 6.62c2.53 12.57 3 20.78 1.77 26-.71 2.93-1.15 3.94-.62 4.17l1.33-2.41a11.76 11.76 0 0 0 .92-1.92 11.42 11.42 0 0 0 .38-3.93 185.12 185.12 0 0 0-2.64-26.99z" transform="translate(0 -60.95)"/><path class="cls-109" d="M176 184.51a3.07 3.07 0 0 1 1.29-1.84 9.37 9.37 0 0 1 2.55-.87 7.2 7.2 0 0 1 4.77 1.25 5.91 5.91 0 0 1 2.12 4.12 7.72 7.72 0 0 0 .12 1.79 4.88 4.88 0 0 0 .09-3.1 7 7 0 0 0-.84-2.26 5.46 5.46 0 0 0-3-2.16 9.32 9.32 0 0 0-5.85.09 9.1 9.1 0 0 0-4.09 3.3 3.46 3.46 0 0 0-.69 1.28" transform="translate(0 -60.95)"/><path class="cls-114" d="M216.14 248.87c-.42-8.58-1.12-25.12-16.19-39.81a37.33 37.33 0 0 0-10.28-7.35h-.21c2.75.93 4.88 3.14 6.62 5.47a37.59 37.59 0 0 1 5.09 9.34c4.34 11.65 2.68 24.66 5.32 36.8.09.41.19.83.3 1.24a42.12 42.12 0 0 1 6.41.36c3.64.72 3.36 2.52 2.94-6.05z" transform="translate(0 -60.95)"/><path class="cls-115" d="M181.46 205a2.13 2.13 0 0 0-2.29-.54 2.62 2.62 0 0 0-1.18 1.6 61.44 61.44 0 0 0-2.78 9.73 18.69 18.69 0 0 1-1 3.89 9 9 0 0 0-.87 2.29 16.3 16.3 0 0 1 6.83.89 11 11 0 0 1 1.3.66c.49.28 2-12.93 1-16.45a4.47 4.47 0 0 0-1.01-2.07z" transform="translate(0 -60.95)"/><path class="cls-116" d="M212.82 266.64a36.25 36.25 0 0 0-8.75 1.5 13.88 13.88 0 0 1-3.5.62 6.75 6.75 0 0 1-6.73-7.34l-.21.17a12.27 12.27 0 0 0 1.18 5.24 18.85 18.85 0 0 0 2.39 3.4 2.21 2.21 0 0 0 .87.74 2.19 2.19 0 0 0 1.13 0c4.59-.79 9.1-1.91 13.64-2.94a56.11 56.11 0 0 1 6.37-.88 57.31 57.31 0 0 0-6.39-.51z" transform="translate(0 -60.95)"/><circle class="cls-117" cx="151.37" cy="154.52" r=".38"/><path class="cls-117" d="M157.83 215a1.16 1.16 0 0 1 .54.12 1.38 1.38 0 0 1 .44.35 1.56 1.56 0 0 1 .25.63 1.51 1.51 0 0 1 0 .35 1.18 1.18 0 0 1-.07.33.88.88 0 0 1-.38.44.69.69 0 0 1-.52.12v-.06a.6.6 0 0 0 .36-.23.73.73 0 0 0 .16-.37.75.75 0 0 0 0-.22 1.08 1.08 0 0 0-.08-.21 2 2 0 0 0-.28-.37c-.09-.12-.17-.26-.25-.37s-.25-.44-.25-.44zm-7.83.08a1.06 1.06 0 0 1 .12-.26 1.63 1.63 0 0 1 .94-.69 1.07 1.07 0 0 1 .28 0 1.6 1.6 0 0 1-.17.22 3.63 3.63 0 0 1-.42.38 3.7 3.7 0 0 1-.49.29 1.67 1.67 0 0 1-.26.06z" transform="translate(0 -60.95)"/><path class="cls-118" d="M81 122.54a6.41 6.41 0 0 1 3.9 8c-1.32 4-5.52 5.41-6.5 7.36s-6.16-4.22-3.46-9.82 6.06-5.54 6.06-5.54z" transform="translate(0 -60.95)"/><path class="cls-119" d="M81 122.54a3.9 3.9 0 0 0-1.6.45l-.19.35a7.13 7.13 0 0 1 5.26 8.21 7.36 7.36 0 0 0 .44-1 6.41 6.41 0 0 0-3.91-8.01z" transform="translate(0 -60.95)"/><path class="cls-120" d="M61.47 128.4c-.15 5.49 1.1 13.11-1.1 16.91s-9.78 7.07-8.2 14.2 11.13 6.3 15.16.44 6.23-12.28 3.22-20.65-8.98-14.78-9.08-10.9z" transform="translate(0 -60.95)"/><path class="cls-121" d="M70.55 139.3c-.3-.83-.63-1.64-1-2.42l-2.34-3a11.38 11.38 0 0 1-5.71 7.43 10.57 10.57 0 0 1-1.14 4 24.23 24.23 0 0 1-4.11 4.42s4.68 7.68 1 14.72a10.47 10.47 0 0 0 10-4.5c4.1-5.86 6.31-12.28 3.3-20.65z" transform="translate(0 -60.95)"/><path class="cls-122" d="M68.69 145a25.74 25.74 0 0 1-1.3-12.3c-2-2.31-4.64-7.11-.3-8.48s12.53-2.59 13.52-.35 0 10.79-1.86 14.38-4.75 1.11-4.75 1.11-1.12 3.6.87 6.08a65 65 0 0 1 4.84 8.06l-3.22 5-4.22-3.72-2.11-7.07z" transform="translate(0 -60.95)"/><path class="cls-123" d="M80.6 123.87c-.49-1.11-2.75-1.36-5.44-1.17a27.29 27.29 0 0 0-6.94 4.54 9.85 9.85 0 0 0-2.15 2.4 2.21 2.21 0 0 0-.27.83l.2.35a.55.55 0 0 0 .26 0c.6-.17 1-1 1.69-1.17 1-.35 2.29 0 3.37-.18a12.25 12.25 0 0 0 3.75-1.31 32.79 32.79 0 0 0 4.77-3.3 26.72 26.72 0 0 1-.55 10.54 6.3 6.3 0 0 1-2.34 4 3.54 3.54 0 0 1-1.8.53h-.25c1 .44 2.61.67 3.81-1.66 1.89-3.62 2.88-12.17 1.89-14.4z" transform="translate(0 -60.95)"/><path class="cls-124" d="M68 258.24c-2 2.68-1.85 3.69-2.49 5.36s-2.68 4.43-2.77 5.82-1.94 2-2.31 0a9.94 9.94 0 0 1 0-4.94c.46-1.89.37-3.37.83-4.48s2.64-1.57 2.8-4.89 3.94 3.13 3.94 3.13zm6.92-3.05c.74 3 1.75 6.74.55 9s-.74 3.42.09 3.79A26.84 26.84 0 0 1 79 270.7c1 .83 7.57.74 6.93 0a28.29 28.29 0 0 0-5-3.69 2.43 2.43 0 0 1-1.2-3c.37-1.48 1.35-6.43.63-9.82s-5.44 1-5.44 1z" transform="translate(0 -60.95)"/><path class="cls-125" d="M85.78 153.22c3.12.58 4.86 6.08 6.59 7.32l-5.49 3.2-1.88-4.32z" transform="translate(0 -60.95)"/><path class="cls-124" d="M87.9 150.86c-.19 1.74-1.9 4.44-2.9 8.56s3.49 5.87 4.44 3.28S91 152 91 152a8.74 8.74 0 0 0 2.8-2.64c.69-1.37 1.06-1.11-.42-2.8-.87-1-.83-1.62-1.89-2.44a.78.78 0 0 0-1.28.06L88.32 146c-.2-.18-.51 0-.69.25l-.56.66a1.82 1.82 0 0 0-.56 1.08c-.02 1.49 1.57 1.14 1.39 2.87z" transform="translate(0 -60.95)"/><path class="cls-126" d="M91.12 151.92a3.18 3.18 0 0 1-.29-.36.86.86 0 0 1-.14-.76 1.26 1.26 0 0 1-1.15-.61.51.51 0 0 0-.18-.22 2.73 2.73 0 0 0-.31-.06c-.32-.12-.14-.67-.41-.88a1.58 1.58 0 0 0-.49-.13.62.62 0 0 1-.37-.61 1.38 1.38 0 0 1 .28-.7c.31-.46 1.12-.89 1-1.51a1.23 1.23 0 0 0-.28-.51l-.44.43c-.2-.18-.51 0-.69.25l-.56.66a1.82 1.82 0 0 0-.56 1.08c0 1.49 1.57 1.14 1.38 2.87v.23a3.26 3.26 0 0 1 .59 1.06 5.3 5.3 0 0 1 0 2.33 59.34 59.34 0 0 1-1.26 6.44 3 3 0 0 0-.14 1.19 2.24 2.24 0 0 0 1 1.36 2.1 2.1 0 0 0 .51.28 1.78 1.78 0 0 0 .93-1C90.43 160.11 91 152 91 152z" transform="translate(0 -60.95)"/><path class="cls-127" d="M33.48 106a22.29 22.29 0 0 0-4.55-1c-.93 0-.93-.09-.93-.65s-.1-.51.41-.43a2.73 2.73 0 0 0 1 0s-1.49-1-1.1-1.33.66-.76 1-.08a3.15 3.15 0 0 0 2.09 1.14c.6.04 2.08 2.35 2.08 2.35z" transform="translate(0 -60.95)"/><path class="cls-125" d="M46.75 111.71c-2.79 3.31-3.14 13.06-4 16.49l6.25.69-.66-10.69z" transform="translate(0 -60.95)"/><path class="cls-128" d="M39.8 108.56s-3.7-.78-4.49-1.07a19.79 19.79 0 0 1-4.31-3.77c-.93-1.14-.85-1.35-.07-1.57s1.07.36 1.85 1.5a4.32 4.32 0 0 0 3.88 1.62 1.66 1.66 0 0 1 .07-.9 5 5 0 0 1-1.62-1.57c-.27-.71.73-.71 1.16-.36s2 1.78 3.49 1.85 2.35 1.78 3.13 3.63 5.41 7.83 5.41 7.83l-1.64 7.83s-3.06-4.77-3.92-8-.81-5.03-2.94-7.02z" transform="translate(0 -60.95)"/><path class="cls-129" d="M66.3 225.83L62 256a.55.55 0 0 0 .26.52l6.25 3.81a.56.56 0 0 0 .78-.2l1.66-2.83h11.51l.39-23.62s3.12-5.86 3.9-7.22-2-5.47-2-5.47a108.46 108.46 0 0 0-2.39-49.44s3.08 1.61 5.13 0 4.83-11 4.83-11a13.42 13.42 0 0 1-6.59-7.32L84 158.46s-2.2-6.27-2.93-9.34-5-3.37-5-3.37l-1.21-.31 1.21 5.51s-6.52-5.71-7-6.74-2.07-.81-2.07-.81l-20.25-31.69s-1.61 13-4 16.49c0 0 14.88 16.42 18.39 25.6s3.9 13.67 2.93 16.6-7.93 12.5-5.86 20.89c2.49 9.9 8.79 24.37 8.09 34.54z" transform="translate(0 -60.95)"/><path class="cls-119" d="M80.28 120.93c1.78 1.48.51 3.08-1.32 4.39s-8.33 4-9.59 3.29c-1.8-1.08-3.36 2.67-1.12 3.68a15.89 15.89 0 0 0-2.45 3.8c-.69 2.09-4.92-.67-4.34-7.7s10.62-14.27 18.82-7.46z" transform="translate(0 -60.95)"/><path class="cls-130" d="M62.49 258.65a1.44 1.44 0 0 0-1.68.23c-.82.74-3.14 2.88-3.32 3.2s.27 1 .64.64 1.87-1.78 1.87-1.78a7.79 7.79 0 0 1-.32 2.18c-.34 1.1-1 6.2-.34 7.43s2.17 1.82 2.86 1a2 2 0 0 0 .56-2.19s-1.74.23-2.19-1.09.59-4.87.73-6.28.36-3.3 1.19-3.34zm12.26 7.61c-.62.11-.64 2-.33 3.19a10.94 10.94 0 0 1 .32 2.49h.64v-2.84a6.3 6.3 0 0 1 2.23 1.6 1.89 1.89 0 0 0 1.59 1.24h7.65c.87 0 1.31-.34.32-1.24a5.82 5.82 0 0 0-2.21-.78 1.34 1.34 0 0 1-1.39 1c-1.17 0-3.4.18-4.1-.44s-4.84-3.56-4.72-4.22z" transform="translate(0 -60.95)"/><path class="cls-131" d="M68.12 143.45a4 4 0 0 1 .49 0 4.66 4.66 0 0 1 1.27.31 5.1 5.1 0 0 1 1.6 1 10.31 10.31 0 0 1 .69.77c.18.21.41.45.62.66s.44.42.67.6a3.75 3.75 0 0 0 .64.43l.11.05h.08a.09.09 0 0 0 .07 0 .54.54 0 0 0 .28-.34 4 4 0 0 0 .25-1.1 1.94 1.94 0 0 0 0-.47 1.2 1.2 0 0 1 .31.4 2.66 2.66 0 0 1 .34 1.33 1.49 1.49 0 0 1-.44 1.09 1.29 1.29 0 0 1-.75.35 1.46 1.46 0 0 1-.38 0 2 2 0 0 1-.35-.07 3.75 3.75 0 0 1-1.06-.54 6.17 6.17 0 0 1-.85-.72 6.88 6.88 0 0 1-.72-.85l-.52-.77a7.64 7.64 0 0 0-1.06-1.18c-.36-.32-.69-.58-.93-.76z" transform="translate(0 -60.95)"/><path class="cls-132" d="M87.82 146.5a.47.47 0 0 0-.15.41.26.26 0 0 0 .17.24 1.29 1.29 0 0 0 .59 0 1.22 1.22 0 0 0 .78-.43c.21-.22.53-.46.74-.68a2.84 2.84 0 0 0 .91-1.06.33.33 0 0 0 0-.16.38.38 0 0 0-.07-.16 1 1 0 0 0-.65-.57 1.94 1.94 0 0 0-1.47 1.12 7.73 7.73 0 0 1-.85 1.29z" transform="translate(0 -60.95)"/><path class="cls-133" d="M79.17 132.92c-.11 1.06-.23 1.2.31 1.38s1.54.32 1.64-.73-.18-2.73-.72-2.91-1.12 1.2-1.23 2.26z" transform="translate(0 -60.95)"/><path class="cls-134" d="M72.94 135.13c.79 2 2.22 3.45 3.84 2.56s2.42-2.79 1.06-3.58c-1.72-1-2.45-1.8-3.79-1.84-.94-.02-1.64 1.49-1.11 2.86z" transform="translate(0 -60.95)"/><path class="cls-131" d="M77.84 134.12c-1.72-1-2.45-1.8-3.79-1.84a1 1 0 0 0-.73.35 8.36 8.36 0 0 0 2.46 1.57 19.43 19.43 0 0 1 2.66 1.63 1.35 1.35 0 0 0-.6-1.71z" transform="translate(0 -60.95)"/><path class="cls-129" d="M76.87 128.19a1.37 1.37 0 0 1 .25-.16 1.07 1.07 0 0 1 .29-.1 1.49 1.49 0 0 1 .37 0 2.16 2.16 0 0 1 .57.23 1.32 1.32 0 0 1 .24.18 1.28 1.28 0 0 1-.29 0 1.91 1.91 0 0 1-.29 0h-.31a1.13 1.13 0 0 0-.27-.06h-.27a1.27 1.27 0 0 1-.29-.09zm-.87 2.19s.12-.26.34-.64a2.11 2.11 0 0 1 .53-.59 1.11 1.11 0 0 1 .53-.2 1.27 1.27 0 0 1 .55.05.86.86 0 0 1 .5.45 1.11 1.11 0 0 1 .07.55 4.61 4.61 0 0 1-.14.73c-.12.41-.19.69-.19.69a2.52 2.52 0 0 1-.18-.71l-.11-.71a.48.48 0 0 0-.1-.23.32.32 0 0 0-.13-.06 1 1 0 0 0-.27 0 .42.42 0 0 0-.23 0 4.29 4.29 0 0 0-.56.32 2.88 2.88 0 0 1-.61.35z" transform="translate(0 -60.95)"/><path class="cls-135" d="M74.36 144.6a7.77 7.77 0 0 1-.35-5.19l-.28-.28c-1.06-1.07-3.29-4.33-4.94-4a7 7 0 0 0 1.08 4.42c.91 1.54 2.59 4.07 4.49 5.05z" transform="translate(0 -60.95)"/><path class="cls-136" d="M87.27 166c-1.1-.07-2.29.51-3.46.46a14.47 14.47 0 0 1-4.15-.9c-2.52-.89-4.95-2.14-7.6-2.47a.73.73 0 0 0-.44 0 .76.76 0 0 0-.29.44c-2.08 5.73-4.17 11.53-4.88 17.59a10 10 0 0 0 .33 4.82c.64 1.62 2 2.85 3.1 4.17a20.24 20.24 0 0 1 4.3 8.53c.37 1.62.55 3.29 1.08 4.86a22.51 22.51 0 0 0 2.27 4.5l6.56 10.74c.27.44.56.9.87 1.34a108.52 108.52 0 0 0-2.54-48.59s3.07 1.61 5.13 0a11.83 11.83 0 0 0 2.37-4 4.16 4.16 0 0 0-2.65-1.49z" transform="translate(0 -60.95)"/><path class="cls-137" d="M85.78 153.22L84 158.46s-2.2-6.27-2.93-9.34c-.53-2.23-2.9-3-4.17-3.25.1.88 1.1 2.15 1.45 2.81a108.08 108.08 0 0 1 5.88 13.57c.62 1.75 1.17 3.77.23 5.37-.65 1.1-2 1.92-2 3.2a2.07 2.07 0 0 0 .2.84c.82.35 3.16 1.17 4.83-.14 2.05-1.61 4.83-11 4.83-11a13.42 13.42 0 0 1-6.54-7.3z" transform="translate(0 -60.95)"/><path class="cls-138" d="M46.08 116.26c.25.29.5.59.75.93a46.89 46.89 0 0 1 3 5.31l5.81 10.45c3.42 6.15 6.87 12.38 8.72 19.16.9 3.31 1.46 6.83 3.38 9.67 1.69-5.65.43-11.71-.84-17.47l-.41-1.83-19.74-30.77s-.24 1.96-.67 4.55z" transform="translate(0 -60.95)"/><path class="cls-139" d="M70.94 257.28h11.52l.39-23.62.72-1.35c-2.11 1.91-3.41 4.6-4.63 7.2l-7.26 15.55a7.55 7.55 0 0 0-.76 2.25z" transform="translate(0 -60.95)"/><path class="cls-140" d="M76.51 222.31c-1.76-12.07-14.69-20.64-15.14-32.83-.14-3.74 1-7.52.23-11.19a8.69 8.69 0 0 0-2 1.54c-1.39 3.57-2.32 7.64-1.38 11.47 2.45 9.9 6.88 26.79 6.17 37L62 256.32l.26.16c3.65-3.9 6.41-8.7 8.9-13.48 3.29-6.44 6.4-13.52 5.35-20.69z" transform="translate(0 -60.95)"/><path class="cls-141" d="M90.38 152.57a3.54 3.54 0 0 0-1-1.35.69.69 0 0 0-.25-.16.66.66 0 0 0-.44.08 3.4 3.4 0 0 0-1.56 1.44.81.81 0 0 0 .1 1 .44.44 0 0 0 .23.18.41.41 0 0 0 .39-.21 1.26 1.26 0 0 1 .48-.41 2.31 2.31 0 0 1 .66-.23c.36.88-.71 2.41 0 2.93a10.45 10.45 0 0 0 1.35-1.22 4.2 4.2 0 0 0 .04-2.05z" transform="translate(0 -60.95)"/><g id="_Group_" data-name="&lt;Group&gt;"><path id="_Path_" data-name="&lt;Path&gt;" class="cls-142" d="M48.86 83.47l7.14 4.7c1.39.83 5.14-2.25 7.72-6.17s4-8.58 2.6-9.51l-7.13-4.7z" transform="translate(0 -60.95)"/><path class="cls-143" d="M61.37 77c.36-1.56.73-3.12 1.15-4.66a14.09 14.09 0 0 1 .67-1.84l-4-2.66-10.33 15.63 7.14 4.7c1.07.68 3.53-1 5.77-3.57a12.43 12.43 0 0 1-.77-2.26 12.23 12.23 0 0 1 .37-5.34z" transform="translate(0 -60.95)"/><path id="_Path_2" data-name="&lt;Path&gt;" class="cls-144" d="M63.01.01l-13.1 13.6-5.14 15.91.48.31L59.3 16.49 63.49.32l-.48-.31z"/><path id="_Path_3" data-name="&lt;Path&gt;" class="cls-142" d="M44.79 29.48l5.13-15.89L63.01 0l-4.17 16.16-14.05 13.32z"/><ellipse id="_Path_4" data-name="&lt;Path&gt;" class="cls-144" cx="54.1" cy="75.82" rx="2.65" ry=".74" transform="rotate(-56.57 -2.532 45.345)"/><path id="_Path_5" data-name="&lt;Path&gt;" class="cls-145" d="M54.1 75.82c-2.58 1.86-4 5.16-4.83 8.21a8.23 8.23 0 0 0-.43 4.07 1.21 1.21 0 0 0 .39.73 1.8 1.8 0 0 0 1.34.06c.74-.11 2.19-.07 2.41.86a1.36 1.36 0 0 1-.17.95 4 4 0 0 1-.61.77 6.5 6.5 0 0 0-1 1.13c-.19.35-.36.74-.52 1.11a4.13 4.13 0 0 0-.27 3.13" transform="translate(0 -60.95)"/><g id="_Group_2" data-name="&lt;Group&gt;"><path id="_Path_6" data-name="&lt;Path&gt;" class="cls-146" d="M53 101.31a.26.26 0 0 1-.17.31l-2.21.55a.26.26 0 0 1-.3-.19l-.45-5.14a.25.25 0 0 1 .18-.3l.63-.16a.25.25 0 0 1 .3.18z" transform="translate(0 -60.95)"/><path id="_Path_7" data-name="&lt;Path&gt;" class="cls-147" d="M50.71 96a.12.12 0 0 1-.08.14l-.63.21a.12.12 0 0 1-.14-.08.12.12 0 0 1 .08-.14l.63-.13a.12.12 0 0 1 .14.08z" transform="translate(0 -60.95)"/><path id="_Path_8" data-name="&lt;Path&gt;" class="cls-147" d="M50.77 96.26a.12.12 0 0 1-.08.14l-.69.17a.12.12 0 0 1-.14-.08.12.12 0 0 1 .14-.14l.67-.17a.12.12 0 0 1 .14.08z" transform="translate(0 -60.95)"/><path id="_Path_9" data-name="&lt;Path&gt;" class="cls-147" d="M50.66 95.81a.12.12 0 0 1-.08.14l-.67.17a.12.12 0 0 1-.15-.12.12.12 0 0 1 .08-.14l.67-.17a.12.12 0 0 1 .14.08z" transform="translate(0 -60.95)"/></g></g><path class="cls-148" d="M270.58 244.71c-2.57-1.06-4.55-.26-4.55 1.78s2.9 1.32 4.55-.92" transform="translate(0 -60.95)"/><path class="cls-149" d="M272.51 250.16c-2.55-.76-4-4.16-1.87-8.06s5.52-2.46 6.28-4.07 1.36-3 3.22-1.7 2.12 5.6.85 9.59-4 3.56-3.48 4.84 1.78 3.13 1 6c-.68 2.57-1.87 3.73-.08 4.41a2.31 2.31 0 0 1 .93 3.53c-.68.46-.34-1.07-1.61-1.49s-3.14-1.78-3.22-3.22a3.66 3.66 0 0 0 1.44 4.38c2.55 1.9 2.89 4 2.29 5.65a2.28 2.28 0 0 1 1.87.59c.59.75.76 1.33 0 1.33h-18.06c-3 0-7-3.88-8.06-10.5s.68-7.89-1.87-10.78c0 0 1.19 4.24-2.55 5.52s-11.88-.08-10.69-9.84 15.44-13 20.37-5.08-.25 18.5 1.87 23.63 4.33 4.7 4.33 4.7-3.31-3.65-1.1-10.82a12.42 12.42 0 0 1 8.14-8.61z" transform="translate(0 -60.95)"/><path class="cls-150" d="M280.15 236.32c-1.43-1-2.11-.4-2.7.64a3.08 3.08 0 0 1 1.64 1.81 6.3 6.3 0 0 1 .6 1.53 4.1 4.1 0 0 1-.07 1.67 7.29 7.29 0 0 1-1.73 3.89c-.73.71-1.7 1.12-2.44 1.83a4.15 4.15 0 0 0-1.22 2.36.87.87 0 0 0 0 .44 1.08 1.08 0 0 0 .43.44 5.5 5.5 0 0 1 2.12 5.43c-.14.68-.41 1.32-.53 2a2.6 2.6 0 0 0 .3 2c.79 1.1 2.73 1.12 3.17 2.4a3 3 0 0 1 .12.67 2.27 2.27 0 0 0-1.41-2.25c-1.78-.68-.59-1.84.08-4.41.76-2.89-.51-4.75-1-6s2.21-.85 3.48-4.84 1.01-8.33-.84-9.61z" transform="translate(0 -60.95)"/><path class="cls-51" d="M276.92 238c-.82-1.23-.42-3 1.27-2.89s3.21 1.13 2.71 2-3.3 1.89-3.98.89z" transform="translate(0 -60.95)"/><path class="cls-149" d="M271.38 246.36c-2.88-.8-5.84 1.52-5.28 4.24s3.84-.16 5.28-2.88 0-1.36 0-1.36z" transform="translate(0 -60.95)"/><path class="cls-151" d="M266.91 250.09c-1-1.36 1.53-3.52 3-3.33.29 1.44-1.63 5.14-3 3.33z" transform="translate(0 -60.95)"/><ellipse class="cls-51" cx="274.91" cy="181.22" rx=".72" ry=".44"/><path class="cls-152" d="M272.5 265.09c4.24 2.8 2 5.87 2 5.87a23.28 23.28 0 0 1 3.78-.93c.59-1.69.25-3.74-2.29-5.65a3.66 3.66 0 0 1-1.44-4.38c-1.32-1.33-1.24-4.12-1.24-4.12s-5.05 6.41-.81 9.21z" transform="translate(0 -60.95)"/><path class="cls-153" d="M256.8 257.77c2.3-8.23-2.46-15.53-9.81-13.29s-4.59 12.11.68 12.08a7.88 7.88 0 0 0 1.93-.37c3.73-1.27 2.55-5.52 2.55-5.52 2.55 2.89.85 4.16 1.87 10.78.82 5.36 3.65 8.92 6.27 10.09a14.43 14.43 0 0 1-3.49-13.77z" transform="translate(0 -60.95)"/><path class="cls-154" d="M264.36 258.77c-2.21 7.17 1.1 10.82 1.1 10.82a23.3 23.3 0 0 1 2.3.68c-6.79-13.54 4.75-20.12 4.75-20.12a12.42 12.42 0 0 0-8.15 8.62z" transform="translate(0 -60.95)"/><path class="cls-155" d="M252.14 250.67c-3.2-2.92-6.18-1-5.84 1.1s2.91 1.38 2.91 1.38-2.49-.63-1.15-1.58 4.08-.9 4.08-.9z" transform="translate(0 -60.95)"/><path class="cls-156" d="M286.34 258.48c-.91.91-4.37 3.19-4.53 6.75s1 4.21.89 5.36a2.08 2.08 0 0 1 1.65.57c.78.72 4.11.92 6.55-.36s4.47-4.47 4.47-4.47z" transform="translate(0 -60.95)"/><path class="cls-157" d="M286.34 258.48c-.15.15-.38.35-.65.58.47 1.76 2.51 3.85 3.18 4.82a2.83 2.83 0 0 1 .63 1.43 2.86 2.86 0 0 1-.89 1.83 7.93 7.93 0 0 1-3.09 2.6c-.68.25-1.41.31-2.11.52a3.55 3.55 0 0 0-.72.3 2.08 2.08 0 0 1 1.65.57c.78.72 4.11.92 6.55-.36s4.47-4.47 4.47-4.47z" transform="translate(0 -60.95)"/><path class="cls-158" d="M292.27 260.31a4 4 0 0 1 2.84-1.47c.39.07.72.85.26 1s-2.05.75-2.35 1.5-.75-1.03-.75-1.03z" transform="translate(0 -60.95)"/><path class="cls-159" d="M288.33 256a2.17 2.17 0 0 0-2.51.81c-.62.68-.52 1.57.36 2.38s7.38 7.65 8.32 8.33 1.47.6 2.41-.21a1.68 1.68 0 0 0 .13-2.6c-.73-.71-7.64-8.25-8.71-8.71z" transform="translate(0 -60.95)"/><path class="cls-160" d="M297 264.74c-.26-.28-1.31-1.43-2.61-2.8a5.41 5.41 0 0 0 0 .76 1.59 1.59 0 0 1-1.77 1.39 4.14 4.14 0 0 1-2.22-1.13 12.94 12.94 0 0 1-3.13-3.39c-.28-.48-1.1-1.73-1.81-1.26a2.47 2.47 0 0 0 .65.91c.88.82 7.38 7.65 8.32 8.33s1.47.6 2.41-.21a1.68 1.68 0 0 0 .16-2.6z" transform="translate(0 -60.95)"/></svg>