<svg xmlns="http://www.w3.org/2000/svg" xmlns:xlink="http://www.w3.org/1999/xlink" viewBox="0 0 388.83 266.21"><defs><style>.cls-1{isolation:isolate}.cls-2{fill:#fff}.cls-3{fill:#6c3129}.cls-4{fill:#b4663b}.cls-5{fill:#ef6427}.cls-6{fill:#981a13}.cls-7{fill:url(#linear-gradient)}.cls-8{fill:url(#linear-gradient-2)}.cls-9{fill:#b9a3a4}.cls-10{fill:url(#linear-gradient-3)}.cls-11{fill:url(#linear-gradient-4)}.cls-12{fill:url(#linear-gradient-5)}.cls-13{fill:#e7e7e7}.cls-13,.cls-35{mix-blend-mode:multiply}.cls-14{fill:url(#linear-gradient-6)}.cls-15{fill:#ec3f00}.cls-16{fill:url(#linear-gradient-7)}.cls-17{fill:#8e3129}.cls-18{fill:#181838}.cls-19{fill:#4e273b}.cls-20{fill:url(#linear-gradient-8)}.cls-21{fill:#696576}.cls-22{fill:url(#linear-gradient-9)}.cls-23{fill:url(#linear-gradient-10)}.cls-24{fill:url(#linear-gradient-11)}.cls-25{fill:url(#linear-gradient-12)}.cls-26{fill:#282828;mix-blend-mode:screen}.cls-27{fill:#271b3f}.cls-28{fill:#241b40}.cls-29{fill:#323666}.cls-30{fill:url(#linear-gradient-13)}.cls-31{fill:#7f989c}.cls-32{fill:url(#linear-gradient-14)}.cls-33{fill:#a5b7ac}.cls-34{fill:url(#linear-gradient-15)}.cls-35{fill:#d6d6d6}.cls-36{fill:url(#linear-gradient-16)}.cls-37{fill:#517378}.cls-38{fill:#57787d}.cls-39{fill:#5d7d82}.cls-40{fill:url(#linear-gradient-17)}.cls-41{fill:url(#linear-gradient-18)}.cls-42{fill:#e8e8e8}</style><linearGradient id="linear-gradient" x1="-121.99" y1="-79.18" x2="-107.63" y2="-79.18" gradientTransform="rotate(14 -585.19 1311.743)" gradientUnits="userSpaceOnUse"><stop offset="0" stop-color="#8e0800"/><stop offset="1" stop-color="#770800"/></linearGradient><linearGradient id="linear-gradient-2" x1="-108.94" y1="-78.1" x2="-129.29" y2="-90.09" gradientTransform="rotate(14 -585.19 1311.743)" gradientUnits="userSpaceOnUse"><stop offset="0" stop-color="#ef6427"/><stop offset="1" stop-color="#af4800"/></linearGradient><linearGradient id="linear-gradient-3" x1="-169.4" y1="-126.6" x2="-146.66" y2="-108.7" gradientTransform="rotate(14 -585.19 1311.743)" gradientUnits="userSpaceOnUse"><stop offset="0" stop-color="#b9a3a4"/><stop offset="1" stop-color="#9b7c7d"/></linearGradient><linearGradient id="linear-gradient-4" x1="-156.95" y1="-84.28" x2="-135.39" y2="-84.28" xlink:href="#linear-gradient"/><linearGradient id="linear-gradient-5" x1="-164.75" y1="-25.66" x2="-147.85" y2="-25.66" xlink:href="#linear-gradient"/><linearGradient id="linear-gradient-6" x1="-144.54" y1="-67.91" x2="-123.98" y2="-50.62" xlink:href="#linear-gradient"/><linearGradient id="linear-gradient-7" x1="-122.04" y1="-96.1" x2="-114.96" y2="-96.1" gradientTransform="matrix(.97 .23 -.23 .97 288.12 173.39)" gradientUnits="userSpaceOnUse"><stop offset="0" stop-color="#7f989c"/><stop offset="1" stop-color="#a5b7ac"/></linearGradient><linearGradient id="linear-gradient-8" x1="-325.76" y1="-30.03" x2="-301.57" y2="-52.03" gradientTransform="rotate(16.14 -734.92 1428.48)" gradientUnits="userSpaceOnUse"><stop offset="0" stop-color="#2b1232"/><stop offset="1" stop-color="#3c1634"/></linearGradient><linearGradient id="linear-gradient-9" x1="-324.06" y1="-32.53" x2="-335.96" y2="-42.45" gradientTransform="rotate(16.14 -734.92 1428.48)" gradientUnits="userSpaceOnUse"><stop offset="0" stop-color="#443f54"/><stop offset="1" stop-color="#696576"/></linearGradient><linearGradient id="linear-gradient-10" x1="-328.66" y1="-8.55" x2="-313.49" y2="-8.55" xlink:href="#linear-gradient-8"/><linearGradient id="linear-gradient-11" x1="-342.5" y1="-17.07" x2="-326.19" y2="-17.07" xlink:href="#linear-gradient-8"/><linearGradient id="linear-gradient-12" x1="-312.96" y1="-6.26" x2="-305.4" y2="-6.26" xlink:href="#linear-gradient-8"/><linearGradient id="linear-gradient-13" x1="152.65" y1="-16.01" x2="195.31" y2="-16.01" gradientTransform="rotate(7.58 -610.844 1374.78)" gradientUnits="userSpaceOnUse"><stop offset="0" stop-color="#2c2051"/><stop offset="1" stop-color="#2e295f"/></linearGradient><linearGradient id="linear-gradient-14" x1="132.79" y1="-36.97" x2="152.85" y2="-36.97" gradientTransform="rotate(7.58 -610.844 1374.78)" xlink:href="#linear-gradient-7"/><linearGradient id="linear-gradient-15" x1="148.71" y1="15.13" x2="159.68" y2="70.93" xlink:href="#linear-gradient-13"/><linearGradient id="linear-gradient-16" x1="77.14" y1="48.42" x2="118.03" y2="9.93" xlink:href="#linear-gradient-13"/><linearGradient id="linear-gradient-17" x1="139.76" y1="-22.94" x2="158.54" y2="4.02" gradientTransform="rotate(7.58 -610.844 1374.78)" xlink:href="#linear-gradient-7"/><linearGradient id="linear-gradient-18" x1="144.96" y1="-28.29" x2="100.73" y2="-42.22" gradientTransform="rotate(7.58 -610.844 1374.78)" xlink:href="#linear-gradient-7"/></defs><title>contribute</title><g class="cls-1"><g id="Layer_1" data-name="Layer 1"><path class="cls-2" d="M57.72 38.77c-22.11 11.82-36.46 34.52-45.24 58-5.6 15-9.36 30.81-9.35 46.81 0 46 32.67 88.34 74.68 107.19 31.42 14.1 67 16.32 100.65 10.53 12.87-2.21 27.8-4.06 40.19-7.82 16-4.85 30.11-17.28 45.25-24.34a78 78 0 0 1 49.5-6.14c19.64 3.83 35.64 15.78 56.5 14 13.39-1.15 19.91-14.31 21.84-26.89 1-6.83-1.68-14.76-8-17.53-5.07-2.21-10.9-.67-16.42-.92-20.47-.92-25.84-20.73-28.27-37-2.18-14.64-4.79-31.09-13.58-41.39s-23.35-13.3-36.68-12.1-26 6-39.06 9.06c-36.73 8.66-78.86.92-104.51-29.4-11.13-13.15-13.83-32-28.49-41.2-17.4-10.93-41.28-10.34-59.01-.86z" transform="translate(-3.13 -3.29)"/><path class="cls-2" d="M179.69 4.65c-6.08 1.61-12 4.4-16.37 8.93-5.39 5.59-8 13.42-8.53 21.17A48.72 48.72 0 0 0 174.66 77c22.64 16.2 54.71-.3 60.61-26.61 6.97-31.18-28.62-52.87-55.58-45.74z" transform="translate(-3.13 -3.29)"/><path class="cls-3" d="M153.54 73.13c-1.35-.36-7.16.92-8.51 4.14s-.4 4.29.8 2.62 3.18-3.56 5.51-2.82 3.87.24 4.55-.81-2.35-3.13-2.35-3.13zm35.92 57.69c.47 1.07.19 4.4.51 5.94s-.4 2.41-1.27 3.81-5.69 7.62-6.18 7.52-1.43-2.55-1-4.73 2.23-4.73 2.39-6.69a25.43 25.43 0 0 0-.18-4.54zm-37.3 7.11c-.55.56-3.44 2.68-4.4 4.42s-1.85 1.55-3 1.59-9.53 1.89-10.36 2.05-.88-.64 0-1.94 5.31-5 8-5.49 4.79-4 4.79-4z" transform="translate(-3.13 -3.29)"/><path class="cls-4" d="M153.9 71.72c-.71.63-1.21.95-.91 1.66a25.69 25.69 0 0 0 2.32 3.81.77.77 0 0 0 1.32-.07 1.9 1.9 0 0 1 .88-.64zM190.65 129l-.19.88a3.69 3.69 0 0 0-.06 1.21c.09.51 0 .78-1.27 1.12a17.81 17.81 0 0 1-4.68.83c-1.32-.08-1.46-.29-1.72-.9a12.77 12.77 0 0 1-.46-2.35zm-36.8 8.06c-.59 1.09-1.18 1.82-2.25 1.44a15.35 15.35 0 0 1-4.31-2.84c-.66-.81-.78-1.25-.49-1.62s1-1.67 1-1.67z" transform="translate(-3.13 -3.29)"/><path class="cls-3" d="M222.06 93.94a10.38 10.38 0 0 0 2.94 4.31c1.5 1.1 3.59 1.94 2 2.42s-4.67-.82-6.16-2.38a13.7 13.7 0 0 1-2.45-4.29z" transform="translate(-3.13 -3.29)"/><path class="cls-4" d="M222.69 92c.24 1.2.37 2.36-.43 2.66a12.7 12.7 0 0 1-3.11.25 1 1 0 0 1-1.19-1.1 19.05 19.05 0 0 0-.43-2.17z" transform="translate(-3.13 -3.29)"/><path class="cls-5" d="M202 40.42c4.2 1 8.78 1.47 10.42 5.44s-3.89 9.18-4.74 9.32 4.65.49 4.65.49 4.44-4.54 3.23-9.32-6.62-7.94-13.17-8.72" transform="translate(-3.13 -3.29)"/><path class="cls-6" d="M214.67 67c3 1.32 7.13 4.84 7.15 7s1.86 14.65 1.62 16.54-.69 2.35-2.38 2.82A3.73 3.73 0 0 1 216.9 92c-.76-1.19-2.23-6.52-2.26-10.28s.03-14.72.03-14.72z" transform="translate(-3.13 -3.29)"/><path class="cls-7" d="M221.82 74c0-2.12-4.13-5.64-7.15-7 0 0-.07 10.94 0 14.72a22.05 22.05 0 0 0 .23 2.81 1.46 1.46 0 0 1 1.11-.38c2.49.34 1.86 4.81 1.93 6.44a7.37 7.37 0 0 0 .59 2.64 4.2 4.2 0 0 0 2.55.08c1.69-.47 2.14-.93 2.38-2.82s-1.62-14.43-1.64-16.49z" transform="translate(-3.13 -3.29)"/><path class="cls-5" d="M202.81 50.29c4.15-1 10.56 1.67 11.11 4.38s3.07 16.07 3 22.39 0 5.49-1.94 6.19-7 3.25-7.17 2.1-5-35.06-5-35.06z" transform="translate(-3.13 -3.29)"/><path class="cls-8" d="M213.92 54.69a4.47 4.47 0 0 0-1.61-.87 5.89 5.89 0 0 0-6 1.4 6.27 6.27 0 0 0-1.2 6.23l-.62.34c1.43 10 3.27 22.86 3.37 23.57.14 1.14 5.14-1.41 7.14-2.11s1.89.06 1.94-6.19-2.46-19.65-3.02-22.37z" transform="translate(-3.13 -3.29)"/><path class="cls-9" d="M200.49 50.31c2.61-2.74 3.46-6.87 3.72-10.92a22.76 22.76 0 0 0-.28-6 14.68 14.68 0 0 0-3.53-6.8 16.59 16.59 0 0 0-6.64-4.57 14.87 14.87 0 0 0-10.53-.21c-7.48 2.57-12.13 12.3-8.66 20.71a22.63 22.63 0 0 0 5.62 7.55 24.44 24.44 0 0 0 5.62 4.13" transform="translate(-3.13 -3.29)"/><path class="cls-10" d="M181.91 50.81a3.84 3.84 0 0 0-.33.54 21.74 21.74 0 0 0 4.24 2.89l14.68-3.92c2.61-2.74 3.46-6.87 3.72-10.92a22.76 22.76 0 0 0-.28-6 14.68 14.68 0 0 0-3.53-6.8c-.24-.26-.48-.51-.71-.75-3.38-1.42-7-2.19-10.26-1.41a8.33 8.33 0 0 0-6.6 8.93c.3 2.45 1.67 4.74 2.65 7.07s1.54 5 .31 6.9c-.98 1.48-2.8 2.08-3.89 3.47z" transform="translate(-3.13 -3.29)"/><path class="cls-4" d="M197.41 49.53c-5.09 1.54-17.25 2.59-17.61 4s.67 1.22 1.87 1.53 15.61-2.29 15.61-2.29z" transform="translate(-3.13 -3.29)"/><path class="cls-6" d="M202.81 50.29c3.35 2.65 5.66 16.42 6.28 24.33s1.64 14.33-.64 19.48-6.2 10.29-12.3 10.71-7.44-.91-6.82 3.37 3.81 15.32 2.9 18.89-3 3.31-6.56 3.74-4.23-.16-5.6-2.24-4.93-11.07-4.93-11.07l-12.56 13.82c-4.24 4.66-7.1 7-9.34 6.22s-5.89-3.43-6.06-4.57 1-4 6.84-12.8 7.65-11.84 11.12-15.1 6.44-6.35 6.44-6.35a31.81 31.81 0 0 1-.89-6.06c.12-1.76-.06-1.71 1.43-2.06s13.21-3.55 13.21-3.55-5.86-26-3.66-32c0-.05 14.33-4.12 21.14-4.76z" transform="translate(-3.13 -3.29)"/><path class="cls-11" d="M203.91 53.13l-2.74-2.63c-7.21 1-19.5 4.53-19.5 4.53-2.21 6 3.66 32 3.66 32l-.56.15a2.75 2.75 0 0 0 1.5-.62 4 4 0 0 0 1-1.72 62 62 0 0 1 3.2-8.25c2.13-4 5.41-7.28 8.21-10.86s5.21-7.73 5.23-12.6z" transform="translate(-3.13 -3.29)"/><path class="cls-12" d="M162.57 131.32l12.56-13.82c0-.31.08-.63.1-.95a17.65 17.65 0 0 0-.7-4.84c-.43-1.81-.76-3.75-1.19-5.68-1.21 1.23-2.23 2.7-3.27 3.87l-6.52 7.36a42.39 42.39 0 0 0-5.57 7.29c-1.59 2.86-2.47 6-4 8.93-.65 1.25-1.42 2.66-.85 4 2.35.87 5.21-1.48 9.44-6.16z" transform="translate(-3.13 -3.29)"/><path class="cls-13" d="M174.54 111.73c-.9-3.75-1.35-8.06-3.15-11.69a8.08 8.08 0 0 0-.41-.7c-1 1.06-3.3 3.35-5.84 5.73-3.47 3.26-5.3 6.3-11.12 15.1s-7 11.65-6.84 12.8 3.79 3.75 6.06 4.57 5.11-1.56 9.34-6.22l12.56-13.82c0-.31.08-.63.1-.95a17.65 17.65 0 0 0-.7-4.82z" transform="translate(-3.13 -3.29)"/><path class="cls-6" d="M202.53 48.89c3.69 3.18 1.23 12.31-9.86 18.66-11.43 6.55-24 7.87-29.92 8.9s-5.89 1.22-6.87-.18-2.4-3.63-2-4.55 13.56-6.6 19.72-8.82 13.75-7.69 19.71-11.53 7.63-3.85 9.22-2.48z" transform="translate(-3.13 -3.29)"/><path class="cls-14" d="M196.15 104.82c6.1-.42 10-5.57 12.3-10.71s1.25-11.68.64-19.48a96.49 96.49 0 0 0-3.16-18.11A109 109 0 0 1 203.61 90a3.51 3.51 0 0 1-.66 1.58 3.33 3.33 0 0 1-1.61.84 22.75 22.75 0 0 1-8 .8 47.54 47.54 0 0 0-5.59-.42 6.17 6.17 0 0 0-4.8 2.1c-1.49 2-.77 5-.13 7.53a75.74 75.74 0 0 1 2.29 21.05c-.06 1.59-.23 3.4-1.77 4.26-1.31.74-2.32.06-3.64.13.15.28.29.53.41.71 1.36 2.08 2.06 2.67 5.6 2.24s5.67-.19 6.56-3.74-2.3-14.64-2.9-18.89.63-2.95 6.78-3.37z" transform="translate(-3.13 -3.29)"/><path class="cls-5" d="M189.32 68.36A9.52 9.52 0 0 0 187 67a5.26 5.26 0 0 0-1.75-.59 3.62 3.62 0 0 0-1.93.48 6.65 6.65 0 0 0-2.88 2.67 5.2 5.2 0 0 0-.56 3.35 63.22 63.22 0 0 0 10-3.9 4.21 4.21 0 0 0-.56-.65z" transform="translate(-3.13 -3.29)"/><path class="cls-15" d="M221.82 74c0-1-.86-2.2-2.06-3.4a5.45 5.45 0 0 0-1 2.91 4.35 4.35 0 0 0 1.54 3.43 3.23 3.23 0 0 0 1.83.68c-.13-1.74-.3-3.1-.31-3.62z" transform="translate(-3.13 -3.29)"/><path class="cls-5" d="M170.69 92.66a20.69 20.69 0 0 0 .51 4.25c1-.37 2-.76 3-1.18a4.2 4.2 0 0 0 1.87-1.26 3.94 3.94 0 0 0 .55-1.88 25.38 25.38 0 0 0 .13-3.22c-2.21.59-4.12 1.1-4.66 1.23-1.46.34-1.28.3-1.4 2.06zm-9.94 17.47a24.38 24.38 0 0 0 3.52-.81 7.17 7.17 0 0 0 3.45-2 6.66 6.66 0 0 0 1.08-2.15 23.3 23.3 0 0 0 1-4.7c-1.19 1.2-2.88 2.86-4.71 4.59a33.31 33.31 0 0 0-4.34 5.07z" transform="translate(-3.13 -3.29)"/><path class="cls-16" d="M197.61 53.63a.88.88 0 0 0 .79-.47.93.93 0 0 0-.15-.59 13.9 13.9 0 0 0-2-2.95c-.83.46-1.79 1-2.89 1.75l-2.12 1.38c1.39 1.08 3.78 2.71 3.43 3.12a5.87 5.87 0 0 1 2.94-2.24z" transform="translate(-3.13 -3.29)"/><path class="cls-17" d="M95.84 126.74a7.25 7.25 0 0 1 3-2.38c1.32-.42 3-.5 2-1.27s-3.54-.6-4.94.16a9.56 9.56 0 0 0-2.62 2.47z" transform="translate(-3.13 -3.29)"/><path class="cls-4" d="M94.71 127.94c.81-.42 1.55-.89 1.37-1.53a9.77 9.77 0 0 0-1.22-2 .7.7 0 0 0-1.16-.2 13.76 13.76 0 0 1-1.45.77z" transform="translate(-3.13 -3.29)"/><path class="cls-17" d="M40.52 189.21c-.86.22-3.72 2.28-4.82 2.82s-.42 1.9-.23 3.19 2.58 7 2.94 7.1 1.68-1.48 2-3.22-.36-2.59.08-4.08a2.29 2.29 0 0 1 1.55-1.72z" transform="translate(-3.13 -3.29)"/><path class="cls-4" d="M40.73 188.11l-.45.55a3.1 3.1 0 0 1-.7.63c-.35.2-.46.41-.13 1.31a12.66 12.66 0 0 0 1.55 3.16c.62.74.8.71 1.28.56a10.23 10.23 0 0 0 1.6-.9z" transform="translate(-3.13 -3.29)"/><path class="cls-17" d="M67.72 176.54c-.46.58-1.32 3.4-1.77 4.31s.68 1.47 1.46 2.23 5.27 3.35 5.54 3.22.36-1.83-.3-3.15-1.54-1.54-2-2.75a1.91 1.91 0 0 1 .16-1.92z" transform="translate(-3.13 -3.29)"/><path class="cls-4" d="M67.31 175.71v.59a2.58 2.58 0 0 1-.15.77c-.13.31-.1.5.58.93a10.56 10.56 0 0 0 2.61 1.33c.78.18.89.06 1.13-.28a8.54 8.54 0 0 0 .61-1.4z" transform="translate(-3.13 -3.29)"/><path class="cls-18" d="M46.82 139.63c-1.16-2.5-2.76-5.05-1.24-7.24s6.69-1 7.11-.6a21.4 21.4 0 0 0-1.61-2.65s-4.36-.85-6.52 1.41-1.65 6.12.58 9.77" transform="translate(-3.13 -3.29)"/><path class="cls-18" d="M42.6 157.83c-4.23-1.62-5.13-2.21-2.83-7.38s4.36-10.22 5.72-13.43 5.35-2 9.77.59-12.66 20.22-12.66 20.22z" transform="translate(-3.13 -3.29)"/><path class="cls-19" d="M59.73 137.82c5.89-1.36 16.23-4.45 22.22-8.09s9.5-5.31 11-5.05 2.74 2.48 2 3.35a69.28 69.28 0 0 1-11.48 7.89c-4.6 2.44-6.39 4.34-12.08 6.58s-12.72 4.3-12.72 4.3-5-5.93-2-7.45z" transform="translate(-3.13 -3.29)"/><path class="cls-20" d="M95.13 127.06a4.72 4.72 0 0 0-3.58-.18 16.65 16.65 0 0 0-5.75 2.78c-1.44 1.08-2.69 2.39-4.07 3.54-3.55 3-7.86 4.87-12.11 6.73-.72.32-1.7.58-2.19 0-.17-.22 1.31-3.52 1.15-4.38v-.14c-3.27 1-6.4 1.89-8.8 2.44l-3 1.52c-3 1.52 2 7.45 2 7.45s7-2.05 12.72-4.3 7.48-4.14 12.08-6.58A69.28 69.28 0 0 0 94.94 128a1.16 1.16 0 0 0 .19-.94z" transform="translate(-3.13 -3.29)"/><path class="cls-21" d="M55.84 138.45c.52.16 1 .37 1.43.48a13.09 13.09 0 0 0 3.81.39 10.13 10.13 0 0 0 4-.77 7.85 7.85 0 0 0 3.18-3.22 8.36 8.36 0 0 0 1.12-7.17c-1.32-3.67-4.92-6.9-9-6.83a10.29 10.29 0 0 0-5.68 1.35 9.71 9.71 0 0 0-2.92 3.24 10.38 10.38 0 0 0-1.39 4.08c-.29 2.56 1.41 7.22 5.45 8.45z" transform="translate(-3.13 -3.29)"/><path class="cls-22" d="M67.69 125.2l-.37-.08c-2-.26-4.37.43-5 2.31-.47 1.31 0 2.76-.1 4.14a4.63 4.63 0 0 1-4.58 4c-2.27-.07-4.19-1.82-6.45-2H51a7.85 7.85 0 0 0 4.87 4.87c.52.16 1 .37 1.43.48a13.09 13.09 0 0 0 3.81.39 10.13 10.13 0 0 0 4-.77 7.85 7.85 0 0 0 3.18-3.22 8.36 8.36 0 0 0 1.12-7.17 10.89 10.89 0 0 0-1.72-2.95z" transform="translate(-3.13 -3.29)"/><path class="cls-4" d="M63.8 140.24c1.44-.35 1.53-1.64-.85-1.68a49.13 49.13 0 0 0-5.69.37l-1.64 1.58z" transform="translate(-3.13 -3.29)"/><path class="cls-19" d="M63.8 140.24c.36 2.92-2.71 6.2-4.58 10.87s-1.57 5.26-1.57 5.26 7.47-3.27 13.5-3.32 6.27.19 6.34 5.5-1.26 14.26-3.15 17.65-3.07 2.53-4.27 1.87-2.3-.12-3.34-3.68a12.1 12.1 0 0 1 1.41-9.76c1.68-2.83.14-1.69-1.54-.84s-6.63 3.09-9.06 3c0 0 2.4 6 2.41 9.71s-.09 4-2.71 6.69-9.93 9.1-12.41 10.6-2.73.26-3.67-1.63a8.64 8.64 0 0 1 .52-7.58c4.34-6.9 8.16-6.22 7.06-10.13s-7-7.51-7.3-13.75 5.13-20 11-21.35c4.56-1.14 11.36.89 11.36.89z" transform="translate(-3.13 -3.29)"/><path class="cls-23" d="M70.48 161.29a2.57 2.57 0 0 0-1.12-2.82 3.19 3.19 0 0 0-1.58-.14 43.73 43.73 0 0 0-11.08 2.43 4.86 4.86 0 0 0-2 1.13 1 1 0 0 0-.29.55 1.24 1.24 0 0 0 .37.84l2.76 3.46c2.43.14 7.38-2.1 9.06-3s3.22-2 1.54.84a12.75 12.75 0 0 0-1.87 6.54 15 15 0 0 1 1.22-4c.97-1.97 2.64-3.65 2.99-5.83z" transform="translate(-3.13 -3.29)"/><path class="cls-24" d="M55.21 166.56c1.61.61-.4-2.79-.89-3.25a21.57 21.57 0 0 1-3-2.73 8.66 8.66 0 0 1-1-2.08q-.58-1.56-1-3.18a8.49 8.49 0 0 1-.39-3.15 7.09 7.09 0 0 1 2.77-4.24c.78-.58 1.64-1 2.46-1.57 2.33-1.48 4-1.89 5.45-4.24a5.5 5.5 0 0 0 .21-2.77 20.43 20.43 0 0 0-7.42-.07c-5 1.15-9.69 11.4-10.75 18.25A15.06 15.06 0 0 0 44 159a33.29 33.29 0 0 0 2.94 1.8 36 36 0 0 1 6.14 3.68c.64.52 1.47 1.83 2.13 2.08z" transform="translate(-3.13 -3.29)"/><path class="cls-4" d="M77.47 157.87c-.07-3.75-.4-4.63-3.56-4.8 0 .13-.1.26-.15.39a4.23 4.23 0 0 0-.2 2.58 3 3 0 0 0 2.71 2 3.93 3.93 0 0 0 1.2-.17zm-19.24 18.8a4.26 4.26 0 0 0-1.1 5.2 2.79 2.79 0 0 0 .59.74c2.13-2.23 2.22-2.72 2.21-6.18v-.54a4.06 4.06 0 0 0-1.7.78z" transform="translate(-3.13 -3.29)"/><path class="cls-13" d="M71.14 153c-6 .06-13.5 3.32-13.5 3.32s-.3-.59 1.57-5.26 4.93-7.94 4.58-10.87c0 0-6.77-2-11.4-1-5 1.16-9.75 11.54-10.77 18.38a12.83 12.83 0 0 0 2.59 2 22.45 22.45 0 0 1 4.22 2.53 12.09 12.09 0 0 1 1.89 2.5l3 4.72a12.62 12.62 0 0 1 1.63 3.28 8.87 8.87 0 0 1-1.37 6.86 39.84 39.84 0 0 1-4.62 5.5 51.48 51.48 0 0 0-4.75 6.12 3.71 3.71 0 0 0-.87 2.86 1.84 1.84 0 0 0 .13.28 4.69 4.69 0 0 0 1.4-.62c2.47-1.49 9.79-7.91 12.41-10.6s2.72-3 2.71-6.69-2.41-9.71-2.41-9.71c2.43.14 7.38-2.1 9.06-3s3.22-2 1.54.84a12.1 12.1 0 0 0-1.41 9.76c1 3.56 2.14 3 3.34 3.68s2.38 1.51 4.27-1.87 3.21-12.34 3.15-17.65-.36-5.36-6.39-5.36z" transform="translate(-3.13 -3.29)"/><path class="cls-17" d="M51.46 158.22c.87-.18 4.72 1 5.74 3.28s.46 3-.4 1.77-2.23-2.62-3.73-2.21-2.54 0-3-.78 1.39-2.06 1.39-2.06z" transform="translate(-3.13 -3.29)"/><path class="cls-4" d="M48.76 160.12c.87.92 1 1.05 1.87.21a10 10 0 0 0 1.59-1.95c.29-.46.26-1.15-1.35-1.43s-2.11 3.17-2.11 3.17z" transform="translate(-3.13 -3.29)"/><path class="cls-19" d="M51.94 137.4c4.6-.74 8 .08 7.74 2.8s-5.59 3.93-8.81 5.43-6.28 2.53-6.28 2.53 2 5.21 4.42 6.6 2.54 2.08 2.22 3.17-1.9 2.88-3 2.58-8.33-4.15-10.52-9.51-3-5.69 1.07-8.48a31.71 31.71 0 0 1 13.16-5.12z" transform="translate(-3.13 -3.29)"/><path class="cls-4" d="M38.45 142.76c-3 2.12-3 2.83-1.74 5.88a5.21 5.21 0 0 0 1.9-2 4.31 4.31 0 0 0 .19-2.91 6.66 6.66 0 0 0-.35-.97z" transform="translate(-3.13 -3.29)"/><path class="cls-25" d="M73.09 167.65a10.17 10.17 0 0 1-.88.74c-1.26.93-2.86 1.83-3.66 3.24-.35.61-1.67 3.31-1.45 3.87.93 2.33 1.91 2 3 2.56s2.38 1.51 4.27-1.87c1.78-3.17 3-11.24 3.15-16.6-.09 2.66-2.32 6.1-4.43 8.06z" transform="translate(-3.13 -3.29)"/><path class="cls-26" d="M53.73 125.82a9.7 9.7 0 0 0-.89 2 4.28 4.28 0 0 0-.29 3.21 4.24 4.24 0 0 0 1.22 1.37 1.57 1.57 0 0 0 .85.45 1.25 1.25 0 0 0 .87-.38c1.66-1.47 1.34-4.28 2.83-5.91a3.83 3.83 0 0 1 1.87-1.09 1.62 1.62 0 0 0 1-.44c1.36-1.81-2.61-1.72-3.3-1.61a5.89 5.89 0 0 0-4.16 2.4z" transform="translate(-3.13 -3.29)"/><path class="cls-27" d="M358 132.52a11 11 0 0 0 1.43 5.65c.44.63 2.33 2.28 2 3.14-.47 1.12-3.74.86-4.59.63a.6.6 0 0 1-.3-.15.63.63 0 0 1-.12-.27 24.94 24.94 0 0 0-1.57-5.2c-.14-.27-.17-.6-.51-.5a6 6 0 0 0-1 1.14.39.39 0 0 1-.46.13.33.33 0 0 1-.11-.2 2.29 2.29 0 0 1 .17-1.39 10.54 10.54 0 0 0 1-2.46c0-.2.29-1.6 0-1.69z" transform="translate(-3.13 -3.29)"/><path class="cls-28" d="M359.5 130.68c-.23 1.36-.57 2.65-1.57 2.69a14.82 14.82 0 0 1-3.51-.82 1.06 1.06 0 0 1-.84-1.59 20.87 20.87 0 0 0 .43-2.45z" transform="translate(-3.13 -3.29)"/><path class="cls-29" d="M322.26 87c10.46 0 33.4 6.17 38.7 7.76s4.87 2.46 4.72 7.58-1.49 23.7-4.17 27.1-2.42 2.18-5.54 1-3.46-1.21-3.53-5.19 3.05-11.74 3.46-16-.76-2.57-10.81-2.73-24.3-4.1-26.25-10.45a7.42 7.42 0 0 1 3.42-9.07z" transform="translate(-3.13 -3.29)"/><path class="cls-30" d="M353.42 95.92L342.17 95c-4.32-.36-4.75-2.89-4.48-5.92a88.09 88.09 0 0 0-15.42-2 7.42 7.42 0 0 0-3.42 9c1.95 6.35 16.2 10.3 26.25 10.45s11.21-1.54 10.81 2.73v.36a15.14 15.14 0 0 0 4-6.1 6 6 0 0 0-.22-5.07c-1.31-1.95-3.96-2.33-6.27-2.53z" transform="translate(-3.13 -3.29)"/><path class="cls-31" d="M313.36 71.23c6.67-.21 13.9-1.35 17.34 4.1s-4.13 15.9-5.42 16.45 4.91 5.07 4.91 5.07 8.57-15.1 5.57-22.06-12.11-9.51-22.37-8" transform="translate(-3.13 -3.29)"/><path class="cls-32" d="M332 79.33a9.69 9.69 0 0 0-.11-3.27 8.33 8.33 0 0 0-4.06-5.18 13.16 13.16 0 0 0-5.95-1.54c-1.6-.08-3.4.25-4.19-1.42a4.79 4.79 0 0 1-.33-1.48 39.21 39.21 0 0 0-3.91.38v4.42c6.67-.21 13.9-1.35 17.34 4.1 1.41 2.24 1 5.32-.13 8.21a9.83 9.83 0 0 0 1.34-4.22z" transform="translate(-3.13 -3.29)"/><path class="cls-33" d="M289.48 91.44c-9.63-1.49-24.91-15-14.83-32.54s29.09-12.9 37.85-1.19a19.91 19.91 0 0 1-2.39 27.41c-4.93 4.08-20.63 6.32-20.63 6.32z" transform="translate(-3.13 -3.29)"/><path class="cls-28" d="M306.43 85.6c-4.67.92-19 5.07-18.37 6.86.57 1.61 1.35 1.06 1.35 1.06l14.37.94 4.77-5.62z" transform="translate(-3.13 -3.29)"/><path class="cls-27" d="M347.35 216.23c1.25.42 4 3.22 5.53 4.12s1.85 2.21 2.49 4 2.82 10.78 2.4 11.13-3.22-.8-4.85-2.86-2.62-5.55-4.22-7.21a31.36 31.36 0 0 0-4-3.34zm-26.59 33.11c.56.68 2.57 4.06 4.4 5.41s1.5 2.21 1.4 3.42.92 9.91 1 10.78-.82.72-2.15-.42-4.88-6.39-5.1-9.18-3.9-5.68-3.9-5.68z" transform="translate(-3.13 -3.29)"/><path class="cls-28" d="M346.54 213.8l.63.84a4.59 4.59 0 0 0 1 1c.51.31.66.63.12 1.94a18.76 18.76 0 0 1-2.42 4.61c-1 1.06-1.23 1-1.92.77a15.16 15.16 0 0 1-2.32-1.41zM320 247.43c1.14.83 1.88 1.59 1.33 2.59a13.89 13.89 0 0 1-3.66 3.72c-1 .49-1.47.51-1.84.14s-1.72-1.35-1.72-1.35z" transform="translate(-3.13 -3.29)"/><path class="cls-29" d="M289.41 93.51c-3.86 6.78-2.39 15.42 3.44 18.46s10 8.34 9.09 15.75-15.33 29.63-16.68 37.92-3.64 20.72-5 30.64 2.4 13.92 7.14 20.85 22.17 35 26.31 35.39 7.8-4.85 6.35-9.09-1.15-7.61-7.55-17.25-13.52-15-14.68-24.27S304 180 304 180s2.73 11.58 5.69 15.5 3.95 4.67 8.12 8.88 17.78 17.39 21.81 17.46 5.25-.2 6.62-3.56 1.25-5.32-.72-7.38-2.33-5.21-11.32-12.86-14.38-15.48-12.2-22.24 9.1-17.46 10.26-29.25.12-16.84-4.87-29.35S318.55 81.09 311 85s-21.59 8.51-21.59 8.51z" transform="translate(-3.13 -3.29)"/><path class="cls-13" d="M345.53 210.88c-2-2.05-2.33-5.21-11.32-12.86S319.82 182.56 322 175.8s9.1-17.46 10.26-29.25.12-16.84-4.87-29.35S318.55 81.09 311 85s-21.55 8.55-21.55 8.55l-.07.14c2.54 1 1.2-.95 5.5 1.44 4.76.07 7.22 5.59 8.54 10.16 3.43 11.95 6.87 24.6 3.71 36.62-1.38 5.23-3.95 10.05-6.25 14.95a156.24 156.24 0 0 0-9.87 27.4c-1.5 5.83-2.68 11.85-2.1 17.85s3.09 12 7.83 15.73c2.77 2.17 6.13 3.44 9.16 5.23a30.56 30.56 0 0 1 11.54 12.22c.29.56.56 1.13.84 1.7a47.31 47.31 0 0 0-5.67-10.79c-6.39-9.64-13.52-15-14.68-24.27S304 180 304 180s2.73 11.58 5.69 15.5 3.95 4.67 8.12 8.88 17.78 17.39 21.81 17.46 5.25-.2 6.62-3.56 1.26-5.35-.71-7.4z" transform="translate(-3.13 -3.29)"/><path class="cls-34" d="M345.53 210.88c-2-2.05-2.33-5.21-11.32-12.86S319.82 182.56 322 175.8s9.1-17.46 10.26-29.25.12-16.84-4.87-29.35c-2.34-5.88-4.45-14.2-6.81-21-3.69-4.7-8-8-12.09-3.5-3 3.37.27 9.67 1.11 13.46q1.89 8.61 2.94 17.38c.32 2.67.71 5.6 2.7 7.39 2.36 2.12 6 1.79 9.1 1.34 1.5 7.84-2.47 15.57-6.3 22.57l-7.84 14.3a78.07 78.07 0 0 0-5.84 12.46c.87 3.35 3 10.84 5.27 13.84 3 3.92 3.95 4.67 8.12 8.88s17.78 17.39 21.81 17.46 5.25-.2 6.62-3.56 1.32-5.29-.65-7.34z" transform="translate(-3.13 -3.29)"/><path class="cls-35" d="M343.14 207.47c-1.4-2.08-3.71-5-8.93-9.45-9-7.66-14.39-15.45-12.16-22.22 1.55-4.69 5.32-11.28 7.88-18.8l-9.34 14a39.42 39.42 0 0 0-4.92 8.95 13.28 13.28 0 0 0 .18 10c2.17 4.47 7.22 6.59 11.73 8.67a104.45 104.45 0 0 1 15.56 8.85z" transform="translate(-3.13 -3.29)"/><path class="cls-27" d="M227.7 149.24c-.67 1.13 1.65 1.86 1.83 2.72a1.38 1.38 0 0 1-.68 0 39.53 39.53 0 0 0-5.88-.4 2.51 2.51 0 0 0-1.09.2c-1.32.6.18 1.16.7 1.68a1 1 0 0 0 .39.29 1 1 0 0 0 .46 0 4.79 4.79 0 0 1 2.7.16 13.87 13.87 0 0 0-4.23.94.52.52 0 0 0-.34.27.52.52 0 0 0 0 .34 11.43 11.43 0 0 0 3.62 4.93 1.27 1.27 0 0 0 1.23.36 1.41 1.41 0 0 0 .59-.73 8.39 8.39 0 0 1 6.75-4.42c2.41-.05 5.05.66 6.53-1.91.92-1.61-3.11-4.07-3.13-4.07-.61-.37-2.2.33-2.74.58a3.15 3.15 0 0 1-2.94.3c-1-.4-1.92-1.07-2.93-1.51a.69.69 0 0 0-.84.27z" transform="translate(-3.13 -3.29)"/><path class="cls-28" d="M238.56 147.29c-1.16.78-1.94 1.16-1.76 2.18a31 31 0 0 0 1.91 5.58c.48.74 1.07.75 1.82.08a3.1 3.1 0 0 1 1.4-.78z" transform="translate(-3.13 -3.29)"/><path class="cls-29" d="M301.71 93.17c6.8 9.64.23 15.17-10.58 29s-21 21.5-31.63 26.73-16.42 8.72-18.56 6.21-3.82-6.48-1.38-9.41 16.05-12.11 21.16-16.35a79.09 79.09 0 0 0 18.43-23.17c7.85-14.68 17.59-20.06 22.56-13.01z" transform="translate(-3.13 -3.29)"/><path class="cls-36" d="M302.51 126.57a16.08 16.08 0 0 0 .36-9.88 47.92 47.92 0 0 0-3.76-9.31l-2.8-5.74a3.09 3.09 0 0 0-.81-1.16 2.72 2.72 0 0 0-2.58 0c-3.37 1.29-5.79 4.3-7.51 7.47s-2.92 6.61-4.8 9.69a50.6 50.6 0 0 1-6.51 8l-9.34 10c-2.56 2.73-5.12 5.47-7.92 8a61 61 0 0 1-13.61 9.14 5.68 5.68 0 0 1-2.62.77 2.46 2.46 0 0 1-1-.25 12.74 12.74 0 0 0 1.33 1.9c2.14 2.52 7.9-1 18.56-6.21s20.82-12.93 31.63-26.73c2.15-2.74 4.13-5.16 5.87-7.34a14.28 14.28 0 0 1 4.94 12.92v.06a13.17 13.17 0 0 0 .57-1.33z" transform="translate(-3.13 -3.29)"/><path class="cls-31" d="M337.17 123.17c-.24 2.21-.23 2.08-2.4 2.76s-11.87 2.42-14.37 2.33-2.71.16-3-2.37-10.6-36.12-11.68-38.22-1.64-2.55-.2-3.16 14.05-6.69 16.34-6.89 1.9-.38 3.45 2.39a120.79 120.79 0 0 1 8.36 21.61c2.42 9.11 3.71 19.7 3.5 21.55z" transform="translate(-3.13 -3.29)"/><path class="cls-37" d="M277.81 129.31a8.32 8.32 0 0 0-7.52 4.87 9.64 9.64 0 0 0 .26 8.14 87.59 87.59 0 0 0 12.36-10.69 7.42 7.42 0 0 0-5.1-2.32z" transform="translate(-3.13 -3.29)"/><path class="cls-38" d="M365.54 105.39c.07-1.23.12-2.27.14-3s.05-1.54.07-2.16l-1-3.75a10.39 10.39 0 0 0-3.75-1.69l-.72-.21a15.74 15.74 0 0 0 .42 6.23 7.08 7.08 0 0 0 2.22 3.78 3.83 3.83 0 0 0 2.62.8z" transform="translate(-3.13 -3.29)"/><path class="cls-31" d="M280.7 193.37c-.14 1-.28 2-.41 2.91-1 7.65 1 11.78 4.1 16.45a21.62 21.62 0 0 0-3.69-19.36z" transform="translate(-3.13 -3.29)"/><path class="cls-39" d="M306.14 187.5c1 3.05 2.26 6.25 3.56 8s2.1 2.69 3 3.69c0-.07.06-.15.07-.22a7.4 7.4 0 0 0-.76-4.33c-.76-1.79-3.45-5.86-5.87-7.14z" transform="translate(-3.13 -3.29)"/><path class="cls-40" d="M333.62 101.63A120.79 120.79 0 0 0 325.26 80c-1.55-2.78-1.17-2.59-3.45-2.39-1.23.1-5.47 1.92-9.34 3.67a17.27 17.27 0 0 0 1.41 5.12 193.21 193.21 0 0 1 9.61 33.29c.51 2.73 1 5.63 2.43 8a87.47 87.47 0 0 0 8.85-1.74c2.18-.69 2.16-.55 2.4-2.76.21-1.87-1.08-12.46-3.55-21.56z" transform="translate(-3.13 -3.29)"/><path class="cls-41" d="M290.38 47.48c-1 1.68-.67 4 1.7 6.73a38.83 38.83 0 0 0 7.53 6.46 6.12 6.12 0 0 1 2.49 2.57 4.91 4.91 0 0 1 .1 2.57c-.72 4.2-3.3 7.88-6.36 10.85s-6.6 5.38-9.89 8.1a10.85 10.85 0 0 0-3.37 4 19.46 19.46 0 0 0 6.9 2.68s15.7-2.24 20.64-6.32a19.91 19.91 0 0 0 2.39-27.41c-5.15-6.87-13.81-11.28-22.13-10.23z" transform="translate(-3.13 -3.29)"/><path class="cls-26" d="M286.35 65.46c-1.11 4.37-.78 9.38-3.63 12.88-1.5 1.85-4.41 3-6.25 1.46-1.29-1.07-1.49-2.94-1.59-4.62a37.73 37.73 0 0 1 .35-10.57c1.67-7.44 8.38-13.35 15.85-14.49 1.35-.21 4.48-.8 5.39.55 1.47 2.19-1.73 3.16-3.09 4.22a19.67 19.67 0 0 0-7.03 10.57z" transform="translate(-3.13 -3.29)"/><path class="cls-42" d="M262.13 173.28a.67.67 0 0 0 .46-.27.73.73 0 0 0-.41-.79 19.91 19.91 0 0 1-2.27-2.32 6 6 0 0 0-2.64-1.84 2.68 2.68 0 0 0-2.92.86c-.85 1.24-.25 4.49 1 5.46.77.61 1.76.21 2.6 0z" transform="translate(-3.13 -3.29)"/><path class="cls-42" d="M270.81 173.79a.51.51 0 0 1-.15.54 4.83 4.83 0 0 1-1.16.7 3.05 3.05 0 0 0-1.76 1.67c-.11.19-.22.37-.34.55a4.47 4.47 0 0 1-3.69 2.21 5.21 5.21 0 0 1-3.77-2.19 13.78 13.78 0 0 1-2.3-3.88.51.51 0 1 1 1-.37 12.78 12.78 0 0 0 2.13 3.59 4.27 4.27 0 0 0 3 1.83 3.57 3.57 0 0 0 2.82-1.75c.11-.16.21-.34.31-.51a4 4 0 0 1 2.2-2.08 4 4 0 0 0 .93-.55.51.51 0 0 1 .78.24z" transform="translate(-3.13 -3.29)"/><path class="cls-42" d="M262 174.87a.78.78 0 0 1 0 .4 1.13 1.13 0 0 1-.4.6 5 5 0 0 1-5 .83.51.51 0 0 1 .37-.95 4 4 0 0 0 3.88-.61.52.52 0 0 1-.08-.29.51.51 0 0 1 .52-.5.69.69 0 0 1 .53.27.78.78 0 0 1 .18.25zm-1 .15zm2.38 1.59a1 1 0 0 1 0 .48 6 6 0 0 1-1.57 2.62 2.07 2.07 0 0 1-1.15.79.51.51 0 1 1-.18-1 1.26 1.26 0 0 0 .56-.46 5.51 5.51 0 0 0 1.31-2 .39.39 0 0 1-.14-.23.51.51 0 0 1 .34-.64.62.62 0 0 1 .61.13.74.74 0 0 1 .22.31zm-.51.51zm-.46-.24zm2.95.38a4.56 4.56 0 0 1-.5 3.81 1.49 1.49 0 0 1-.69.62.51.51 0 1 1-.37-1 .57.57 0 0 0 .2-.22 3.5 3.5 0 0 0 .25-3.29.52.52 0 0 1-.31-.33.51.51 0 0 1 .34-.63.72.72 0 0 1 .86.46 4.25 4.25 0 0 1 .22.58zm-.78 0zm3.35-4.7a10.2 10.2 0 0 1 .39 1.8 3 3 0 0 1-.79 2.81.51.51 0 1 1-.65-.79 2.16 2.16 0 0 0 .43-1.9 10 10 0 0 0-.38-1.7.51.51 0 0 1 1-.31zm-111.35 50.68a1.35 1.35 0 0 1-.93-.54c-.3-.58.32-1.18.83-1.58a40 40 0 0 0 4.56-4.67 12.14 12.14 0 0 1 5.3-3.68 5.39 5.39 0 0 1 5.87 1.72c1.71 2.5.49 9-1.93 11-1.54 1.23-3.53.41-5.22 0z" transform="translate(-3.13 -3.29)"/><path class="cls-42" d="M139.16 224.25a1 1 0 0 0 .3 1.08 9.71 9.71 0 0 0 2.34 1.41 6.12 6.12 0 0 1 3.53 3.36c.22.37.44.75.68 1.1 1.86 2.83 4.63 4.49 7.41 4.44 2.59 0 5.13-1.53 7.56-4.41a27.67 27.67 0 0 0 4.62-7.78 1 1 0 1 0-1.91-.74 25.65 25.65 0 0 1-4.28 7.21c-2 2.4-4.05 3.64-6 3.68-2.44 0-4.52-1.79-5.66-3.52-.22-.33-.42-.68-.62-1a8 8 0 0 0-4.41-4.17 8.08 8.08 0 0 1-1.87-1.1 1 1 0 0 0-1.69.44z" transform="translate(-3.13 -3.29)"/><path class="cls-42" d="M157.08 225.92a1.39 1.39 0 0 1 1.06-.53 1 1 0 0 1 1 1 1 1 0 0 1-.17.57 8 8 0 0 0 7.79 1.23 1 1 0 0 1 .75 1.91 10.07 10.07 0 0 1-10-1.67 2.27 2.27 0 0 1-.81-1.21 1.58 1.58 0 0 1 .38-1.3zm1.67.78zm-4.26 2.56a1.25 1.25 0 0 1 1.22-.27 1 1 0 0 1 .68 1.28.79.79 0 0 1-.29.46 11.06 11.06 0 0 0 2.62 4.07 2.53 2.53 0 0 0 1.13.92 1 1 0 1 1-.36 2 4.16 4.16 0 0 1-2.32-1.59 12.08 12.08 0 0 1-3.15-5.27 2 2 0 0 1 .05-1 1.49 1.49 0 0 1 .42-.6zm.61 1.69zm.93-.49zm-5.5-.33a1.44 1.44 0 0 1 1.72-.92 1 1 0 0 1 .69 1.27 1 1 0 0 1-.62.67 7 7 0 0 0 .51 6.61 1.14 1.14 0 0 0 .4.45 1 1 0 1 1-.74 1.91 3 3 0 0 1-1.38-1.24 9.15 9.15 0 0 1-1-7.65 8.54 8.54 0 0 1 .42-1.1zm1.13 1zm-6.73-9.34a20.47 20.47 0 0 0-.79 3.6c-.32 2.57.23 4.52 1.59 5.64a1 1 0 1 0 1.3-1.58c-1-.82-1-2.52-.85-3.8a20 20 0 0 1 .77-3.41 1 1 0 0 0-1.95-.63zm-22.88-112.16a.75.75 0 0 0 .43.41.81.81 0 0 0 .71-.69 22.13 22.13 0 0 1 1.81-3.15 6.72 6.72 0 0 0 1.13-3.39 3 3 0 0 0-1.83-2.85c-1.59-.52-4.87 1.14-5.52 2.73-.41 1 .33 1.94.82 2.77z" transform="translate(-3.13 -3.29)"/><path class="cls-42" d="M123.75 119.12l-.15-.12a5.38 5.38 0 0 1-1.11-1 3.39 3.39 0 0 0-2.33-1.35l-.69-.19a5 5 0 0 1-3.51-3.25 5.79 5.79 0 0 1 1.17-4.7 15.31 15.31 0 0 1 3.42-3.67.57.57 0 1 1 .69.9 14.18 14.18 0 0 0-3.16 3.4 4.74 4.74 0 0 0-1 3.78 4 4 0 0 0 2.75 2.46c.21.07.43.12.64.17a4.45 4.45 0 0 1 2.9 1.69 4.48 4.48 0 0 0 .87.82.57.57 0 0 1-.49 1.06z" transform="translate(-3.13 -3.29)"/><path class="cls-42" d="M119.55 110.11a1.53 1.53 0 0 1-.42-.2 5.58 5.58 0 0 1-2.44-5 .57.57 0 0 1 1.13.1 4.42 4.42 0 0 0 1.87 3.95.57.57 0 0 1 1 .22.77.77 0 0 1-.12.65.88.88 0 0 1-.65.37 1 1 0 0 1-.37-.09zm-2.79 1.89a11.83 11.83 0 0 1-1.66-.66 2.3 2.3 0 0 1-1.2-1 .57.57 0 1 1 1-.5 1.4 1.4 0 0 0 .66.46 6.13 6.13 0 0 0 2.57.76.57.57 0 0 1 1-.07.69.69 0 0 1 0 .69 1 1 0 0 1-.79.5 4.5 4.5 0 0 1-1.58-.18zm-2.12 3h-.05a1.65 1.65 0 0 1-.87-.54.57.57 0 1 1 .9-.69.63.63 0 0 0 .3.14 3.9 3.9 0 0 0 3.55-.77.57.57 0 0 1 1-.27.8.8 0 0 1-.22 1.06 5.06 5.06 0 0 1-4.61 1.07zm5.6 1.91a2.25 2.25 0 0 1-.64-.3.57.57 0 0 1 .64-.94 2.4 2.4 0 0 0 2.15-.14 10.11 10.11 0 0 0 1.69-.94.57.57 0 1 1 .64.94 11.28 11.28 0 0 1-1.88 1 3.9 3.9 0 0 1-2.6.38z" transform="translate(-3.13 -3.29)"/><path class="cls-42" d="M227.47 132.82l1.67.24.98-1.52 1.26-.07 1.37-2.1-4.48-.87-.8 4.32z"/><path class="cls-42" d="M228.94 136.27c-1.05-1.84-2-3.71-3-5.6a3.69 3.69 0 0 1-.63-2.57c.11-.54.2-1.07.34-1.6 0-.17.68-1.73.64-1.76a5.47 5.47 0 0 1-1.48-2.52 8.51 8.51 0 0 0 2.06-1.33 21.14 21.14 0 0 1 1.45 2.71 4.35 4.35 0 0 1 4.55 2l3 7.11-1.83-.08-.21 1.3-2.23-.15-1 2.37z" transform="translate(-3.13 -3.29)"/><path class="cls-42" d="M227 121.23a.29.29 0 0 0 .12-.38.29.29 0 0 0-.38-.12l-2.11 1.07a.29.29 0 0 0-.13.38.29.29 0 0 0 .38.12z" transform="translate(-3.13 -3.29)"/><path class="cls-42" d="M132.23 181.47l-.75 1.44.67 1.58-.41 1.27 1 2.56 2.41-4.28-2.92-2.57z"/><path class="cls-42" d="M135.83 183.21c1.65-.37 3.45-.67 5.41-1a3.66 3.66 0 0 1 2.75.24c.54.32 1.1.63 1.65 1 .18.12 1.87 1.59 1.94 1.57a8 8 0 0 1 4.16-.62 13.53 13.53 0 0 0 1.4 3.65 34.07 34.07 0 0 1-4.79.22s-.08 4.3-4.41 4.64l-8.07-1.31.77-1.9-.9-.89.94-2.16-1.31-1.89z" transform="translate(-3.13 -3.29)"/><path class="cls-42" d="M152.51 188a.64.64 0 0 0 .6.44.36.36 0 0 0 .36-.47l-1-3.58a.54.54 0 0 0-.56-.36.36.36 0 0 0-.34.44z" transform="translate(-3.13 -3.29)"/><path class="cls-42" d="M36.19 82.36l1.22 2.35 2.84-.17 1.25 1.54 3.94-.2-3.04-6.5-6.21 2.98z"/><path class="cls-42" d="M37.58 83.69c1.36-3 2.86-6 4.38-8.95.71-1.37 1.23-2.52 2.69-3.18.78-.35 1.55-.74 2.35-1 .26-.1 2.82-.73 2.84-.81a8.6 8.6 0 0 1 1.84-4.2 13.37 13.37 0 0 0 3.6 1.39 33.21 33.21 0 0 1-2.1 4.35 6.84 6.84 0 0 1 1.7 7.59l-6.3 10.33L47 86.77l-1.85.93-1.87-3-3.94.92z" transform="translate(-3.13 -3.29)"/><path class="cls-42" d="M54.93 67.36a.45.45 0 0 0 .6-.19.45.45 0 0 0-.2-.6L52 64.88a.45.45 0 0 0-.6.19.45.45 0 0 0 .19.6zm32.93 23.81s-.35 3.44-.86 3.73c0 0-3.61.51-4.15 1.22 0 0-1.7-.38-2.15 0s-.23.07-.23.07l-1.29-2.62-.18 1.66-.78.77.63 1.46-.7 1.14.85 1.4-.16 1.37 1.48 1.17a6.78 6.78 0 0 0 .81-2.48 3.54 3.54 0 0 0 1.06.06 3.64 3.64 0 0 0 1.84-.76l-.28.22c.61-.33 3.46-1.86 4.05-1l2.1 3 1.21-3.18L90 95.52l-.2-3.18z" transform="translate(-3.13 -3.29)"/><path class="cls-42" d="M89.93 101.57l.14-2.23a.83.83 0 0 0-.21-.61l-.76-.84a.83.83 0 0 1-.17-.89l.41-1a.83.83 0 0 0-.06-.7l-.72-1.3a.83.83 0 0 1 0-.76l.21-.45a.83.83 0 0 0-.18-.94l-.7-.67s2.78-1 4.76 3.74c-.03 0 1.66 4.96-2.72 6.65zm-10.74-8s-2.17-.51-2.56 2.94c0 0-.39 6.75 3.73 6.08l-1.08-1a.85.85 0 0 1-.27-.72l.07-.62a.85.85 0 0 0-.13-.54l-.51-.81a.85.85 0 0 1 .1-1 .85.85 0 0 0 .14-1l-.17-.34a.85.85 0 0 1 .21-1l.08-.06a.85.85 0 0 0 .3-.59z" transform="translate(-3.13 -3.29)"/><ellipse class="cls-42" cx="85.42" cy="98" rx=".46" ry=".15" transform="rotate(-17.01 72.836 106.81)"/><ellipse class="cls-42" cx="85.12" cy="96.45" rx=".46" ry=".15" transform="rotate(-9.62 64.001 113.396)"/><path class="cls-42" d="M92.24 95.66a4.13 4.13 0 0 1 .83-.56 5.46 5.46 0 0 0 1.42-1.1 1.9 1.9 0 0 0 .42-.79 1.09 1.09 0 0 1 .14-.7.8.8 0 0 1 .63.16.83.83 0 0 1 .35.55c.13.92-1 1.78-1.61 2.28a4.73 4.73 0 0 1-1.38.78.87.87 0 0 1-.69.08.37.37 0 0 1-.11-.7zM207.13 209.3s.44-7.34 1.5-8c0 0 7.62-1.39 8.7-2.94 0 0 3.63.66 4.55-.21s.49-.16.49-.16l3 5.46.28-3.54 1.57-1.71-1.46-3 1.38-2.47-2-3 .22-2.92-3.23-2.37s-1.76 3.73-1.5 5.33a7.52 7.52 0 0 0-2.25 0 7.73 7.73 0 0 0-3.84 1.78l.58-.49c-1.26.74-7.19 4.26-8.52 2.54l-4.71-6.13-2.3 6.86 2.58 6 .7 6.74z" transform="translate(-3.13 -3.29)"/><path class="cls-42" d="M201.84 187.4l-.1 4.75a1.76 1.76 0 0 0 .5 1.27l1.69 1.72a1.76 1.76 0 0 1 .42 1.78l-.77 2.34a1.76 1.76 0 0 0 .18 1.48l1.65 2.64a1.76 1.76 0 0 1 .13 1.6l-.4 1a1.76 1.76 0 0 0 .46 2l1.54 1.36s-5.81 2.31-10.42-7.54c-.01-.04-4.03-10.43 5.12-14.4zm23.5 16.05s4.66.89 5.18-6.46c0 0 .25-14.36-8.44-12.58l2.38 2a1.8 1.8 0 0 1 .64 1.5l-.1 1.32a1.8 1.8 0 0 0 .31 1.14l1.15 1.67a1.8 1.8 0 0 1-.12 2.2 1.8 1.8 0 0 0-.22 2l.38.71a1.8 1.8 0 0 1-.36 2.18l-.15.14a1.8 1.8 0 0 0-.58 1.27z" transform="translate(-3.13 -3.29)"/><ellipse class="cls-42" cx="211.73" cy="194.59" rx=".99" ry=".32" transform="rotate(-19.34 200.538 202.149)"/><ellipse class="cls-42" cx="212.51" cy="197.87" rx=".99" ry=".32" transform="rotate(-11.96 195.135 211.1)"/><path class="cls-42" d="M197.45 200.15a8.79 8.79 0 0 1-1.71 1.25 11.6 11.6 0 0 0-2.91 2.54 4 4 0 0 0-.82 1.71c-.08.42.18 1.2-.23 1.5a1.71 1.71 0 0 1-1.35-.29 1.77 1.77 0 0 1-.79-1.13c-.35-1.94 1.95-3.86 3.22-5a10.05 10.05 0 0 1 2.86-1.78 1.84 1.84 0 0 1 1.47-.24.79.79 0 0 1 .26 1.44zM100.8 60.57s-.45 3.38-1.66 3.81a5.56 5.56 0 0 1 .11-1.69 27.59 27.59 0 0 0 .62-4.69s.72-.11.76 1.31a5.58 5.58 0 0 0 .17 1.26z" transform="translate(-3.13 -3.29)"/><path class="cls-42" d="M97.73 54.34a2.69 2.69 0 0 0-.54 1.1 8.76 8.76 0 0 0-.41 3.39 10.6 10.6 0 0 1-.8 3.72c-.23.59-.54 1.14-.82 1.71a7 7 0 0 0 0 6 4.07 4.07 0 0 0 .56.74 2.74 2.74 0 0 0 .7.67s.53.19.79-1.31A8.33 8.33 0 0 0 99.24 67c.4-1.48-.36-3.1.07-4.6a18.22 18.22 0 0 0 .72-4.21s.46-.24.52 1.17a4.24 4.24 0 0 0 2.12 3.68 16.83 16.83 0 0 0 2.52.52 4.68 4.68 0 0 1 2.26 1.44s1.76 1.7 1.74 2.13c0 0 .9-.9-.3-4.51a8.9 8.9 0 0 1 1.11-.42c.88-.27 1.77-.07 2.64-.26.69-.15 1-.55.62-1.23a2.75 2.75 0 0 0-2.36-1.09c-.54 0-1.14.14-1.67.09a6 6 0 0 1-2-.74 5.12 5.12 0 0 1-1.25-.82 10.5 10.5 0 0 1-1.12-1.63 8.31 8.31 0 0 0-.78-1 7.55 7.55 0 0 0-2.59-1.84 4.83 4.83 0 0 0-.95-.28 2.36 2.36 0 0 0-1-.11z" transform="translate(-3.13 -3.29)"/><path class="cls-42" d="M96.62 60.33a1.66 1.66 0 0 0 .11.26 3.77 3.77 0 0 1 .14.77 5.06 5.06 0 0 1-.76 2.78c-.74 1.49-1.46 4.09-.49 5.56l.38.66-.41.54s-2.41-2.09-.47-6.79a12.71 12.71 0 0 0 1.5-3.78zm.17 9.89a1.78 1.78 0 0 1 .35-.94 9 9 0 0 1 .94-1 5.55 5.55 0 0 0 1.2-3.24 5.29 5.29 0 0 1-.67 3.51l-1.42 1.79zM100.63 60s.52-.32 1.79 1.15a4.22 4.22 0 0 0 2 1.32 3.78 3.78 0 0 1 2.58 2.1 5.26 5.26 0 0 0-2.69-1.13 3.26 3.26 0 0 1-2.71-1.18 4.29 4.29 0 0 1-.97-2.26zm2.42-5.32a15.55 15.55 0 0 0 2.76 3.32 9.9 9.9 0 0 0 3 2.87 3.31 3.31 0 0 0 2.32.23 8.27 8.27 0 0 1 1.24-.08 2.46 2.46 0 0 1 1.12.19s-.17-1.6-2.94-1.64a3.87 3.87 0 0 1-2.35-.2 6.72 6.72 0 0 1-2.62-1.75s-1.99-2.95-2.53-2.94z" transform="translate(-3.13 -3.29)"/><path class="cls-42" d="M95.13 70.31a1.64 1.64 0 0 1 2.15-.08 3.24 3.24 0 0 1-.68 1.55s-.51.01-1.47-1.47zm2.58-19.76a1.72 1.72 0 0 1 .57.89c.16.8 1.22 1.43 1.36 2.27a1.61 1.61 0 0 1-.46 1.06 1.52 1.52 0 0 1-1 .16.64.64 0 0 1-.44-.58 3.37 3.37 0 0 0-.74-1.27A15.27 15.27 0 0 1 95.63 52z" transform="translate(-3.13 -3.29)"/><path class="cls-42" d="M97.71 50.71c-.27.83-.73 1.58-1.71 1.47s-.37-1.45.2-1.72c.25-.12 1.72-.42 1.51.25zm15.21 108.83s.43 3.5 1.59 3.61a5.79 5.79 0 0 0-.06-1.7 30 30 0 0 1-.53-5.12s-.76 0-.82 1.71a7.47 7.47 0 0 1-.18 1.5z" transform="translate(-3.13 -3.29)"/><path class="cls-42" d="M116.31 151.42a3 3 0 0 1 .5 1.3 11.44 11.44 0 0 1 .21 3.95 11 11 0 0 0 .54 3.84c.18.55.42 1 .63 1.53a7 7 0 0 1-.34 5.5 6 6 0 0 1-.52.79 4.11 4.11 0 0 1-.63.76s-.45.31-.62-.9a4.68 4.68 0 0 1-1.75-2.43c-.34-1.31.42-3.13 0-4.57a19.26 19.26 0 0 1-.65-4.53s-.48-.19-.57 1.48a6.27 6.27 0 0 1-2.2 4.6 22.38 22.38 0 0 1-2.67 1.26 6.93 6.93 0 0 0-2.38 2.16s-1.81 2.3-1.74 2.72c0 0-1.12-.6-.15-4.84a10.33 10.33 0 0 0-1.36-.15c-1.12 0-2.2.47-3.35.52-.93 0-1.48-.31-1.05-1.26a4.13 4.13 0 0 1 2.9-2.05c.7-.18 1.47-.16 2.14-.37a8.74 8.74 0 0 0 2.39-1.45 7.6 7.6 0 0 0 1.43-1.33 16.25 16.25 0 0 0 1.23-2.32 13.09 13.09 0 0 1 .88-1.45 11.14 11.14 0 0 1 3-3 5.83 5.83 0 0 1 1.09-.55 2.46 2.46 0 0 1 1.12-.31z" transform="translate(-3.13 -3.29)"/><path class="cls-42" d="M117.11 158.3a2.57 2.57 0 0 1-.12.3 5.23 5.23 0 0 0-.18.86 4.56 4.56 0 0 0 .55 2.68c.58 1.26 1 3.49.11 5.05l-.38.69.31.35a6.6 6.6 0 0 0 .82-6.34 10.32 10.32 0 0 1-1.11-3.59zm-.66 9.7a1.11 1.11 0 0 0-.27-.73 4.72 4.72 0 0 0-.8-.62 3.92 3.92 0 0 1-1-2.75 4.48 4.48 0 0 0 .54 3.14l1.2 1.19zm-3.35-9.11s-.54-.24-1.88 1.73a6.28 6.28 0 0 1-2.15 2 5.48 5.48 0 0 0-2.71 3 7.62 7.62 0 0 1 2.87-2 4.47 4.47 0 0 0 2.82-2 6.32 6.32 0 0 0 1.05-2.73zm-2.74-6.03a24.64 24.64 0 0 1-3.09 4.94A14.89 14.89 0 0 1 104 162a4.71 4.71 0 0 1-2.84 1 11.87 11.87 0 0 0-1.61.29 3.79 3.79 0 0 0-1.44.58s-.11-2 3.54-2.89a5.36 5.36 0 0 0 2.91-.9 10 10 0 0 0 3-2.83s2.16-4.3 2.8-4.39z" transform="translate(-3.13 -3.29)"/><path class="cls-42" d="M117.86 167.59s-.69-.56-1.84.53c0 0 .19 1.1.52 1.13 0 0 .46-.13 1.32-1.66zm-1.31-21.33a3.07 3.07 0 0 0-.68 1.34c-.21 1.14-1.42 2.17-1.6 3.32a2 2 0 0 0 .47 1.31 1.33 1.33 0 0 0 1.1 0 1 1 0 0 0 .5-.82 6 6 0 0 1 .84-1.78c.35-.53.88-.73 1.52-1.68z" transform="translate(-3.13 -3.29)"/><path class="cls-42" d="M116.54 146.5c.25 1.14.7 2.1 1.75 1.8s.52-2-.08-2.35c-.26-.15-1.87-.39-1.67.55zm-22.61 77.72s4.49.37 5.38-1.07a7.35 7.35 0 0 0-2.21-.34s-5.23-.08-6.27-.52c0 0-.34.9 1.48 1.35a7.38 7.38 0 0 1 1.62.58z" transform="translate(-3.13 -3.29)"/><path class="cls-42" d="M86.75 218.51a3.55 3.55 0 0 1 1.57-.39 11.58 11.58 0 0 1 4.49.43 14 14 0 0 0 5 0c.83-.14 1.62-.37 2.44-.57 2.47-.6 5.91-.07 7.75 1.63a5.38 5.38 0 0 1 .8.94 3.62 3.62 0 0 1 .67 1.1s.1.73-1.92.65a11 11 0 0 1-4.87 1.73c-2 .1-3.91-1.33-6-1.2a24.09 24.09 0 0 1-5.64-.25s-.44.52 1.36 1a5.61 5.61 0 0 1 4.16 3.77c.27 1.1-.13 2.28 0 3.41a6.18 6.18 0 0 0 1.2 3.3s1.7 2.75 2.26 2.84c0 0-1.41.91-5.74-1.66a11.76 11.76 0 0 0-.86 1.28c-.59 1.06-.59 2.26-1.08 3.33-.39.85-1 1.19-1.76.45a3.64 3.64 0 0 1-.75-3.36c.13-.71.5-1.43.58-2.14a8 8 0 0 0-.39-2.81 6.76 6.76 0 0 0-.71-1.85 13.88 13.88 0 0 0-1.78-1.91 11 11 0 0 1-1-1.29 10 10 0 0 1-1.66-3.86 6.39 6.39 0 0 1-.1-1.3 3.12 3.12 0 0 1 .14-1.31z" transform="translate(-3.13 -3.29)"/><path class="cls-42" d="M94.79 218.75a2.19 2.19 0 0 1 .3.21 5 5 0 0 0 1 .4 6.69 6.69 0 0 0 3.8-.2c2.13-.54 5.7-.74 7.32.93l.75.7.82-.37s-2-3.69-8.63-2.52c-.05 0-3.62 1.1-5.36.85zm12.73 2.98c0-.23-1.25.16-1.32.19a11.84 11.84 0 0 0-1.52.94 7.34 7.34 0 0 1-4.52.65 7 7 0 0 0 4.72.11l2.71-1.33zm-14.25 2.11s-.56.58 1 2.63a5.57 5.57 0 0 1 1.13 3 5 5 0 0 0 2 3.92s-1.11-2.26-.71-3.79a4.31 4.31 0 0 0-.77-3.83 5.67 5.67 0 0 0-2.65-1.93zm-7.58 1.63a20.55 20.55 0 0 1 3.57 4.53 13.09 13.09 0 0 1 2.88 4.63 4.38 4.38 0 0 1-.35 3.06 10.93 10.93 0 0 0-.45 1.58 3.25 3.25 0 0 0-.07 1.5s-2-.66-1.3-4.26c0 0 .86-1.91.41-3.08a8.89 8.89 0 0 0-1.53-3.87s-3.33-3.39-3.16-4.09z" transform="translate(-3.13 -3.29)"/><path class="cls-42" d="M108.11 219.62a2.17 2.17 0 0 0-.7 2.76s1.86 0 2.19-.44c-.01 0 .15-.66-1.49-2.32zm-26.26-2.21a2.27 2.27 0 0 0 1 1c1 .43 1.51 2 2.55 2.39a2.12 2.12 0 0 0 1.5-.29 2 2 0 0 0 .49-1.29.85.85 0 0 0-.62-.73 4.45 4.45 0 0 1-1.45-1.28 20.19 20.19 0 0 0-1-2.07z" transform="translate(-3.13 -3.29)"/><path class="cls-42" d="M82.07 217.46c1.15-.12 2.25-.5 2.38-1.8s-1.77-.89-2.28-.22c-.23.29-1 2.1-.1 2z" transform="translate(-3.13 -3.29)"/><path class="cls-4" d="M277.16 109.68a19.1 19.1 0 0 0 4.51 2.34c2-2.18 3.4-5.54 4.48-8.3a.37.37 0 0 0-.18-.55 26.08 26.08 0 0 0-3.76-2.11q-1.55 2.32-3 5.08c-.7 1.23-1.37 2.4-2.05 3.54z" transform="translate(-3.13 -3.29)"/></g></g></svg>