<svg xmlns="http://www.w3.org/2000/svg" viewBox="0 0 512 512"><path fill="#FFF" d="M469.333 0H42.667C18.773 0 0 18.773 0 42.667v426.667C0 493.227 18.773 512 42.667 512h426.667C493.227 512 512 493.227 512 469.333V42.667C512 18.773 493.227 0 469.333 0zM256 494.933V324.267h-68.267V256H256v-59.733c0-48.64 37.547-89.6 85.333-93.867h76.8v68.267h-68.267c-14.507 0-25.6 11.093-25.6 25.6V256H409.6v68.267h-85.333v170.667H256zm238.933-25.6c0 14.507-11.093 25.6-25.6 25.6h-128v-153.6h85.333v-102.4h-85.333v-42.667c0-5.12 3.413-8.533 8.533-8.533H435.2v-102.4h-94.72c-57.173 5.12-101.547 53.76-101.547 110.933v42.667h-68.267v102.4h68.267v153.6H42.667c-14.507 0-25.6-11.093-25.6-25.6V42.667c0-14.507 11.093-25.6 25.6-25.6h426.667c14.507 0 25.6 11.093 25.6 25.6v426.666z"/></svg>