<svg width="512" height="512" xmlns="http://www.w3.org/2000/svg"><title>background</title><path fill="none" d="M-1-1h582v402H-1z"/><title>Layer 1</title><path fill="#a3bde0" clip-rule="evenodd" fill-rule="evenodd" d="M21.9 277.7c-3.2 0-5.8 2.6-5.8 5.8 0 3.2 2.6 5.8 5.8 5.8h468.2c3.2 0 5.8-2.6 5.8-5.8 0-3.2-2.6-5.8-5.8-5.8H21.9z" class="st0"/><path fill="#5b80b7" clip-rule="evenodd" fill-rule="evenodd" d="M495.5 299.7h-479c-5.8 0-10.5 4.7-10.5 10.5s4.7 10.5 10.5 10.5h479.1c5.8 0 10.5-4.7 10.5-10.5-.1-5.8-4.8-10.5-10.6-10.5z" class="st0"/><path fill="#003da5" clip-rule="evenodd" fill-rule="evenodd" d="M434.5 351.6c-15.1 10.2-29.2 22.2-46.4 28.8-21.2 8.2-45.9 6.9-66.2-3.5-21.9-11.2-38.8-34.8-63.4-40.3-29.8-6.6-62.3 11.1-87.8 24.1-26.3 13.4-57.9 28.7-88.2 21.4-24.8-6-41.6-27.3-50.9-49.9H6v31.9c0 41.8 20.9 75.6 46.7 75.6h406.6c25.8 0 46.7-33.8 46.7-75.6v-31.9c-.3-1.8-30.6 1.4-33.5 2-10.1 1.9-19.4 6-28.3 11.2-3.3 1.9-6.6 4-9.7 6.2zM256 72.3C119 72.3 7.8 158.8 6 266h500C504.2 158.8 393 72.3 256 72.3zm-196.3 139l-2-2.2 7.6-6.7 2 2.2-7.6 6.7zm101.6-52.6l-2-2.2 7.6-6.7 2 2.2-7.6 6.7zm33.7 83.1l-2-2.2 7.6-6.7 2 2.2-7.6 6.7zm9.5-51.4l-2-2.2 7.6-6.7 2 2.2-7.6 6.7zm25.2-69.8l-2-2.2 7.6-6.7 2 2.2-7.6 6.7zm64.3 50.8l7.6-6.7 2 2.2-7.6 6.7-2-2.2zm6.8 65.9l-2-2.2 7.6-6.7 2 2.2-7.6 6.7zm27.1-105.5l-2-2.2 7.6-6.7 2 2.2-7.6 6.7zm40.7 46.3l-2-2.2 7.6-6.7 2 2.2-7.6 6.7zm40.9 46.5l-2-2.2 7.6-6.7 2 2.2-7.6 6.7z" class="st0"/></svg>