<svg xmlns="http://www.w3.org/2000/svg" width="512" height="512" viewBox="0 0 97.502 97.502"><g fill="#FFF"><path d="M20.064 37.749c-.21-.722-.824-1.627-1.467-1.858-1.05-.378-2.273-.342-3.427-.333-.409.003-1.042.345-1.188.694-.805 1.929-1.612 3.872-2.184 5.876-.604 2.117-.941 4.309-1.433 6.625-.221-.371-.396-.637-.545-.918-1.092-2.091-2.171-4.184-3.265-6.271-1.101-2.099-1.718-2.411-4.084-2.021-.588.095-1.188.235-1.729.478-.269.122-.581.512-.59.79-.17 4.837-.353 9.67.385 14.49.51 3.343 1.13 3.774 4.325 2.551.159-.062.305-.152.464-.219.722-.304 1.051-.79.921-1.616-.229-1.428-.39-2.867-.575-4.302l.201-.016c.963 1.565 1.956 3.112 2.881 4.7.758 1.293 1.645 2.138 3.303 1.644.643-.192 1.386-.062 2.028-.258.446-.136.965-.499 1.16-.901.268-.557.335-1.242.371-1.879.155-2.693.262-5.393.403-8.087.023-.496.122-.989.201-1.585 1.446 4.624 2.857 9.054 4.202 13.507.234.777.5 1.099 1.328.854 1.146-.336 2.31-.604 3.256-.846-1.039-4.583-2.033-9.043-3.062-13.497-.585-2.543-1.154-5.097-1.88-7.602zm77.332 5.442c-.214-1.931-.773-3.801-3.12-4.345-.864-.202-1.653-.8-2.518-.929-.916-.134-2.023-.208-2.806.181-2.914 1.453-4.698 3.98-5.515 7.054-.744 2.796-1.13 5.688-1.702 8.532-.063.326-.233.767-.488.899-1.369.713-1.459 1.514-.345 2.566.376.354.637.955.717 1.479.494 3.161.908 6.333 1.395 9.497.054.36.379.961.6.972 1.308.056 2.618-.031 3.952-.07-1.284-5.257-1.6-8.622-1.063-10.956.82-.299 1.736-.427 2.395-.909 1.749-1.285 3.405-2.701 5.064-4.103 3.09-2.602 3.852-6.079 3.434-9.868zM86.647 53.584c.931-4.504 1.491-9.02 5.251-12.281 1.806 4.642-.489 9.818-5.251 12.281zm-51.556 3.329c-1.853.844-3.261.516-4.323-1.124-1.095-1.688-1.003-3.565-.751-5.452 2.098.107 4.049.207 6.003.313.746.041.959-.323 1.131-1.037.677-2.826.122-5.626-.035-8.434-.088-1.604-.461-2.937-2.478-3.286-1.82-.314-3.446-.886-5.12.62-1.679 1.515-3.255 2.961-3.899 5.248-.804 2.843-.716 5.732-.762 8.627-.037 2.46.84 4.243 3.031 5.643 3.025 1.932 8.852 2.072 11.882-.091-1.327-1.382-3.058-1.764-4.679-1.027zm-4.479-11.262c.288-1.054.774-2.052 1.172-3.076l.432.108c.036 1.574.071 3.149.106 4.827-2.133-.093-2.187-.108-1.71-1.859z"/><path d="M52.086 55.628a1.847 1.847 0 0 0-1.163.113c-.769.371-1.439.977-2.234 1.257-1.319.464-2.636.411-3.654-.761-1.233-1.419-2.237-2.919-1.538-5.052 2.185.298 4.349 1.067 6.324-.178.197-2.291.374-4.458.577-6.618.177-1.82.444-3.632.538-5.455.021-.434-.396-1.102-.788-1.305a17.606 17.606 0 0 0-3.337-1.269c-.528-.144-1.412-.15-1.693.169-1.543 1.752-3.341 3.441-4.308 5.501-1.356 2.889-2.171 6.024-2.06 9.357.116 3.448 2.09 6.332 5.404 7.177.907.229 1.875.217 2.793.417 2.452.53 4.497-.462 6.547-1.509-.013-1.065-.544-1.628-1.408-1.844zm-6.201-13.129c.139.031.276.063.415.097-.021 1.548.036 3.102-.085 4.642-.142 1.84-.273 1.875-2.442 1.221.706-1.998 1.411-3.98 2.112-5.96z"/><path d="M61.661 46.401c-.022.274-.325.523-.5.785-.124-.326-.362-.657-.346-.976.039-.831.288-1.656.278-2.481-.048-3.763-.275-7.527-.192-11.285.053-2.446.168-2.567-2.113-3.592-2.224-.999-3.273-.425-3.334 2.023-.058 2.309.032 4.628.208 6.931.248 3.189.645 6.367.995 9.739-.938-.041-1.78-.071-2.616-.12-.999-.059-1.692.293-1.771 1.375-.086 1.095.587 1.385 1.54 1.402 1.016.02 2.028.106 3.128.168.141 1.747.286 3.36.396 4.974.109 1.602.183 3.205.275 4.891l3.421-.568c-.066-1.584-.146-3.034-.181-4.488-.036-1.449.039-2.904-.063-4.349-.062-.822.383-.786.914-.854 1.507-.19 3.008-.41 4.509-.619.069-.152.141-.305.207-.455-1.206-1.077-2.366-2.216-3.646-3.197-.519-.396-1.04-.099-1.109.696zm17.997-1.583c-.588-.254-1.147-.596-1.762-.764-.406-.113-1.065-.162-1.281.069-.362.388-.603 1.012-.635 1.554-.046.749.219 1.512.223 2.27.013 3.248-.783 6.184-3.539 8.536-.132-.428-.279-.703-.298-.986-.162-2.564-.397-5.128-.422-7.696-.023-2.513.027-2.586-2.335-3.625-.354-.155-.698-.345-1.062-.463-1.215-.392-1.812.003-1.854 1.275-.033.896-.063 1.813.082 2.692.513 3.067 1.024 6.138 1.696 9.173.253 1.161 1.106 2.105 2.438 2.139 1.147.027 2.327-.046 3.439-.307.623-.145 1.214-.683 1.678-1.177.681-.726 1.198-1.6 1.847-2.356 1.813-2.119 3.293-4.333 3.396-7.293.055-1.448-.247-2.456-1.611-3.041z"/></g></svg>