<svg xmlns="http://www.w3.org/2000/svg" viewBox="0 0 450 157.8"><path fill="#6a6a6a" d="M109.6 6.2a79.11 79.11 0 0 0-61.4 0 78.53 78.53 0 0 0-13.7 7.5l87-1.2a79.22 79.22 0 0 0-11.9-6.3zm.9 73.1a29.85 29.85 0 0 1-2.5 11.9 32.25 32.25 0 0 1-3.6 6.3l51.4-.7a78.91 78.91 0 0 0 2-16.9zm0 0a29.85 29.85 0 0 1-2.5 11.9 32.25 32.25 0 0 1-3.6 6.3l51.4-.7a78.91 78.91 0 0 0 2-16.9zm44.7-20.6l-52.7-.7a32.94 32.94 0 0 1 5.4 8.6 31.49 31.49 0 0 1 2.4 9.6l47.4-.6a73.4 73.4 0 0 0-2.5-16.9zm-44.7 20.6a29.85 29.85 0 0 1-2.5 11.9 32.25 32.25 0 0 1-3.6 6.3l51.4-.7a78.91 78.91 0 0 0 2-16.9zm44.7-20.6l-52.7-.7a32.94 32.94 0 0 1 5.4 8.6 31.49 31.49 0 0 1 2.4 9.6l47.4-.6a73.4 73.4 0 0 0-2.5-16.9zm-44.7 20.6a29.85 29.85 0 0 1-2.5 11.9 32.25 32.25 0 0 1-3.6 6.3l51.4-.7a78.91 78.91 0 0 0 2-16.9zm44.7-20.6l-52.7-.7a32.94 32.94 0 0 1 5.4 8.6 31.49 31.49 0 0 1 2.4 9.6l47.4-.6a73.4 73.4 0 0 0-2.5-16.9zm-44.7 20.6a29.85 29.85 0 0 1-2.5 11.9 32.25 32.25 0 0 1-3.6 6.3l51.4-.7a78.91 78.91 0 0 0 2-16.9zm44.7-20.6l-52.7-.7a32.94 32.94 0 0 1 5.4 8.6 31.49 31.49 0 0 1 2.4 9.6l47.4-.6a73.4 73.4 0 0 0-2.5-16.9zm-44.7 20.6a29.85 29.85 0 0 1-2.5 11.9 32.25 32.25 0 0 1-3.6 6.3l51.4-.7a78.91 78.91 0 0 0 2-16.9zm44.7-20.6l-52.7-.7a32.94 32.94 0 0 1 5.4 8.6 31.49 31.49 0 0 1 2.4 9.6l47.4-.6a73.4 73.4 0 0 0-2.5-16.9zm-44.7 20.6a29.85 29.85 0 0 1-2.5 11.9 32.25 32.25 0 0 1-3.6 6.3l51.4-.7a78.91 78.91 0 0 0 2-16.9zm44.7-20.6l-52.7-.7a32.94 32.94 0 0 1 5.4 8.6 31.49 31.49 0 0 1 2.4 9.6l47.4-.6a73.4 73.4 0 0 0-2.5-16.9zm-44.7 20.6a29.85 29.85 0 0 1-2.5 11.9 32.25 32.25 0 0 1-3.6 6.3l51.4-.7a78.91 78.91 0 0 0 2-16.9zm44.7-20.6l-52.7-.7a32.94 32.94 0 0 1 5.4 8.6 31.49 31.49 0 0 1 2.4 9.6l47.4-.6a73.4 73.4 0 0 0-2.5-16.9zm-44.7 20.6a29.85 29.85 0 0 1-2.5 11.9 32.25 32.25 0 0 1-3.6 6.3l51.4-.7a78.91 78.91 0 0 0 2-16.9zm44.7-20.6l-52.7-.7a32.94 32.94 0 0 1 5.4 8.6 31.49 31.49 0 0 1 2.4 9.6l47.4-.6a73.4 73.4 0 0 0-2.5-16.9zm-44.7 20.6a29.85 29.85 0 0 1-2.5 11.9 32.25 32.25 0 0 1-3.6 6.3l51.4-.7a78.91 78.91 0 0 0 2-16.9zm44.7-20.6l-52.7-.7a32.94 32.94 0 0 1 5.4 8.6 31.49 31.49 0 0 1 2.4 9.6l47.4-.6a73.4 73.4 0 0 0-2.5-16.9zm-44.7 20.6a29.85 29.85 0 0 1-2.5 11.9 32.25 32.25 0 0 1-3.6 6.3l51.4-.7a78.91 78.91 0 0 0 2-16.9zm44.7-20.6l-52.7-.7a32.94 32.94 0 0 1 5.4 8.6 31.49 31.49 0 0 1 2.4 9.6l47.4-.6a73.4 73.4 0 0 0-2.5-16.9zm-44.7 20.6a29.85 29.85 0 0 1-2.5 11.9 32.25 32.25 0 0 1-3.6 6.3l51.4-.7a78.91 78.91 0 0 0 2-16.9zm44.7-20.6l-52.7-.7a32.94 32.94 0 0 1 5.4 8.6 31.49 31.49 0 0 1 2.4 9.6l47.4-.6a73.4 73.4 0 0 0-2.5-16.9zM102 100.4l-.8.8a32.81 32.81 0 0 1-10 6.8 31.51 31.51 0 0 1-24.6 0 30.08 30.08 0 0 1-10-6.8c-.5-.5-.9-1-1.4-1.5L2.5 99a65.06 65.06 0 0 0 3.6 10.5 84.5 84.5 0 0 0 5.3 10.4l135.8-1.8a76.63 76.63 0 0 0 4.3-8.6 70.46 70.46 0 0 0 3-8.4zm-52.2-9.2a29.74 29.74 0 0 1-2.5-12.3v-.4L0 77.8v1.1a77.75 77.75 0 0 0 2.5 20l51.4-.7a34.74 34.74 0 0 1-4.1-7zm101.8-43a78.67 78.67 0 0 0-5.6-10.8L13 35.6a89.41 89.41 0 0 0-6.8 12.6 63.37 63.37 0 0 0-3 8.3l54.2-.7a31.79 31.79 0 0 1 9.2-6 31.51 31.51 0 0 1 24.6 0 32.37 32.37 0 0 1 8.5 5.4l54.2-.7a53.25 53.25 0 0 0-2.3-6.3zM0 77.7l47.4-.6a31 31 0 0 1 2.4-10.5 31.79 31.79 0 0 1 6-9.2l-52.7-.7a80.73 80.73 0 0 0-3.1 21zm155.2-19l-52.7-.7a32.94 32.94 0 0 1 5.4 8.6 31.49 31.49 0 0 1 2.4 9.6l47.4-.6a73.4 73.4 0 0 0-2.5-16.9zm-44.7 20.6a29.85 29.85 0 0 1-2.5 11.9 32.25 32.25 0 0 1-3.6 6.3l51.4-.7a78.91 78.91 0 0 0 2-16.9zm44.7-20.6l-52.7-.7a32.94 32.94 0 0 1 5.4 8.6 31.49 31.49 0 0 1 2.4 9.6l47.4-.6a73.4 73.4 0 0 0-2.5-16.9zm-44.7 20.6a29.85 29.85 0 0 1-2.5 11.9 32.25 32.25 0 0 1-3.6 6.3l51.4-.7a78.91 78.91 0 0 0 2-16.9zm44.7-20.6l-52.7-.7a32.94 32.94 0 0 1 5.4 8.6 31.49 31.49 0 0 1 2.4 9.6l47.4-.6a73.4 73.4 0 0 0-2.5-16.9zm-44.7 20.6a29.85 29.85 0 0 1-2.5 11.9 32.25 32.25 0 0 1-3.6 6.3l51.4-.7a78.91 78.91 0 0 0 2-16.9zm44.7-20.6l-52.7-.7a32.94 32.94 0 0 1 5.4 8.6 31.49 31.49 0 0 1 2.4 9.6l47.4-.6a73.4 73.4 0 0 0-2.5-16.9zm-44.7 20.6a29.85 29.85 0 0 1-2.5 11.9 32.25 32.25 0 0 1-3.6 6.3l51.4-.7a78.91 78.91 0 0 0 2-16.9zm44.7-20.6l-52.7-.7a32.94 32.94 0 0 1 5.4 8.6 31.49 31.49 0 0 1 2.4 9.6l47.4-.6a73.4 73.4 0 0 0-2.5-16.9zm-44.7 20.6a29.85 29.85 0 0 1-2.5 11.9 32.25 32.25 0 0 1-3.6 6.3l51.4-.7a78.91 78.91 0 0 0 2-16.9zm44.7-20.6l-52.7-.7a32.94 32.94 0 0 1 5.4 8.6 31.49 31.49 0 0 1 2.4 9.6l47.4-.6a73.4 73.4 0 0 0-2.5-16.9zm-44.7 20.6a29.85 29.85 0 0 1-2.5 11.9 32.25 32.25 0 0 1-3.6 6.3l51.4-.7a78.91 78.91 0 0 0 2-16.9zm44.7-20.6l-52.7-.7a32.94 32.94 0 0 1 5.4 8.6 31.49 31.49 0 0 1 2.4 9.6l47.4-.6a73.4 73.4 0 0 0-2.5-16.9zm-44.7 20.6a29.85 29.85 0 0 1-2.5 11.9 32.25 32.25 0 0 1-3.6 6.3l51.4-.7a78.91 78.91 0 0 0 2-16.9zm44.7-20.6l-52.7-.7a32.94 32.94 0 0 1 5.4 8.6 31.49 31.49 0 0 1 2.4 9.6l47.4-.6a73.4 73.4 0 0 0-2.5-16.9zm-44.7 20.6a29.85 29.85 0 0 1-2.5 11.9 32.25 32.25 0 0 1-3.6 6.3l51.4-.7a78.91 78.91 0 0 0 2-16.9zm44.7-20.6l-52.7-.7a32.94 32.94 0 0 1 5.4 8.6 31.49 31.49 0 0 1 2.4 9.6l47.4-.6a73.4 73.4 0 0 0-2.5-16.9zm-44.7 20.6a29.85 29.85 0 0 1-2.5 11.9 32.25 32.25 0 0 1-3.6 6.3l51.4-.7a78.91 78.91 0 0 0 2-16.9zm44.7-20.6l-52.7-.7a32.94 32.94 0 0 1 5.4 8.6 31.49 31.49 0 0 1 2.4 9.6l47.4-.6a73.4 73.4 0 0 0-2.5-16.9zm-44.7 20.6a29.85 29.85 0 0 1-2.5 11.9 32.25 32.25 0 0 1-3.6 6.3l51.4-.7a78.91 78.91 0 0 0 2-16.9zm44.7-20.6l-52.7-.7a32.94 32.94 0 0 1 5.4 8.6 31.49 31.49 0 0 1 2.4 9.6l47.4-.6a73.4 73.4 0 0 0-2.5-16.9zm-44.7 20.6a29.85 29.85 0 0 1-2.5 11.9 32.25 32.25 0 0 1-3.6 6.3l51.4-.7a78.91 78.91 0 0 0 2-16.9zm-79.2 62.5a82.9 82.9 0 0 0 16.9 9.8 79.11 79.11 0 0 0 61.4 0 80.26 80.26 0 0 0 15.2-8.5zm-19.5-21.4a78.18 78.18 0 0 0 11.3 14.3 68.91 68.91 0 0 0 7 6.2l99.2-1.3c1.9-1.5 3.6-3.2 5.4-4.9a81.87 81.87 0 0 0 10.2-12.5zm143.4-61.7l-52.7-.7a32.94 32.94 0 0 1 5.4 8.6 31.49 31.49 0 0 1 2.4 9.6l47.4-.6a73.4 73.4 0 0 0-2.5-16.9zm-44.7 20.6a29.85 29.85 0 0 1-2.5 11.9 32.25 32.25 0 0 1-3.6 6.3l51.4-.7a78.91 78.91 0 0 0 2-16.9zm44.7-20.6l-52.7-.7a32.94 32.94 0 0 1 5.4 8.6 31.49 31.49 0 0 1 2.4 9.6l47.4-.6a73.4 73.4 0 0 0-2.5-16.9zm-44.7 20.6a29.85 29.85 0 0 1-2.5 11.9 32.25 32.25 0 0 1-3.6 6.3l51.4-.7a78.91 78.91 0 0 0 2-16.9zm24.2-56.2a68.38 68.38 0 0 0-8.2-7.1L33 14.7a72.09 72.09 0 0 0-9.9 8.4 76.88 76.88 0 0 0-9.9 12.1l130.1-1.8a70.13 70.13 0 0 0-8.6-10.3zm-24.2 56.2a29.85 29.85 0 0 1-2.5 11.9 32.25 32.25 0 0 1-3.6 6.3l51.4-.7a78.91 78.91 0 0 0 2-16.9zm51.2 64.3v8.8a110.85 110.85 0 0 0 11.9 2.7 125.84 125.84 0 0 0 13 1.9 156.47 156.47 0 0 0 15.9.8c9.5 0 17.7-1.2 24.6-3.7a47.38 47.38 0 0 0 16.2-9.4zM254 93.1a60.75 60.75 0 0 0-6.2-11.9l-68.9-.9c1.2 1.2 2.5 2.3 3.8 3.4 3.7 3 7.1 5.8 10.4 8.2 2 1.6 3.8 3 5.4 4.4l56.3-.8a22.5 22.5 0 0 0-.8-2.4zm-92.5-55.5a51.66 51.66 0 0 0-.3 5.7 49.06 49.06 0 0 0 1.2 11.1l56.9-.8q-2.7-2.55-2.7-4.2a4 4 0 0 1 1.4-3.2 7.45 7.45 0 0 1 3.2-1.6 23.18 23.18 0 0 1 3.8-.6c1.3-.1 2.5-.1 3.4-.1 1.7 0 3.2.1 4.7.2s2.8.3 4 .5c1.5.2 2.9.3 4.1.5v-6.4zm70-36c-2.9-.3-6.1-.6-9.7-1A97.73 97.73 0 0 0 211 0a65.21 65.21 0 0 0-19.5 2.8 47.92 47.92 0 0 0-15.9 8.2 6.47 6.47 0 0 0-.9.8l66.5-.9v-8c-3.1-.4-6.4-.9-9.7-1.3zm-61.4 14.9a34.71 34.71 0 0 0-5 8 34.68 34.68 0 0 0-2.8 8.6l79-1.1V17.4zm66.7 52c-3.5-3.2-6.8-5.9-9.7-8.3-.2-.2-.4-.3-.6-.5l-62.7-.8c.2.4.3.8.5 1.2a54.69 54.69 0 0 0 8 13.2l1.8 2.1 68.5-.9a54.8 54.8 0 0 0-5.8-6zm19.7 34l-52.9-.7a5.81 5.81 0 0 1 .7 2.8c0 5.1-3.5 7.7-10.4 7.7a89.21 89.21 0 0 1-11.6-.7 84 84 0 0 1-10.3-1.8 68.65 68.65 0 0 1-10.4-2.5v10.6l95-1.3c.2-2.1.4-4.2.4-6.4a63.59 63.59 0 0 0-.5-7.7zm-94.8 19.9v16.7l87.5-1.2a41.23 41.23 0 0 0 4.7-9.1c.6-1.7 1.1-3.4 1.6-5.2zM364.3 3.6h-32.9l-2 6.1 36.8-.5zm-55.7 36l-51.2-.7L262 53l50.8-.7zm60.9-20.4l-43.1-.6-4.1 12.3 50.8-.7zm7 21.3l-57.1-.8-4.1 12.5 64.8-.9zM264.4 60.2l4.6 13.9L427.5 72l3.1-9.5zm89 64.8l3.8 11.5 49.2-.7 3.3-10.1zm-74.9-22.2l4.4 13.5 62.6-.8 2.3-7 2.3 7 63.2-.9 3.2-9.9zm81.9 43.5l2.5 7.7h37.4l2.3-7.1zm-67.9-.9l2.8 8.6h37.4l2.7-8zm-7-21.3l4.4 13.3 48.6-.7 3.9-11.9zm-14.1-42.6l4.5 13.7 144.5-2 3.2-9.7zM399 3.6l-1.7 5.2 51.2-.7 1.5-4.5zm-8.7 26.5l51.2-.7 3-9.1-50.7-.7zm-3.5 10.6l-3.5 10.7 51.2-.7 3.1-9.3zm-85.2-22.4l-51.2-.7 4.7 14.3 50.7-.7zm-4.9-14.7h-51l2.4 7.2 50.7-.7z"/></svg>