<svg xmlns="http://www.w3.org/2000/svg" xmlns:xlink="http://www.w3.org/1999/xlink" viewBox="0 0 512 512"><path d="M469.333 0H42.667C18.773 0 0 18.773 0 42.667v426.667C0 493.227 18.773 512 42.667 512h426.667C493.227 512 512 493.227 512 469.333V42.667C512 18.773 493.227 0 469.333 0zM256 494.933V324.267h-68.267V256H256v-59.733c0-48.64 37.547-89.6 85.333-93.867h76.8v68.267h-68.267c-14.507 0-25.6 11.093-25.6 25.6V256H409.6v68.267h-85.333v170.667H256zm238.933-25.6c0 14.507-11.093 25.6-25.6 25.6h-128v-153.6h85.333v-102.4h-85.333v-42.667c0-5.12 3.413-8.533 8.533-8.533H435.2v-102.4h-94.72c-57.173 5.12-101.547 53.76-101.547 110.933v42.667h-68.267v102.4h68.267v153.6H42.667c-14.507 0-25.6-11.093-25.6-25.6V42.667c0-14.507 11.093-25.6 25.6-25.6h426.667c14.507 0 25.6 11.093 25.6 25.6v426.666z"/></svg><svg xmlns="http://www.w3.org/2000/svg" xmlns:xlink="http://www.w3.org/1999/xlink" viewBox="0 0 536.11 536.11" width="512" height="512"><path d="M267.75 0c37.128 0 71.91 7.038 104.345 21.114 32.439 14.076 60.793 33.252 85.068 57.528 24.277 24.276 43.453 52.632 57.529 85.068 14.072 32.436 21.111 67.218 21.111 104.346 0 37.127-7.039 71.911-21.111 104.346-14.076 32.438-33.252 60.791-57.529 85.068-24.275 24.275-52.631 43.451-85.068 57.527-32.436 14.076-67.217 21.113-104.345 21.113s-71.91-7.037-104.346-21.111c-32.436-14.076-60.792-33.252-85.068-57.527-24.276-24.277-43.35-52.633-57.222-85.068C7.242 339.967.306 305.184.306 268.056s6.936-71.91 20.808-104.346 32.946-60.792 57.222-85.068 52.632-43.452 85.068-57.528S230.622 0 267.75 0zm0 29.376c-33.048 0-64.056 6.222-93.024 18.666S120.462 77.52 98.838 99.144s-38.658 46.92-51.102 75.888-18.666 59.976-18.666 93.024c0 33.047 6.222 64.055 18.666 93.024 12.444 28.969 29.478 54.264 51.102 75.889 21.624 21.623 46.92 38.658 75.888 51.102 28.968 12.443 59.976 18.666 93.024 18.666s64.056-6.223 93.025-18.666c28.967-12.441 54.264-29.479 75.887-51.102 21.625-21.625 38.658-46.92 51.102-75.889 12.445-28.971 18.666-59.979 18.666-93.024 0-33.046-6.221-64.056-18.666-93.024-12.441-28.968-29.477-54.264-51.102-75.888-21.623-21.624-46.92-38.658-75.887-51.102-28.969-12.444-59.977-18.666-93.025-18.666zm68.544 282.745c25.703-8.979 38.555-25.908 38.555-50.797 0-13.056-2.141-23.358-6.426-30.906-4.283-7.548-11.117-13.77-20.502-18.666-4.488-2.448-9.791-3.876-15.912-4.284-6.119-.408-12.645-.51-19.584-.306-6.936.204-14.277.612-22.031 1.224a295.367 295.367 0 0 1-46.51 0c-7.752-.612-15.096-1.02-22.032-1.224s-13.464-.102-19.584.306-11.424 1.836-15.912 4.284c-9.384 4.896-16.116 11.118-20.196 18.666s-6.12 17.85-6.12 30.906c0 24.889 12.852 41.82 38.556 50.797a393.222 393.222 0 0 0 14.688 3.672c4.488.813 10.098 1.631 16.83 2.445 6.732.816 14.586 1.227 23.562 1.227h26.927c8.568 0 16.32-.408 23.26-1.227 6.936-.814 12.852-1.633 17.748-2.445 5.707-1.225 10.603-2.449 14.683-3.672zm73.44-88.741c0 13.056-1.43 25.398-4.283 37.026-2.857 11.625-8.16 22.135-15.912 31.518-7.752 9.385-18.463 17.137-32.131 23.256-13.668 6.121-31.109 9.996-52.326 11.629a899.705 899.705 0 0 0 12.547 6.119c5.1 2.449 9.486 7.141 13.158 14.076 2.039 4.486 3.365 11.016 3.977 19.584.613 8.566.918 17.34.918 26.314 0 8.979-.102 17.238-.305 24.785-.205 7.549.102 12.141.918 13.771 1.631 3.264 3.979 6.119 7.037 8.566 3.061 2.447 5.611 4.283 7.65 5.508 2.039 1.227 2.65 2.756 1.836 4.592-.816 1.836-3.672 2.959-8.568 3.363-2.447 0-5.508-.404-9.18-1.223-3.672-.816-7.143-2.244-10.404-4.285a29.647 29.647 0 0 1-8.262-7.646c-2.244-3.063-3.365-7.039-3.365-11.938v-50.184c0-5.711-1.326-9.791-3.98-12.24-2.648-2.447-5.402-4.08-8.262-4.895v66.096c0 11.832 1.428 19.584 4.285 23.256 1.223 1.633 2.346 3.367 3.365 5.203s1.633 3.365 1.836 4.59c.205 1.223-.51 1.938-2.145 2.143-1.631.203-4.689-.307-9.18-1.529-8.568-2.039-14.688-6.732-18.359-14.076s-5.508-15.096-5.508-23.256v-64.871H261.63v64.871c0 8.16-1.734 15.912-5.202 23.256s-9.69 12.037-18.666 14.076c-4.488 1.225-7.446 1.732-8.874 1.529-1.428-.203-2.142-.92-2.142-2.143 0-1.225.612-2.754 1.836-4.59s2.448-3.57 3.672-5.203c.816-1.631 1.734-4.488 2.754-8.568 1.02-4.078 1.53-8.975 1.53-14.688v-66.096c-2.856.814-5.508 2.445-7.956 4.896-2.448 2.447-3.672 6.527-3.672 12.24v50.184c0 4.896-1.122 8.873-3.366 11.936-2.244 3.061-4.998 5.607-8.262 7.648-3.264 2.039-6.732 3.471-10.404 4.283-3.672.816-6.732 1.225-9.18 1.225-4.896-.406-7.752-1.527-8.568-3.363s-.204-3.367 1.836-4.59c2.04-1.227 4.59-3.063 7.65-5.512 3.06-2.445 5.406-5.303 7.038-8.564.816-2.041 1.122-7.447.918-16.221-.204-8.771-.306-18.463-.306-29.068-3.264 1.225-7.548 2.041-12.852 2.449-5.304.404-11.22 0-17.748-1.227-11.016-2.041-19.38-5.607-25.092-10.711-5.712-5.1-11.22-13.158-16.524-24.174-2.856-5.303-6.018-9.689-9.486-13.158-3.468-3.467-6.528-6.221-9.18-8.262-2.652-2.039-4.692-3.773-6.12-5.201-1.428-1.428-1.53-2.754-.306-3.979 2.448-2.855 5.814-4.08 10.098-3.674 4.284.408 6.834 1.021 7.65 1.836 4.896 2.039 9.792 6.324 14.688 12.854 4.896 6.531 9.996 12.037 15.3 16.523 2.448 2.039 5.508 4.078 9.18 6.119 3.672 2.039 7.752 3.471 12.24 4.283 4.488.816 9.384.816 14.688 0 5.304-.813 10.608-3.059 15.912-6.729 1.224-5.307 3.162-9.486 5.814-12.549 2.652-3.061 5.508-5.508 8.568-7.344 3.06-1.836 5.916-3.264 8.568-4.285 2.652-1.02 4.794-1.938 6.426-2.754-22.44-1.631-40.8-5.402-55.08-11.318s-25.602-13.467-33.966-22.646c-8.364-9.18-14.076-19.686-17.136-31.519-3.06-11.832-4.59-24.276-4.59-37.332 0-13.464 2.04-25.5 6.12-36.108s9.792-19.992 17.136-28.152c-3.264-9.792-4.386-20.094-3.366-30.906s3.162-20.502 6.426-29.07c15.504.816 28.458 4.08 38.862 9.792 10.404 5.712 17.646 10.404 21.726 14.076 17.544-4.896 35.7-7.344 54.468-7.344h4.284c17.543 0 34.479 2.04 50.795 6.12 4.488-3.672 11.832-8.16 22.033-13.464 10.199-5.304 22.85-8.364 37.943-9.18 3.264 8.16 5.406 17.34 6.426 27.54 1.021 10.2.307 19.992-2.141 29.376 8.16 8.16 14.48 17.85 18.971 29.07 4.489 11.228 6.733 23.978 6.733 38.258zm-143.208-14.076h1.224-1.224zm78.948 47.736c0 5.712-1.527 10.608-4.59 14.688-3.061 4.08-6.834 6.119-11.322 6.119-4.486 0-8.158-2.039-11.016-6.119-2.854-4.081-4.285-8.977-4.285-14.688s1.432-10.608 4.285-14.688c2.855-4.08 6.527-6.12 11.016-6.12s8.264 2.04 11.322 6.12c3.061 4.08 4.59 8.976 4.59 14.688zm-119.952 0c0 5.712-1.53 10.608-4.59 14.688s-6.834 6.119-11.322 6.119-8.16-2.039-11.016-6.119c-2.856-4.081-4.284-8.977-4.284-14.688s1.428-10.608 4.284-14.688 6.528-6.12 11.016-6.12 8.262 2.04 11.322 6.12c3.061 4.08 4.59 8.976 4.59 14.688z" fill="#FFF"/></svg><svg xmlns="http://www.w3.org/2000/svg" xmlns:xlink="http://www.w3.org/1999/xlink" width="5573.111" height="1990.154" viewBox="0 0 5573.111 1990.154"><path fill="#F64060" d="M3283.748 1072.614c-7.664 11.584-12.557 19.528-17.893 27.18-49.844 71.39-105.776 136.571-182.021 181.676-102.199 60.419-212.97 85.341-328.428 60.315-59.242-12.853-114.359-46.009-170.154-72.463-12.86-6.069-19.889-6.223-31.32.524-47.857 28.227-94.404 59.867-145.076 81.812-89.938 38.936-184.639 60.752-282.521 34.857-61.352-16.232-114.425-50.798-162.374-92.377-34.004-29.479-36.188-29.453-70.677-1.086-62.014 51.031-133.607 83.935-208.522 111.116-92.929 33.748-188.767 54.427-286.788 64.135-119.596 11.841-230.494-8.47-311.427-106.782-64.874-78.774-82.223-170.154-42.536-265.149 43.469-104.014 93.732-205.229 140.932-307.659 24.611-53.367 49.382-106.683 73.253-160.368 4.366-9.862 6.131-21.368 6.629-32.254.934-20.015 5.007-41.936-18.136-53.979-23.645-12.263-51.543-10.052-68.875 11.879-21.728 27.438-40.951 57.492-57.123 88.557-53.572 102.827-105.403 206.599-157.659 310.1-39.201 77.61-77.65 155.565-117.208 232.974-37.479 73.422-107.924 101.396-184.27 72.845-25.715-9.655-41.845-28.624-46.178-57.479-6.13-40.938 7.294-77.599 21.817-114.246 31.716-80.164 63.843-160.177 95.546-240.367 16.977-42.995 33.965-86.026 49.904-129.417 11.166-30.339 14.521-62.515 1.496-92.316-10.08-22.977-29.918-39.582-57.748-37.116-30.392 2.695-54.302 18.572-65.759 46.79-40.312 99.527-78.979 199.708-118.641 299.492-47.438 119.435-94.088 239.194-143.505 357.821-18.292 43.838-45.883 83.755-92.305 102.518-23.5 9.528-50.106 15.42-75.411 15.775-78.952 1.034-147.138-25.342-193.707-92.351-37.03-53.29-46.087-112.598-28.19-175.339 16.551-58.082 33.105-116.161 50.467-174.014 16.451-54.822 33.939-109.351 51.016-164.008 15.916-50.889 30.796-102.163 48.054-152.591 33.964-99.273 61.352-201.523 115.176-292.585 36.825-62.308 96.479-95.994 164.893-116.891 71.528-21.816 132.46 5.648 193.528 36.035 23.158 11.493 46.01 23.784 69.779 33.797 33.161 13.923 63.396 5.109 90.181-16.707 21.921-17.845 44.042-35.676 64.248-55.409 50.48-49.281 159.529-58.413 212.819-1.062 12.274 13.207 26.758 24.348 40.312 36.316 27.896 24.64 39.431 27.154 71.707 8.94 76.756-43.339 156.27-37.338 234.432-9.556 45.345 16.134 72.488 54.657 89.82 100.283 25.494 67.175 14.806 132.039-10.741 195.179-46.994 116.158-98.179 230.597-144.034 347.19-27.18 69.167-50.134 140.288-69.666 211.974-7.955 29.214-8.007 63.854-.586 93.206 11.228 44.429 51.922 58.986 93.08 64.2 62.677 7.945 124.181-3.704 184.229-20.311 51.284-14.127 101.777-31.563 151.862-49.663 24.166-8.736 46.687-22.147 69.754-33.861 19.733-9.978 21.257-24.587 10.858-42.957-21.243-37.489-43.585-74.507-62.298-113.286-39.57-81.967-72.13-166.551-63.444-260.025 7.588-81.814 37.133-152.871 112.622-195.932 111.446-63.521 201.883-45.982 283.798 48.922 70.842 82.097 94.204 180.921 63.791 286.801-17.015 59.203-41.359 116.428-64.582 173.681-6.426 15.852-2.696 26.006 7.333 35.342 46.916 43.824 100.41 77.867 159.794 101.955 22.391 9.122 46.062 15.916 69.793 20.683 51.041 10.229 98.393-1.918 140.914-30.76 20.248-13.72 20.691-26.541 6.643-45.688-97.806-133.395-136.521-281.87-107.131-445.024 11.012-61.083 39.267-118.779 104.833-136.368 40.529-10.884 86.334-10.424 128.476-5.058 68.488 8.71 130.514 36.045 172.59 95.009 50.48 70.751 63.37 148.182 41.645 232.766-15.599 60.752-47.467 112.433-82.557 162.631-13.896 19.901-14.432 38.244 4.512 51.553 29.173 20.502 58.82 42.981 91.787 54.852 71.634 25.776 145.963 23.528 218.131.331 78.966-25.434 134.451-77.814 166.094-155.54 37.794-92.951 38.255-190.312 36.34-288.025-1.521-76.349-4.189-152.691-6.452-229.065-.804-27.271-5.196-28.854-31.194-23.565-68.488 13.836-137.322 26.084-206.056 38.652-21.678 3.935-43.547 6.604-65.211 10.512-47.221 8.496-86.18-10.906-88.849-66.141-2.722-55.665-10.78-111.064-16.503-166.604-.334-3.126-.59-6.27-.755-9.426-3.195-65.359 12.621-100.909 91.088-98.061 81.033 2.978 162.066 5.647 242.999 9.899 39.812 2.07 53.813-7.958 56.433-47.464 2.02-30.67 2.875-61.364 4.789-92.021 2.875-45.982 13.359-56.905 60.071-55.078 27.925 1.099 55.986 5.966 83.298 12.109 38.459 8.648 58.616 35.728 61.284 73.982 2.16 31.346 1.254 62.936.757 94.383-.41 22.251 6.5 34.194 31.445 36.712 72.005 7.33 143.727 17.346 215.579 25.877 33.927 4.038 52.966 17.771 57.554 42.996 7.959 43.812-1.51 73.816-34.578 85.786-46.254 16.732-94.074 29.48-141.896 41.269-33.466 8.266-68.134 11.804-102.148 18.052-22.825 4.177-35.229 16.169-35.024 41.845.854 126.786-2.019 253.688 1.662 380.353 1.914 66.471 11.892 133.033 40.209 195.123 22.875 50.289 61.938 70.101 116.265 60.991 79.717-13.373 152.792-41.371 216.444-91.812 35.319-27.986 58.552-62.233 60.313-109.531 3.183-86.552 7.459-173.077 12.541-259.502 1.471-24.934 4.297-50.788 12.609-74.047 4.635-12.903 21.562-29.966 33.351-30.312 65.116-1.968 130.676-2.618 195.485 3.003 40.771 3.524 68.778 41.667 66.621 84.828-2.922 60.428-10.737 120.642-16.487 180.946-7.103 74.403-13.651 148.858-21.56 223.161-8.01 75.211 52.148 112.507 111.672 113.235 49.935.6 79.414-18.035 100.631-70.878 21.97-54.696 35.027-113.99 44.502-172.469 13.402-83.024 19.746-167.188 29.635-250.791 4.025-34.144 25.34-60.393 51.847-66.089 30.646-6.578 70.853 5.853 80.884 33.864 8.417 23.411 6.5 52.013 3.57 77.686-10.828 95.214-26.446 189.952-35.365 285.355-5.494 58.604 27.361 100.323 84.299 117.643 28.373 8.609 57.801 15.417 87.185 18.815 51.604 5.901 88.147-31.769 98.927-90.423 9.124-49.317 10.336-100.094 14.77-150.252 5.186-59.563 5.938-119.892 16.117-178.596 14.971-86.91 71.11-165.747 175.125-191.041 62.434-15.199 125.379-17.012 187.715-9.809 95.045 10.933 194.463 75.541 224.852 184.716 23.077 83 13.906 163.178-13.246 243.024-31.451 92.529-88.941 164.636-169.223 219.549-7.412 5.059-11.742 14.663-17.438 22.174 10.077 4.458 20.258 12.925 30.29 12.747 95.952-1.468 186.444-23.414 269.3-73.675 18.695-11.318 39.059-19.89 58.805-29.279 18.142-8.596 28.832 1.585 23.785 17.232-8.42 26.224-18.549 53.893-35.319 75.079-71.008 89.761-167.865 132.794-279.89 140.331-47.518 3.191-95.746-3.156-143.623-5.801-36.137-2.02-72.207-5.161-108.342-7.611-18.34-1.201-28.93 6.5-33.519 25.456-28.767 118.729-43.99 239.46-58.908 360.516-9.416 76.218-23.635 152.18-41.871 226.765-9.876 40.465-41.476 68.363-85.226 75.414-26.149 4.213-45.5-7.104-54.275-31.476-7.395-20.551-14.303-42.124-16.064-63.659-8.627-106.288-5.101-212.319 9.015-318.096 7.155-53.814 11.942-107.935 18.088-161.865 4.342-37.514 9.992-74.902 13.519-112.493 2.768-30.361-4.142-37.528-33.213-43.312-60.127-11.995-120.285-23.786-180.153-37.043-40.672-9.044-72.376 5.362-99.942 33.389-36.629 37.26-77.1 69.641-125.127 90.576-58.002 25.303-119.481 19.988-179.143 10.536-86.069-13.705-154.814-58.959-203.686-131.577-15.179-22.53-26.162-47.95-38.055-72.516-6.654-13.755-12.644-19.106-28.773-10.881-57.203 29.124-114.193 59.025-173.244 83.972-65.771 27.797-135.566 37.565-205.46 18.075-68.134-19.034-120.39-62.896-163.78-117.72-11.647-14.692-23.09-29.484-41.129-52.59zm1962.418-272.66c-.752-9.426-.752-18.917-2.314-28.19-8.722-53.701-62.641-77.737-106.08-45.356-19.643 14.636-37.49 33.859-50.893 54.427-44.754 68.604-64.961 147.199-85.168 225.358-5.086 19.633-8.625 40.391-8.217 60.545.759 37.542 22.832 48.578 54.275 28.294 65.26-42.102 113.598-100.5 154.405-165.416 24.797-39.434 45.105-81.035 43.992-129.662zm-2560.77 37.872c.573-37.312-8.137-71.837-35.615-98.673-15.234-14.87-34.281-21.345-56.124-14.536-26.492 8.211-40.812 27.87-42.804 60.493-3.855 63.2 23.287 117.502 51.223 170.957 14.384 27.528 28.051 26.657 46.634 1.216 25.994-35.575 36.136-76.015 36.686-119.457zm-644.289-12.071c-6.908-22.854-11.479-46.789-21.345-68.312-12.595-27.388-45.062-39.713-73.776-32.202-30.389 7.972-42.406 22.456-39.253 59.894 2.772 32.585 10.259 65.081 18.93 96.732 6.36 23.262 16.159 46.061 27.743 67.252 15.586 28.547 31.871 28.829 47.198 1.188 21.126-38.052 37.452-78.017 40.503-124.552z"/></svg><svg xmlns="http://www.w3.org/2000/svg" xmlns:xlink="http://www.w3.org/1999/xlink" viewBox="0 0 511.271 511.271"><path d="M508.342 94.243c-2.603-2.603-6.942-3.471-10.414-2.603l-17.356 6.075c10.414-12.149 17.356-25.166 21.695-37.315 1.736-4.339.868-7.81-1.736-10.414-2.603-2.603-6.942-3.471-10.414-1.736-24.298 10.414-45.125 19.092-62.481 24.298 0 .868-.868 0-1.736 0-13.885-7.81-47.729-25.166-72.027-25.166-61.614.868-111.078 52.936-111.078 116.285v3.471c-90.251-17.356-139.715-43.39-193.519-99.797L40.6 58.663l-5.207 10.414c-29.505 56.407-8.678 107.607 25.166 142.319-15.62-2.603-26.034-7.81-35.58-15.62-3.471-2.603-7.81-3.471-12.149-.868-3.471 1.736-5.207 6.942-4.339 11.281 12.149 40.786 42.522 73.763 75.498 93.722-15.62 0-28.637-1.736-41.654-10.414-3.471-1.736-8.678-1.736-12.149.868s-5.207 6.942-3.471 11.281c15.62 44.258 45.993 67.688 94.59 73.763-25.166 14.753-58.142 26.902-109.342 27.77-5.207 0-9.546 3.471-11.281 7.81-1.736 5.207 0 9.546 3.471 13.017 31.241 25.166 100.664 39.919 186.576 39.919 152.732 0 277.695-136.244 277.695-303.729v-2.603c19.092-9.546 34.712-27.77 42.522-52.936.867-3.472-.001-7.811-2.604-10.414zm-52.068 49.464l-5.207 1.736v14.753c0 157.939-117.153 286.373-260.339 286.373-78.97 0-131.905-13.017-160.542-26.902 59.878-4.339 94.59-23.431 121.492-44.258l21.695-15.62h-26.034c-49.464 0-79.837-13.885-97.193-46.861 15.62 5.207 32.108 5.207 50.332 4.339 6.942-.868 13.885-.868 20.827-.868l2.603-17.356c-32.976-9.546-72.027-39.051-91.119-78.969 17.356 7.81 36.447 9.546 53.803 9.546h26.902L91.8 213.999c-18.224-13.017-72.027-59.01-45.993-124.963 55.539 54.671 108.475 79.837 203.932 97.193l10.414 1.736v-24.298c0-53.803 41.654-98.061 93.722-98.929 19.959-.868 52.936 17.356 62.481 22.563 5.207 2.603 10.414 3.471 15.62 1.736 13.017-4.339 28.637-10.414 45.993-17.356-7.81 13.017-18.224 25.166-32.108 36.448-3.471 2.603-4.339 7.81-2.603 12.149 1.736 4.339 6.942 6.075 11.281 4.339l33.844-11.281c-6.075 11.28-15.621 24.297-32.109 30.371z"/></svg><svg xmlns="http://www.w3.org/2000/svg" width="512" height="512" viewBox="0 0 31.444 31.443"><path d="M31.202 16.369a2.754 2.754 0 0 0-3.637-1.391l-1.325.594-3.396-7.591 1.325-.592a2.753 2.753 0 0 0-2.248-5.027l-1.324.593-.593-1.326a2.752 2.752 0 1 0-5.026 2.249l.593 1.325L7.98 8.598l-.592-1.325A2.753 2.753 0 1 0 2.362 9.52l.592 1.324-1.324.594a2.754 2.754 0 0 0 2.248 5.026l1.325-.594 3.394 7.592-1.325.592a2.754 2.754 0 0 0 2.248 5.028l1.324-.593.593 1.325a2.752 2.752 0 1 0 5.025-2.247l-.591-1.326 7.591-3.394.592 1.321a2.751 2.751 0 1 0 5.026-2.245l-.592-1.324 1.323-.594a2.75 2.75 0 0 0 1.391-3.636zm-17.579 4.846l-3.395-7.593 7.591-3.394 3.395 7.591-7.591 3.396z" fill="#FFF"/></svg>