<?xml version="1.0" encoding="iso-8859-1"?>
<!-- Generator: Adobe Illustrator 16.0.0, SVG Export Plug-In . SVG Version: 6.00 Build 0)  -->
<!DOCTYPE svg PUBLIC "-//W3C//DTD SVG 1.1//EN" "http://www.w3.org/Graphics/SVG/1.1/DTD/svg11.dtd">
<svg xmlns="http://www.w3.org/2000/svg" xmlns:xlink="http://www.w3.org/1999/xlink" version="1.1" id="Capa_1" x="0px" y="0px" width="512px" height="512px" viewBox="0 0 97.502 97.502" style="enable-background:new 0 0 97.502 97.502;" xml:space="preserve">
<g>
	<g>
		<path d="M20.064,37.749c-0.21-0.722-0.824-1.627-1.467-1.858c-1.05-0.378-2.273-0.342-3.427-0.333    c-0.409,0.003-1.042,0.345-1.188,0.694c-0.805,1.929-1.612,3.872-2.184,5.876c-0.604,2.117-0.941,4.309-1.433,6.625    c-0.221-0.371-0.396-0.637-0.545-0.918c-1.092-2.091-2.171-4.184-3.265-6.271c-1.101-2.099-1.718-2.411-4.084-2.021    c-0.588,0.095-1.188,0.235-1.729,0.478c-0.269,0.122-0.581,0.512-0.59,0.79c-0.17,4.837-0.353,9.67,0.385,14.49    c0.51,3.343,1.13,3.774,4.325,2.551c0.159-0.062,0.305-0.152,0.464-0.219c0.722-0.304,1.051-0.79,0.921-1.616    c-0.229-1.428-0.39-2.867-0.575-4.302c0.066-0.005,0.134-0.011,0.201-0.016c0.963,1.565,1.956,3.112,2.881,4.7    c0.758,1.293,1.645,2.138,3.303,1.644c0.643-0.192,1.386-0.062,2.028-0.258c0.446-0.136,0.965-0.499,1.16-0.901    c0.268-0.557,0.335-1.242,0.371-1.879c0.155-2.693,0.262-5.393,0.403-8.087c0.023-0.496,0.122-0.989,0.201-1.585    c1.446,4.624,2.857,9.054,4.202,13.507c0.234,0.777,0.5,1.099,1.328,0.854c1.146-0.336,2.31-0.604,3.256-0.846    c-1.039-4.583-2.033-9.043-3.062-13.497C21.359,42.808,20.79,40.254,20.064,37.749z" fill="#FFFFFF"/>
		<path d="M97.396,43.191c-0.214-1.931-0.773-3.801-3.12-4.345c-0.864-0.202-1.653-0.8-2.518-0.929    c-0.916-0.134-2.023-0.208-2.806,0.181c-2.914,1.453-4.698,3.98-5.515,7.054c-0.744,2.796-1.13,5.688-1.702,8.532    c-0.063,0.326-0.233,0.767-0.488,0.899c-1.369,0.713-1.459,1.514-0.345,2.566c0.376,0.354,0.637,0.955,0.717,1.479    c0.494,3.161,0.908,6.333,1.395,9.497c0.054,0.36,0.379,0.961,0.6,0.972c1.308,0.056,2.618-0.031,3.952-0.07    c-1.284-5.257-1.6-8.622-1.063-10.956c0.82-0.299,1.736-0.427,2.395-0.909c1.749-1.285,3.405-2.701,5.064-4.103    C97.052,50.457,97.814,46.98,97.396,43.191z M86.647,53.584c0.931-4.504,1.491-9.02,5.251-12.281    C93.704,45.945,91.409,51.121,86.647,53.584z" fill="#FFFFFF"/>
		<path d="M35.091,56.913c-1.853,0.844-3.261,0.516-4.323-1.124c-1.095-1.688-1.003-3.565-0.751-5.452    c2.098,0.107,4.049,0.207,6.003,0.313c0.746,0.041,0.959-0.323,1.131-1.037c0.677-2.826,0.122-5.626-0.035-8.434    c-0.088-1.604-0.461-2.937-2.478-3.286c-1.82-0.314-3.446-0.886-5.12,0.62c-1.679,1.515-3.255,2.961-3.899,5.248    c-0.804,2.843-0.716,5.732-0.762,8.627c-0.037,2.46,0.84,4.243,3.031,5.643c3.025,1.932,8.852,2.072,11.882-0.091    C38.443,56.558,36.712,56.176,35.091,56.913z M30.612,45.651c0.288-1.054,0.774-2.052,1.172-3.076    c0.146,0.036,0.289,0.072,0.432,0.108c0.036,1.574,0.071,3.149,0.106,4.827C30.189,47.417,30.135,47.402,30.612,45.651z" fill="#FFFFFF"/>
		<path d="M52.086,55.628c-0.357-0.092-0.827-0.047-1.163,0.113c-0.769,0.371-1.439,0.977-2.234,1.257    c-1.319,0.464-2.636,0.411-3.654-0.761c-1.233-1.419-2.237-2.919-1.538-5.052c2.185,0.298,4.349,1.067,6.324-0.178    c0.197-2.291,0.374-4.458,0.577-6.618c0.177-1.82,0.444-3.632,0.538-5.455c0.021-0.434-0.396-1.102-0.788-1.305    c-1.058-0.536-2.19-0.958-3.337-1.269c-0.528-0.144-1.412-0.15-1.693,0.169c-1.543,1.752-3.341,3.441-4.308,5.501    c-1.356,2.889-2.171,6.024-2.06,9.357c0.116,3.448,2.09,6.332,5.404,7.177c0.907,0.229,1.875,0.217,2.793,0.417    c2.452,0.53,4.497-0.462,6.547-1.509C53.481,56.407,52.95,55.844,52.086,55.628z M45.885,42.499    c0.139,0.031,0.276,0.063,0.415,0.097c-0.021,1.548,0.036,3.102-0.085,4.642c-0.142,1.84-0.273,1.875-2.442,1.221    C44.479,46.461,45.184,44.479,45.885,42.499z" fill="#FFFFFF"/>
		<path d="M61.661,46.401c-0.022,0.274-0.325,0.523-0.5,0.785c-0.124-0.326-0.362-0.657-0.346-0.976    c0.039-0.831,0.288-1.656,0.278-2.481c-0.048-3.763-0.275-7.527-0.192-11.285c0.053-2.446,0.168-2.567-2.113-3.592    c-2.224-0.999-3.273-0.425-3.334,2.023c-0.058,2.309,0.032,4.628,0.208,6.931c0.248,3.189,0.645,6.367,0.995,9.739    c-0.938-0.041-1.78-0.071-2.616-0.12c-0.999-0.059-1.692,0.293-1.771,1.375c-0.086,1.095,0.587,1.385,1.54,1.402    c1.016,0.02,2.028,0.106,3.128,0.168c0.141,1.747,0.286,3.36,0.396,4.974c0.109,1.602,0.183,3.205,0.275,4.891    c1.237-0.206,2.305-0.383,3.421-0.568c-0.066-1.584-0.146-3.034-0.181-4.488c-0.036-1.449,0.039-2.904-0.063-4.349    c-0.062-0.822,0.383-0.786,0.914-0.854c1.507-0.19,3.008-0.41,4.509-0.619c0.069-0.152,0.141-0.305,0.207-0.455    c-1.206-1.077-2.366-2.216-3.646-3.197C62.251,45.309,61.73,45.606,61.661,46.401z" fill="#FFFFFF"/>
		<path d="M79.658,44.818c-0.588-0.254-1.147-0.596-1.762-0.764c-0.406-0.113-1.065-0.162-1.281,0.069    c-0.362,0.388-0.603,1.012-0.635,1.554c-0.046,0.749,0.219,1.512,0.223,2.27c0.013,3.248-0.783,6.184-3.539,8.536    c-0.132-0.428-0.279-0.703-0.298-0.986c-0.162-2.564-0.397-5.128-0.422-7.696c-0.023-2.513,0.027-2.586-2.335-3.625    c-0.354-0.155-0.698-0.345-1.062-0.463c-1.215-0.392-1.812,0.003-1.854,1.275c-0.033,0.896-0.063,1.813,0.082,2.692    c0.513,3.067,1.024,6.138,1.696,9.173c0.253,1.161,1.106,2.105,2.438,2.139c1.147,0.027,2.327-0.046,3.439-0.307    c0.623-0.145,1.214-0.683,1.678-1.177c0.681-0.726,1.198-1.6,1.847-2.356c1.813-2.119,3.293-4.333,3.396-7.293    C81.324,46.411,81.022,45.403,79.658,44.818z" fill="#FFFFFF"/>
	</g>
</g>
<g>
</g>
<g>
</g>
<g>
</g>
<g>
</g>
<g>
</g>
<g>
</g>
<g>
</g>
<g>
</g>
<g>
</g>
<g>
</g>
<g>
</g>
<g>
</g>
<g>
</g>
<g>
</g>
<g>
</g>
</svg>
